<?xml version="1.0" encoding="utf-8" ?>
<svg baseProfile="full" height="200mm" version="1.1" viewBox="0,0,200,200" width="200mm" xmlns="http://www.w3.org/2000/svg" xmlns:ev="http://www.w3.org/2001/xml-events" xmlns:xlink="http://www.w3.org/1999/xlink"><defs /><rect fill="#1a1a1a" height="200" width="200" x="0" y="0" /><text alignment-baseline="middle" fill="#e1ed5e" style="dominant-baseline: central; font-size:9.0px; font-family:Arial;" text-anchor="middle" x="100.0" y="100.0">2023</text><line stroke="#e1ed5e" stroke-width="0.3" x1="100.0" x2="100.0" y1="15.0" y2="10.0" /><path d="M 100.0 14.0 a86.0,86.0 0 0,1 42.46469731375804,11.215312516191453" fill="none" id="id85" stroke="none" /><text fill="#e1ed5e" style="font-size:6.75px; font-family:Arial;" text-anchor="middle"><textPath startOffset="22.20632615414155" xlink:href="#id85">January</textPath></text><path d="M 101.08401301168833 79.027996857942 l 1.0782110173789061 -20.859754080860927 a41.88760109040747,41.88760109040747 0 0,0 0.7197445788802985,0.043416958535246686 l -1.4371176450988166 20.838103852945377" fill="#ff830c" stroke="none" /><path d="M 101.44485096284872 79.0497635885617 l 2.1676858132606363 -31.431290438421666 a52.50594992075987,52.50594992075987 0 0,0 0.9011266413472124,0.06994477059899377 l -2.7084026439701896 31.38932040563421" fill="#d4ff1c" stroke="none" /><path d="M 102.16513564639614 79.11191278185805 l 6.418484541566286 -61.92215491703334 a83.25391725328939,83.25391725328939 0 0,0 1.424170435267986,0.16002214236983436 l -7.483421680343998 61.802496821192904" fill="#4cdaff" stroke="none" /><path d="M 103.2404852339499 79.25152402106235 l 3.427006485042939 -21.94275134773726 a43.20875300770288,43.20875300770288 0 0,0 0.7338714398574596,0.1210950756296213 l -3.804207131039274 21.880510009168017" fill="#ff990e" stroke="none" /><path d="M 103.59715602781102 79.31037775812273 l 2.2911642315293186 -13.178000086164985 a34.37569137677764,34.37569137677764 0 0,0 0.5821030270972889,0.1063756074931173 l -2.5176623797295083 13.13660899732113" fill="#ff0000" stroke="none" /><path d="M 105.71112130821622 79.79150937346287 l 11.956386972262763 -42.30702186427365 a64.96406815178304,64.96406815178304 0 0,0 1.0734841497690797,0.31337946019118357 l -12.68286133975527 42.09494407516377" fill="#2fff31" stroke="none" /><path d="M 106.40334571778207 80.00007090966166 l 18.978463351083747 -59.27649981652577 a83.24054548015312,83.24054548015312 0 0,0 1.3608528166308504,0.4486517777870571 l -19.995998989957013 58.941034314479474" fill="#4cdbff" stroke="none" /><path d="M 106.74666289553966 80.11325718540242 l 6.814461122608711 -20.086587675069183 a42.21103214885562,42.21103214885562 0 0,0 0.6860659475937204,0.23935493785744044 l -7.159209074265705 19.966311884039534" fill="#ff890c" stroke="none" /><path d="M 107.08798089147638 80.2323363322302 l 7.009361192829454 -19.548401259432495 a41.76706854930001,41.76706854930001 0 0,0 0.6746727548852818,0.24848766942184633 l -7.344816273487313 19.424850322204325" fill="#ff810b" stroke="none" /><path d="M 109.41281617654863 81.2277094730956 l 13.973658258507118 -27.868128690956333 a52.17524212995382,52.17524212995382 0 0,0 0.7993731887061887,0.4094699950784057 l -14.451291934802063 27.623466170565425" fill="#d9ff1c" stroke="none" /><path d="M 109.73455568895987 81.39251694778311 l 12.685193445734154 -24.24759070650628 a48.36530262624454,48.36530262624454 0 0,0 0.734357919930255,0.3922685684014298 l -13.100696412192718 24.025643411603095" fill="#ffec16" stroke="none" /><path d="M 110.36928655335952 81.73862282372117 l 17.575416999709926 -30.952112009876085 a56.593939379978835,56.593939379978835 0 0,0 0.8429890076531672,0.4883136444081773 l -18.105602739828424 30.644994208077858" fill="#9aff22" stroke="none" /><line stroke="#e1ed5e" stroke-width="0.3" x1="143.23703022742887" x2="145.7803849466894" y1="26.81831364943548" y2="22.513508569990506" /><path d="M 143.74570117128098 25.957352633546492 a86.0,86.0 0 0,1 28.547481713284135,27.462654790039103" fill="none" id="id86" stroke="none" /><text fill="#e1ed5e" style="font-size:6.75px; font-family:Arial;" text-anchor="middle"><textPath startOffset="19.985693538727396" xlink:href="#id86">February</textPath></text><path d="M 110.99172775467656 82.1063720568725 l 24.2635290635694 -39.49902793635442 a67.3561436115601,67.3561436115601 0 0,0 0.9826967796497785,0.6153646332639156 l -24.939844995591443 39.075518961767564" fill="#33ff54" stroke="none" /><path d="M 111.60114157652 82.49532879139004 l 34.803424729560035 -52.514013625829904 a84.0,84.0 0 0,0 1.1983812223738326,0.8091523508053196 l -35.70221064634041 51.90714936272591" fill="#4dd2ff" stroke="none" /><line stroke="#e1ed5e" stroke-width="0.3" x1="172.23445277983987" x2="176.4835382374775" y1="55.19839476539836" y2="52.563006222186495" /><path d="M 173.08426987136738 54.67131705675599 a86.0,86.0 0 0,1 12.851231095245387,41.99856678651699" fill="none" id="id87" stroke="none" /><text fill="#e1ed5e" style="font-size:6.75px; font-family:Arial;" text-anchor="middle"><textPath startOffset="22.20632615414155" xlink:href="#id87">March</textPath></text><line stroke="#e1ed5e" stroke-width="0.3" x1="184.98032266829074" x2="189.97916517819016" y1="98.17113171792111" y2="98.06355123074" /><path d="M 185.9800911702706 98.14961562048488 a86.0,86.0 0 0,1 -9.607161424134198,41.387399972396054" fill="none" id="id88" stroke="none" /><text fill="#e1ed5e" style="font-size:6.75px; font-family:Arial;" text-anchor="middle"><textPath startOffset="21.466115282336823" xlink:href="#id88">April</textPath></text><line stroke="#e1ed5e" stroke-width="0.3" x1="174.80103733775053" x2="179.2010983576182" y1="140.37084112569926" y2="142.7455964860345" /><path d="M 175.68104954172406 140.8457921977663 a86.0,86.0 0 0,1 -30.038265399797805,32.042727171017184" fill="none" id="id89" stroke="none" /><text fill="#e1ed5e" style="font-size:6.75px; font-family:Arial;" text-anchor="middle"><textPath startOffset="22.206326154141568" xlink:href="#id89">May</textPath></text><line stroke="#e1ed5e" stroke-width="0.3" x1="143.8653032363475" x2="146.44561519142675" y1="172.8068346515853" y2="177.08958963109032" /><path d="M 144.38136562736335 173.6633856474863 a86.0,86.0 0 0,1 -40.68145358897372,12.25698825130547" fill="none" id="id90" stroke="none" /><text fill="#e1ed5e" style="font-size:6.75px; font-family:Arial;" text-anchor="middle"><textPath startOffset="21.466115282336833" xlink:href="#id90">June</textPath></text><line stroke="#e1ed5e" stroke-width="0.3" x1="102.19456741930631" x2="102.32365962044197" y1="184.97166512339345" y2="189.96999836594603" /><path d="M 102.22038585953345 185.97133177190398 a86.0,86.0 0 0,1 -42.740103519485714,-10.115201625700543" fill="none" id="id91" stroke="none" /><text fill="#e1ed5e" style="font-size:6.75px; font-family:Arial;" text-anchor="middle"><textPath startOffset="22.20632615414155" xlink:href="#id91">July</textPath></text><line stroke="#e1ed5e" stroke-width="0.3" x1="58.666819895761336" x2="56.23545636021788" y1="174.27360380694188" y2="178.64263932499728" /><path d="M 58.180547188652646 175.14741091055294 a86.0,86.0 0 0,1 -31.652253787137756,-30.449443065178592" fill="none" id="id92" stroke="none" /><text fill="#e1ed5e" style="font-size:6.75px; font-family:Arial;" text-anchor="middle"><textPath startOffset="22.20632615414155" xlink:href="#id92">August</textPath></text><line stroke="#e1ed5e" stroke-width="0.3" x1="26.63291911575756" x2="22.317208475507996" y1="142.92168965132927" y2="145.44649492493687" /><path d="M 25.769776987707644 143.4266507060508 a86.0,86.0 0 0,1 -11.730757126820373,-40.83630448921669" fill="none" id="id93" stroke="none" /><text fill="#e1ed5e" style="font-size:6.75px; font-family:Arial;" text-anchor="middle"><textPath startOffset="21.46611528233685" xlink:href="#id93">September</textPath></text><line stroke="#e1ed5e" stroke-width="0.3" x1="15.007084014347285" x2="10.007500721073583" y1="101.09737516637583" y2="101.16192664675087" /><path d="M 14.007167355692545 101.11028546245083 a86.0,86.0 0 0,1 10.666146001902534,-42.60595125391555" fill="none" id="id94" stroke="none" /><text fill="#e1ed5e" style="font-size:6.75px; font-family:Arial;" text-anchor="middle"><textPath startOffset="22.20632615414155" xlink:href="#id94">October</textPath></text><line stroke="#e1ed5e" stroke-width="0.3" x1="26.266209847984243" x2="21.928928074336255" y1="57.711370442889674" y2="55.22380399835377" /><path d="M 25.398753493254645 57.213857153982495 a86.0,86.0 0 0,1 29.58750427330803,-30.492523968695096" fill="none" id="id95" stroke="none" /><text fill="#e1ed5e" style="font-size:6.75px; font-family:Arial;" text-anchor="middle"><textPath startOffset="21.46611528233685" xlink:href="#id95">November</textPath></text><line stroke="#e1ed5e" stroke-width="0.3" x1="56.762969772571076" x2="54.21961505331055" y1="26.818313649435495" y2="22.513508569990535" /><path d="M 56.25429882871897 25.957352633546506 a86.0,86.0 0 0,1 42.265352541879196,-11.944610805530505" fill="none" id="id96" stroke="none" /><text fill="#e1ed5e" style="font-size:6.75px; font-family:Arial;" text-anchor="middle"><textPath startOffset="22.20632615414155" xlink:href="#id96">December</textPath></text></svg>