<?xml version="1.0" encoding="utf-8" ?>
<svg baseProfile="full" height="200mm" version="1.1" viewBox="0,0,200,200" width="200mm" xmlns="http://www.w3.org/2000/svg" xmlns:ev="http://www.w3.org/2001/xml-events" xmlns:xlink="http://www.w3.org/1999/xlink"><defs /><rect fill="#1a1a1a" height="200" width="200" x="0" y="0" /><text alignment-baseline="middle" fill="#e1ed5e" style="dominant-baseline: central; font-size:9.0px; font-family:Arial;" text-anchor="middle" x="100.0" y="100.0">2023</text><line stroke="#e1ed5e" stroke-width="0.3" x1="100.0" x2="100.0" y1="15.0" y2="10.0" /><path d="M 100.0 14.0 a86.0,86.0 0 0,1 42.46469731375804,11.215312516191453" fill="none" id="id85" stroke="none" /><text fill="#e1ed5e" style="font-size:6.75px; font-family:Arial;" text-anchor="middle"><textPath startOffset="22.20632615414155" xlink:href="#id85">January</textPath></text><path d="M 101.08401301168833 79.027996857942 l 0.7751793598332481 -14.997111468949369 a36.01713206481198,36.01713206481198 0 0,0 0.6188737209971369,0.03733215292137022 l -1.033215129669997 14.981546046647695" fill="#ff760a" stroke="none" /><path d="M 101.44485096284872 79.0497635885617 l 1.558456808508464 -22.597513110206208 a43.651189513796574,43.651189513796574 0 0,0 0.7491579498464753,0.058149075324290755 l -1.9472049477172806 22.567338772693454" fill="#ffe515" stroke="none" /><path d="M 102.16513564639614 79.11191278185805 l 4.614566775737616 -44.51890737007063 a65.7574277629163,65.7574277629163 0 0,0 1.1248694068568348,0.12639218447028375 l -5.380202886104176 44.43287923212974" fill="#34ff59" stroke="none" /><path d="M 103.2404852339499 79.25152402106235 l 2.4638448786008 -15.775731900856284 a36.966973682996475,36.966973682996475 0 0,0 0.6278590404836982,0.10360212138366139 l -2.7350331252233735 15.730983516532998" fill="#ff850c" stroke="none" /><path d="M 103.59715602781102 79.31037775812273 l 1.6472315656607575 -9.474317648421867 a30.61644771909603,30.61644771909603 0 0,0 0.5184456277813576,0.09474262465598737 l -1.8100723145450162 9.44455954241514" fill="#ff2203" stroke="none" /><path d="M 105.71112130821622 79.79150937346287 l 8.596039411290997 -30.416615668539258 a52.607948403654675,52.607948403654675 0 0,0 0.8693082248366375,0.2537749088308973 l -9.118337853851061 30.264142430789658" fill="#a3ff21" stroke="none" /><path d="M 106.40334571778207 80.00007090966166 l 13.644558285886866 -42.61681474247293 a65.74781413221457,65.74781413221457 0 0,0 1.0748739996000956,0.35436905808196784 l -14.37611510772938 42.37563196013173" fill="#34ff59" stroke="none" /><path d="M 106.74666289553966 80.11325718540242 l 4.899253973005939 -14.441243804989496 a36.24966268896338,36.24966268896338 0 0,0 0.5891743915418717,0.2055513764665249 l -5.1471103686110835 14.354771575350762" fill="#ff7a0b" stroke="none" /><path d="M 107.08798089147638 80.2323363322302 l 5.039377296947152 -14.054314906638616 a35.93047524481223,35.93047524481223 0 0,0 0.5803929641157725,0.21376362682155167 l -5.280552586835501 13.96548801201074" fill="#ff750a" stroke="none" /><path d="M 109.41281617654863 81.2277094730956 l 10.046355758532847 -20.035779462652656 a43.41342728596098,43.41342728596098 0 0,0 0.6651340441469571,0.3407074913585053 l -10.38975029026856 19.85987944598165" fill="#ffe215" stroke="none" /><path d="M 109.73455568895987 81.39251694778311 l 9.120014520468853 -17.432795193524502 a40.67427287380486,40.67427287380486 0 0,0 0.617580637365325,0.3298901883086477 l -9.41874020436249 17.2732262787141" fill="#ffbb11" stroke="none" /><path d="M 110.36928655335952 81.73862282372117 l 12.635838698585413 -22.25300797948621 a46.59024782513342,46.59024782513342 0 0,0 0.6939800835691364,0.4019980577181649 l -13.017015514619878 22.032205764377995" fill="#f1ff19" stroke="none" /><line stroke="#e1ed5e" stroke-width="0.3" x1="143.23703022742887" x2="145.7803849466894" y1="26.81831364943548" y2="22.513508569990506" /><path d="M 143.74570117128098 25.957352633546492 a86.0,86.0 0 0,1 28.547481713284135,27.462654790039103" fill="none" id="id86" stroke="none" /><text fill="#e1ed5e" style="font-size:6.75px; font-family:Arial;" text-anchor="middle"><textPath startOffset="19.985693538727396" xlink:href="#id86">February</textPath></text><path d="M 110.99172775467656 82.1063720568725 l 17.44425406866661 -28.397809608894686 a54.32773005464403,54.32773005464403 0 0,0 0.7926179039920337,0.49633725876490525 l -17.930491125030905 28.09332800880684" fill="#8eff24" stroke="none" /><path d="M 111.60114157652 82.49532879139004 l 25.021907647957224 -37.75492812502001 a66.2938236415113,66.2938236415113 0 0,0 0.9457770644208284,0.6385928957547873 l -25.668089406784595 37.31862331696655" fill="#34ff60" stroke="none" /><path d="M 112.48926042617603 83.11751280151076 l 14.13895364284469 -19.11247709872953 a44.77386781665894,44.77386781665894 0 0,0 0.6156488830082868,0.46369397494196984 l -14.465848679611359 18.866266534281714" fill="#fff417" stroke="none" /><path d="M 113.06298171725822 83.55741782278167 l 14.96600670160871 -18.837949894004055 a45.05929576695054,45.05929576695054 0 0,0 0.603143566817486,0.48770015187619387 l -15.288053666990688 18.57754364486373" fill="#fff817" stroke="none" /><path d="M 113.6212207817346 84.01681056812373 l 31.691801043656152 -37.18727327269597 a69.85963105518556,69.85963105518556 0 0,0 0.9085284983533464,0.7878669609835338 l -32.32722334065626 36.63624131829277" fill="#39ff8d" stroke="none" /><path d="M 114.42810811169701 84.74124197986012 l 15.392940102103866 -16.27913697472872 a43.404305515434686,43.404305515434686 0 0,0 0.5384547088636509,0.5179930033097254 l -15.670878054579935 16.01176088465669" fill="#ffe115" stroke="none" /><path d="M 114.94478906791727 85.2469230424477 l 11.095490541169816 -10.953157324052109 a36.59107327013202,36.59107327013202 0 0,0 0.4386324176928652,0.45204926331054335 l -11.282387222565792 10.760543865191451" fill="#ff7f0b" stroke="none" /><path d="M 115.4437574822437 85.77008943001954 l 32.894536881547054 -30.30909534829955 a65.72909363584034,65.72909363584034 0 0,0 0.7595039317752723,0.8386632111915354 l -33.41138445393836 29.738379349838464" fill="#34ff59" stroke="none" /><path d="M 116.15771136456269 86.58626213691792 l 17.7034507707216 -14.696973015080522 a44.00898052929265,44.00898052929265 0 0,0 0.47886278157730156,0.5870291488411301 l -17.95381204437531 14.39005969663129" fill="#ffea16" stroke="none" /><path d="M 116.82858285166822 87.43820079747576 l 6.001885634381819 -4.480144456616882 a28.489614510797857,28.489614510797857 0 0,0 0.28996646552532446,0.39551393310567434 l -6.078114712420769 4.376168079839714" fill="#ff0000" stroke="none" /><path d="M 117.04232023915458 87.72973835380427 l 12.15105239204138 -8.748608759529834 a35.97284974416883,35.97284974416883 0 0,0 0.3574799891094836,0.5056300929535654 l -12.299845000954747 8.538152166244474" fill="#ff760a" stroke="none" /><path d="M 117.2510076193507 88.02491185347247 l 51.75302285805209 -35.92526443958259 a84.0,84.0 0 0,0 0.8143021373250665,1.1948879069183742 l -52.36374946104589 35.02909850939381" fill="#4dd2ff" stroke="none" /><line stroke="#e1ed5e" stroke-width="0.3" x1="172.23445277983987" x2="176.4835382374775" y1="55.19839476539836" y2="52.563006222186495" /><path d="M 173.08426987136738 54.67131705675599 a86.0,86.0 0 0,1 12.851231095245387,41.99856678651699" fill="none" id="id87" stroke="none" /><text fill="#e1ed5e" style="font-size:6.75px; font-family:Arial;" text-anchor="middle"><textPath startOffset="22.20632615414155" xlink:href="#id87">March</textPath></text><path d="M 118.03404312379186 89.2402003453031 l 12.824224372164652 -7.6514225913839145 a35.93335188159584,35.93335188159584 0 0,0 0.3123469404685134,0.5339021700090378 l -12.954030987103494 7.429541009020981" fill="#ff750a" stroke="none" /><path d="M 118.3937258080291 89.86733742301442 l 39.19948734694301 -21.594057812039832 a65.75380588344262,65.75380588344262 0 0,0 0.5375902817023026,0.9960731461804361 l -39.56538572786378 20.916103682526938" fill="#34ff59" stroke="none" /><line stroke="#e1ed5e" stroke-width="0.3" x1="184.98032266829074" x2="189.97916517819016" y1="98.17113171792111" y2="98.06355123074" /><path d="M 185.9800911702706 98.14961562048488 a86.0,86.0 0 0,1 -9.607161424134198,41.387399972396054" fill="none" id="id88" stroke="none" /><text fill="#e1ed5e" style="font-size:6.75px; font-family:Arial;" text-anchor="middle"><textPath startOffset="21.466115282336823" xlink:href="#id88">April</textPath></text><line stroke="#e1ed5e" stroke-width="0.3" x1="174.80103733775053" x2="179.2010983576182" y1="140.37084112569926" y2="142.7455964860345" /><path d="M 175.68104954172406 140.8457921977663 a86.0,86.0 0 0,1 -30.038265399797805,32.042727171017184" fill="none" id="id89" stroke="none" /><text fill="#e1ed5e" style="font-size:6.75px; font-family:Arial;" text-anchor="middle"><textPath startOffset="22.206326154141568" xlink:href="#id89">May</textPath></text><line stroke="#e1ed5e" stroke-width="0.3" x1="143.8653032363475" x2="146.44561519142675" y1="172.8068346515853" y2="177.08958963109032" /><path d="M 144.38136562736335 173.6633856474863 a86.0,86.0 0 0,1 -40.68145358897372,12.25698825130547" fill="none" id="id90" stroke="none" /><text fill="#e1ed5e" style="font-size:6.75px; font-family:Arial;" text-anchor="middle"><textPath startOffset="21.466115282336833" xlink:href="#id90">June</textPath></text><line stroke="#e1ed5e" stroke-width="0.3" x1="102.19456741930631" x2="102.32365962044197" y1="184.97166512339345" y2="189.96999836594603" /><path d="M 102.22038585953345 185.97133177190398 a86.0,86.0 0 0,1 -42.740103519485714,-10.115201625700543" fill="none" id="id91" stroke="none" /><text fill="#e1ed5e" style="font-size:6.75px; font-family:Arial;" text-anchor="middle"><textPath startOffset="22.20632615414155" xlink:href="#id91">July</textPath></text><line stroke="#e1ed5e" stroke-width="0.3" x1="58.666819895761336" x2="56.23545636021788" y1="174.27360380694188" y2="178.64263932499728" /><path d="M 58.180547188652646 175.14741091055294 a86.0,86.0 0 0,1 -31.652253787137756,-30.449443065178592" fill="none" id="id92" stroke="none" /><text fill="#e1ed5e" style="font-size:6.75px; font-family:Arial;" text-anchor="middle"><textPath startOffset="22.20632615414155" xlink:href="#id92">August</textPath></text><line stroke="#e1ed5e" stroke-width="0.3" x1="26.63291911575756" x2="22.317208475507996" y1="142.92168965132927" y2="145.44649492493687" /><path d="M 25.769776987707644 143.4266507060508 a86.0,86.0 0 0,1 -11.730757126820373,-40.83630448921669" fill="none" id="id93" stroke="none" /><text fill="#e1ed5e" style="font-size:6.75px; font-family:Arial;" text-anchor="middle"><textPath startOffset="21.46611528233685" xlink:href="#id93">September</textPath></text><line stroke="#e1ed5e" stroke-width="0.3" x1="15.007084014347285" x2="10.007500721073583" y1="101.09737516637583" y2="101.16192664675087" /><path d="M 14.007167355692545 101.11028546245083 a86.0,86.0 0 0,1 10.666146001902534,-42.60595125391555" fill="none" id="id94" stroke="none" /><text fill="#e1ed5e" style="font-size:6.75px; font-family:Arial;" text-anchor="middle"><textPath startOffset="22.20632615414155" xlink:href="#id94">October</textPath></text><line stroke="#e1ed5e" stroke-width="0.3" x1="26.266209847984243" x2="21.928928074336255" y1="57.711370442889674" y2="55.22380399835377" /><path d="M 25.398753493254645 57.213857153982495 a86.0,86.0 0 0,1 29.58750427330803,-30.492523968695096" fill="none" id="id95" stroke="none" /><text fill="#e1ed5e" style="font-size:6.75px; font-family:Arial;" text-anchor="middle"><textPath startOffset="21.46611528233685" xlink:href="#id95">November</textPath></text><line stroke="#e1ed5e" stroke-width="0.3" x1="56.762969772571076" x2="54.21961505331055" y1="26.818313649435495" y2="22.513508569990535" /><path d="M 56.25429882871897 25.957352633546506 a86.0,86.0 0 0,1 42.265352541879196,-11.944610805530505" fill="none" id="id96" stroke="none" /><text fill="#e1ed5e" style="font-size:6.75px; font-family:Arial;" text-anchor="middle"><textPath startOffset="22.20632615414155" xlink:href="#id96">December</textPath></text></svg>