<?xml version="1.0" encoding="utf-8" ?>
<svg baseProfile="full" height="200mm" version="1.1" viewBox="0,0,200,200" width="200mm" xmlns="http://www.w3.org/2000/svg" xmlns:ev="http://www.w3.org/2001/xml-events" xmlns:xlink="http://www.w3.org/1999/xlink"><defs /><rect fill="#1a1a1a" height="200" width="200" x="0" y="0" /><text alignment-baseline="middle" fill="#e1ed5e" style="dominant-baseline: central; font-size:9.0px; font-family:Arial;" text-anchor="middle" x="100.0" y="100.0">2017</text><line stroke="#e1ed5e" stroke-width="0.3" x1="100.0" x2="100.0" y1="15.0" y2="10.0" /><path d="M 100.0 14.0 a86.0,86.0 0 0,1 42.46469731375804,11.215312516191453" fill="none" id="id13" stroke="none" /><text fill="#e1ed5e" style="font-size:6.75px; font-family:Arial;" text-anchor="middle"><textPath startOffset="22.20632615414155" xlink:href="#id13">January</textPath></text><line stroke="#e1ed5e" stroke-width="0.3" x1="143.23703022742887" x2="145.7803849466894" y1="26.81831364943548" y2="22.513508569990506" /><path d="M 143.74570117128098 25.957352633546492 a86.0,86.0 0 0,1 28.547481713284135,27.462654790039103" fill="none" id="id14" stroke="none" /><text fill="#e1ed5e" style="font-size:6.75px; font-family:Arial;" text-anchor="middle"><textPath startOffset="19.985693538727396" xlink:href="#id14">February</textPath></text><path d="M 115.9244219780498 86.31012108654704 l 14.18329063711773 -12.193066202597054 a39.70391928762167,39.70391928762167 0 0,0 0.4410715701317273,0.5220896179011916 l -14.391072820736575 11.947117635066755" fill="#ff8c0c" stroke="none" /><path d="M 116.38621287248628 86.86637796730983 l 17.32817494924207 -13.888608800011548 a43.20718580710529,43.20718580710529 0 0,0 0.4601481330846424,0.5843414002429633 l -17.564677162920674 13.588275005815547" fill="#ffc212" stroke="none" /><path d="M 117.04232023915458 87.72973835380427 l 44.0775766578609 -31.73531483580623 a75.3135615823281,75.3135615823281 0 0,0 0.748428088564523,1.0585984545110858 l -44.61731736622931 30.97188988096335" fill="#40ffc9" stroke="none" /><path d="M 117.45458315368197 88.32363383020206 l 23.034698146172857 -15.409223342508973 a48.713561350079544,48.713561350079544 0 0,0 0.4602349750263775,0.7009694418718757 l -23.29652975655716 15.010435836659424" fill="#ecff1a" stroke="none" /><line stroke="#e1ed5e" stroke-width="0.3" x1="172.23445277983987" x2="176.4835382374775" y1="55.19839476539836" y2="52.563006222186495" /><path d="M 173.08426987136738 54.67131705675599 a86.0,86.0 0 0,1 12.851231095245387,41.99856678651699" fill="none" id="id15" stroke="none" /><text fill="#e1ed5e" style="font-size:6.75px; font-family:Arial;" text-anchor="middle"><textPath startOffset="22.20632615414155" xlink:href="#id15">March</textPath></text><path d="M 117.84615892207809 88.93136811851018 l 25.90480696877846 -16.06680594689407 a51.48280297847991,51.48280297847991 0 0,0 0.46060977807615766,0.7571213659707167 l -26.177532545140842 15.618516807716272" fill="#c6ff1e" stroke="none" /><path d="M 118.3937258080291 89.86733742301442 l 15.785736193730585 -8.695983622337128 a39.0224748116903,39.0224748116903 0 0,0 0.3190401368389851,0.591132919763277 l -15.933084429788035 8.422969719241392" fill="#ff810b" stroke="none" /><path d="M 118.56541770881063 90.18545643968196 l 53.89388190885929 -28.490813399696044 a81.9612742270236,81.9612742270236 0 0,0 0.6486281248908665,1.2529430831035593 l -54.37631946691028 27.55889759433214" fill="#4ae8ff" stroke="none" /><path d="M 119.7369772167798 92.82701384747503 l 26.09782672032807 -9.48470212129332 a48.767897541116355,48.767897541116355 0 0,0 0.2799438001887829,0.7914388207712438 l -26.25722360132666 9.034065674095462" fill="#ecff1a" stroke="none" /><path d="M 119.97218684219823 93.5106431181261 l 29.645403532564426 -9.632375510502763 a52.17102193679118,52.17102193679118 0 0,0 0.27015774008736476,0.8564738633367807 l -29.806816756419998 9.120651480739562" fill="#bdff1f" stroke="none" /><path d="M 120.37134235888165 94.90015583598534 l 26.941624091383268 -6.744675042566037 a48.773039986850854,48.773039986850854 0 0,0 0.1968740010691632,0.8161698356307483 l -27.05373089271325 6.279919975275883" fill="#ecff1a" stroke="none" /><path d="M 120.78858239683441 97.02765380044208 l 16.48137594293296 -2.3565029212824875 a37.64898972881845,37.64898972881845 0 0,0 0.0862054313139058,0.6423305933157856 l -16.519497373304702 2.0724539859020377" fill="#ff6c09" stroke="none" /><path d="M 120.83666639777658 97.38593545837742 l 58.09141017829127 -7.287859421511305 a79.54677473140765,79.54677473140765 0 0,0 0.158751297556968,1.3600841696844903 l -58.20825182885183 6.286831513501962" fill="#47fffb" stroke="none" /><line stroke="#e1ed5e" stroke-width="0.3" x1="184.98032266829074" x2="189.97916517819016" y1="98.17113171792111" y2="98.06355123074" /><path d="M 185.9800911702706 98.14961562048488 a86.0,86.0 0 0,1 -9.607161424134198,41.387399972396054" fill="none" id="id16" stroke="none" /><text fill="#e1ed5e" style="font-size:6.75px; font-family:Arial;" text-anchor="middle"><textPath startOffset="21.466115282336823" xlink:href="#id16">April</textPath></text><path d="M 120.8583938346157 102.4346265915055 l 17.760544577426696 2.0730404484003104 a38.88111966257887,38.88111966257887 0 0,0 -0.08331389064803556,0.6640936817330626 l -17.722229177531812 -2.378451884420768" fill="#ff7f0b" stroke="none" /><path d="M 119.26925614724726 108.34839909993367 l 24.638071165874432 10.674436499961713 a47.85103620656767,47.85103620656767 0 0,0 -0.3339521886151973,0.7529740245242342 l -24.450677892527963 -11.096958860978635" fill="#f9ff18" stroke="none" /><path d="M 119.12269723197855 108.67885076344098 l 26.097402221330462 11.844325956991883 a49.65942183780712,49.65942183780712 0 0,0 -0.35997259603679216,0.7753489471977318 l -25.889655008453836 -12.291794971468446" fill="#dfff1b" stroke="none" /><path d="M 118.97047184881838 109.00673069616215 l 25.107589885519157 11.920488975219737 a48.79368862291868,48.79368862291868 0 0,0 -0.3667583260420657,0.7556307818745069 l -24.89867830286238 -12.35090871305952" fill="#ebff1a" stroke="none" /><path d="M 118.81262510543309 109.33194174019688 l 24.833898788781234 12.318775044952302 a48.72137708808077,48.72137708808077 0 0,0 -0.3791482025513787,0.7480953734331663 l -24.618171916443586 -12.744424630088162" fill="#ecff1a" stroke="none" /><path d="M 118.64920377521936 109.65438752849418 l 9.015174697301877 4.667008372790641 a31.151568448992006,31.151568448992006 0 0,0 -0.2506180644913218,0.4740749301340173 l -8.933504124585662 -4.821498318010793" fill="#ff0000" stroke="none" /><line stroke="#e1ed5e" stroke-width="0.3" x1="174.80103733775053" x2="179.2010983576182" y1="140.37084112569926" y2="142.7455964860345" /><path d="M 175.68104954172406 140.8457921977663 a86.0,86.0 0 0,1 -30.038265399797805,32.042727171017184" fill="none" id="id17" stroke="none" /><text fill="#e1ed5e" style="font-size:6.75px; font-family:Arial;" text-anchor="middle"><textPath startOffset="22.206326154141568" xlink:href="#id17">May</textPath></text><path d="M 116.498646956653 112.99209946851258 l 8.511658966883477 6.702629629589988 a31.833908912298714,31.833908912298714 0 0,0 -0.3427179330641946,0.4275933167887973 l -8.395023121764428 -6.848150779957035" fill="#ff0c01" stroke="none" /><path d="M 114.0293411484842 115.62618273729858 l 18.05056642763293 20.105110177637542 a48.01922285361542,48.01922285361542 0 0,0 -0.6198084553312003,0.546908897936383 l -17.70181561939514 -20.412842217346213" fill="#f6ff19" stroke="none" /><path d="M 111.45004920935366 117.60387380957326 l 10.907031359102113 16.769011221876685 a41.0040763452818,41.0040763452818 0 0,0 -0.5949851548887789,0.379747676598299 l -10.616764402166403 -16.95427332729879" fill="#ffa00e" stroke="none" /><line stroke="#e1ed5e" stroke-width="0.3" x1="143.8653032363475" x2="146.44561519142675" y1="172.8068346515853" y2="177.08958963109032" /><path d="M 144.38136562736335 173.6633856474863 a86.0,86.0 0 0,1 -40.68145358897372,12.25698825130547" fill="none" id="id18" stroke="none" /><text fill="#e1ed5e" style="font-size:6.75px; font-family:Arial;" text-anchor="middle"><textPath startOffset="21.466115282336833" xlink:href="#id18">June</textPath></text><path d="M 110.8373102113329 117.98757091392108 l 22.931247001268265 38.06086782941883 a65.43502840059477,65.43502840059477 0 0,0 -0.9697849142112092,0.5729660211571627 l -22.272694216028675 -38.44995242286974" fill="#32ff49" stroke="none" /><path d="M 103.7750983002368 120.6578951692458 l 2.493112813708609 13.642681343546778 a34.86861080798785,34.86861080798785 0 0,0 -0.5913567429812223,0.10281494982040071 l -2.2579070992553367 -13.683574871888185" fill="#ff3f05" stroke="none" /><path d="M 103.41894727170886 120.7198165907248 l 10.256841815126581 62.15944977217439 a84.0,84.0 0 0,0 -1.4286565455659315,0.22312677061157693 l -9.185349405952133 -62.326794850133076" fill="#4dd2ff" stroke="none" /><path d="M 102.70371172650421 120.8252237178851 l 3.5713126635677837 27.507882758446673 a48.73874344654796,48.73874344654796 0 0,0 -0.8329046884714436,0.10085315843145282 l -3.09728055204496 -27.565281445603475" fill="#ecff1a" stroke="none" /><path d="M 101.98527174616119 120.90594882070398 l 2.622484611192358 27.616133242556984 a48.74037203799909,48.74037203799909 0 0,0 -0.8359105688036498,0.07212588120461656 l -2.1467297246471664 -27.657183376040265" fill="#ecff1a" stroke="none" /><line stroke="#e1ed5e" stroke-width="0.3" x1="102.19456741930631" x2="102.32365962044197" y1="184.97166512339345" y2="189.96999836594603" /><path d="M 102.22038585953345 185.97133177190398 a86.0,86.0 0 0,1 -42.740103519485714,-10.115201625700543" fill="none" id="id19" stroke="none" /><text fill="#e1ed5e" style="font-size:6.75px; font-family:Arial;" text-anchor="middle"><textPath startOffset="22.20632615414155" xlink:href="#id19">July</textPath></text><line stroke="#e1ed5e" stroke-width="0.3" x1="58.666819895761336" x2="56.23545636021788" y1="174.27360380694188" y2="178.64263932499728" /><path d="M 58.180547188652646 175.14741091055294 a86.0,86.0 0 0,1 -31.652253787137756,-30.449443065178592" fill="none" id="id20" stroke="none" /><text fill="#e1ed5e" style="font-size:6.75px; font-family:Arial;" text-anchor="middle"><textPath startOffset="22.20632615414155" xlink:href="#id20">August</textPath></text><line stroke="#e1ed5e" stroke-width="0.3" x1="26.63291911575756" x2="22.317208475507996" y1="142.92168965132927" y2="145.44649492493687" /><path d="M 25.769776987707644 143.4266507060508 a86.0,86.0 0 0,1 -11.730757126820373,-40.83630448921669" fill="none" id="id21" stroke="none" /><text fill="#e1ed5e" style="font-size:6.75px; font-family:Arial;" text-anchor="middle"><textPath startOffset="21.46611528233685" xlink:href="#id21">September</textPath></text><line stroke="#e1ed5e" stroke-width="0.3" x1="15.007084014347285" x2="10.007500721073583" y1="101.09737516637583" y2="101.16192664675087" /><path d="M 14.007167355692545 101.11028546245083 a86.0,86.0 0 0,1 10.666146001902534,-42.60595125391555" fill="none" id="id22" stroke="none" /><text fill="#e1ed5e" style="font-size:6.75px; font-family:Arial;" text-anchor="middle"><textPath startOffset="22.20632615414155" xlink:href="#id22">October</textPath></text><line stroke="#e1ed5e" stroke-width="0.3" x1="26.266209847984243" x2="21.928928074336255" y1="57.711370442889674" y2="55.22380399835377" /><path d="M 25.398753493254645 57.213857153982495 a86.0,86.0 0 0,1 29.58750427330803,-30.492523968695096" fill="none" id="id23" stroke="none" /><text fill="#e1ed5e" style="font-size:6.75px; font-family:Arial;" text-anchor="middle"><textPath startOffset="21.46611528233685" xlink:href="#id23">November</textPath></text><line stroke="#e1ed5e" stroke-width="0.3" x1="56.762969772571076" x2="54.21961505331055" y1="26.818313649435495" y2="22.513508569990535" /><path d="M 56.25429882871897 25.957352633546506 a86.0,86.0 0 0,1 42.265352541879196,-11.944610805530505" fill="none" id="id24" stroke="none" /><text fill="#e1ed5e" style="font-size:6.75px; font-family:Arial;" text-anchor="middle"><textPath startOffset="22.20632615414155" xlink:href="#id24">December</textPath></text></svg>