<?xml version="1.0" encoding="utf-8" ?>
<svg baseProfile="full" height="200mm" version="1.1" viewBox="0,0,200,200" width="200mm" xmlns="http://www.w3.org/2000/svg" xmlns:ev="http://www.w3.org/2001/xml-events" xmlns:xlink="http://www.w3.org/1999/xlink"><defs /><rect fill="#1a1a1a" height="200" width="200" x="0" y="0" /><text alignment-baseline="middle" fill="#e1ed5e" style="dominant-baseline: central; font-size:9.0px; font-family:Arial;" text-anchor="middle" x="100.0" y="100.0">2021</text><line stroke="#e1ed5e" stroke-width="0.3" x1="100.0" x2="100.0" y1="15.0" y2="10.0" /><path d="M 100.0 14.0 a86.0,86.0 0 0,1 42.46469731375804,11.215312516191453" fill="none" id="id61" stroke="none" /><text fill="#e1ed5e" style="font-size:6.75px; font-family:Arial;" text-anchor="middle"><textPath startOffset="22.20632615414155" xlink:href="#id61">January</textPath></text><path d="M 101.08401301168833 79.027996857942 l 0.1265027434879648 -2.4474022961924913 a23.450669488837338,23.450669488837338 0 0,0 0.4029472157948329,0.024306876457859262 l -0.1686120081224096 2.4448621503543277" fill="#ff1702" stroke="none" /><line stroke="#e1ed5e" stroke-width="0.3" x1="143.23703022742887" x2="145.7803849466894" y1="26.818313649435467" y2="22.513508569990506" /><path d="M 143.74570117128098 25.957352633546478 a86.0,86.0 0 0,1 28.547481713284135,27.462654790039114" fill="none" id="id62" stroke="none" /><text fill="#e1ed5e" style="font-size:6.75px; font-family:Arial;" text-anchor="middle"><textPath startOffset="19.985693538727396" xlink:href="#id62">February</textPath></text><path d="M 112.77801427241765 83.33499621200491 l 2.3661828845324338 -3.085960454664714 a24.888698158871254,24.888698158871254 0 0,0 0.33773660570198727,0.2636087778396697 l -2.4189520453938513 3.044773287601818" fill="#ff2c04" stroke="none" /><line stroke="#e1ed5e" stroke-width="0.3" x1="172.23445277983987" x2="176.4835382374775" y1="55.19839476539836" y2="52.563006222186495" /><path d="M 173.08426987136738 54.67131705675599 a86.0,86.0 0 0,1 12.851231095245387,41.99856678651699" fill="none" id="id63" stroke="none" /><text fill="#e1ed5e" style="font-size:6.75px; font-family:Arial;" text-anchor="middle"><textPath startOffset="22.20632615414155" xlink:href="#id63">March</textPath></text><path d="M 118.89224826269711 90.83032412892265 l 0.7754282795275571 -0.3763673801902364 a21.861940497692462,21.861940497692462 0 0,0 0.16140546385172833,0.3399610703969854 l -0.7817919372210417 0.36296389415271063" fill="#ff0000" stroke="none" /><path d="M 119.85752413597 93.16781622104841 l 2.300045735640539 -0.7913542019785359 a23.43237576435618,23.43237576435618 0 0,0 0.12794379135704131,0.3825356511644095 l -2.3133268207693503 0.7516454478918123" fill="#ff1702" stroke="none" /><path d="M 120.37134235888165 94.90015583598534 l 1.4125151522485213 -0.353614751000255 a22.456105232274314,22.456105232274314 0 0,0 0.09064481702801212,0.37578128657293697 l -1.4183927695373528 0.32924823276791193" fill="#ff0901" stroke="none" /><line stroke="#e1ed5e" stroke-width="0.3" x1="184.98032266829074" x2="189.97916517819016" y1="98.17113171792111" y2="98.06355123074" /><path d="M 185.9800911702706 98.14961562048488 a86.0,86.0 0 0,1 -9.607161424134198,41.387399972396054" fill="none" id="id64" stroke="none" /><text fill="#e1ed5e" style="font-size:6.75px; font-family:Arial;" text-anchor="middle"><textPath startOffset="21.466115282336823" xlink:href="#id64">April</textPath></text><line stroke="#e1ed5e" stroke-width="0.3" x1="174.80103733775053" x2="179.2010983576182" y1="140.37084112569926" y2="142.7455964860345" /><path d="M 175.68104954172406 140.8457921977663 a86.0,86.0 0 0,1 -30.038265399797805,32.042727171017184" fill="none" id="id65" stroke="none" /><text fill="#e1ed5e" style="font-size:6.75px; font-family:Arial;" text-anchor="middle"><textPath startOffset="22.206326154141568" xlink:href="#id65">May</textPath></text><path d="M 117.94076556474637 110.91462005526583 l 2.4535370882056293 1.4926578808815874 a23.871910826010875,23.871910826010875 0 0,0 -0.21659253004991882,0.3492161230034114 l -2.42747991848775 -1.53467033525027" fill="#ff1d02" stroke="none" /><path d="M 117.35343817320211 111.8261652097733 l 4.018173433659356 2.7383382125024234 a25.862531635785704,25.862531635785704 0 0,0 -0.2538704195186361,0.3657192738672028 l -3.970442106978582 -2.8070987485566437" fill="#ff3905" stroke="none" /><path d="M 116.71984013943494 112.70617746262582 l 2.7083692738040095 2.0582146922631885 a24.4016924967924,24.4016924967924 0 0,0 -0.25702323945864236,0.33223718408164166 l -2.672539217127299 -2.104529870458083" fill="#ff2503" stroke="none" /><path d="M 116.0416608686014 113.55231037782055 l 3.933378120529675 3.3229951411754386 a26.149151400700617,26.149151400700617 0 0,0 -0.293440161711562,0.34133720173449456 l -3.875595449247332 -3.3902094420714635" fill="#ff3d05" stroke="none" /><path d="M 114.0293411484842 115.62618273729858 l 2.5181884236223047 2.804812575159561 a24.76938277687987,24.76938277687987 0 0,0 -0.31971098168843565,0.28210776918160513 l -2.469535089027281 -2.8477434861134547" fill="#ff2a04" stroke="none" /><line stroke="#e1ed5e" stroke-width="0.3" x1="143.8653032363475" x2="146.44561519142675" y1="172.8068346515853" y2="177.08958963109032" /><path d="M 144.38136562736335 173.6633856474863 a86.0,86.0 0 0,1 -40.68145358897372,12.25698825130547" fill="none" id="id66" stroke="none" /><text fill="#e1ed5e" style="font-size:6.75px; font-family:Arial;" text-anchor="middle"><textPath startOffset="21.466115282336833" xlink:href="#id66">June</textPath></text><path d="M 110.8373102113329 117.98757091392108 l 2.110257975969006 3.5025679111515853 a25.089152809246627,25.089152809246627 0 0,0 -0.37183573537695597,0.219687106595455 l -2.049654369563668 -3.5383735900407896" fill="#ff2e04" stroke="none" /><path d="M 107.93186726928326 119.44442032107085 l 3.8768586468127366 9.503849030093082 a31.26416968654396,31.26416968654396 0 0,0 -0.5000464606076613,0.19897880645860588 l -3.7126911101632087 -9.569174680957756" fill="#ff830c" stroke="none" /><path d="M 107.59598834532513 119.57807347666477 l 1.47443840539946 3.800251149080917 a25.076257769990477,25.076257769990477 0 0,0 -0.4037633097107297,0.1526687350795465 l -1.4088048749284556 -3.8250681342670947" fill="#ff2e04" stroke="none" /><path d="M 106.91757812671514 119.82793768551818 l 0.7243245618247991 2.0761402347575966 a23.19886433079488,23.19886433079488 0 0,0 -0.37817492485305004,0.12829746717781862 l -0.6884799040345221 -2.088300688833538" fill="#ff1302" stroke="none" /><line stroke="#e1ed5e" stroke-width="0.3" x1="102.19456741930631" x2="102.32365962044197" y1="184.97166512339345" y2="189.96999836594603" /><path d="M 102.22038585953345 185.97133177190398 a86.0,86.0 0 0,1 -42.740103519485714,-10.115201625700543" fill="none" id="id67" stroke="none" /><text fill="#e1ed5e" style="font-size:6.75px; font-family:Arial;" text-anchor="middle"><textPath startOffset="22.20632615414155" xlink:href="#id67">July</textPath></text><path d="M 98.37488393609728 120.93702456842531 l -0.2142085045714983 2.7597344107279578 a23.76803527816875,23.76803527816875 0 0,0 -0.4076282362643796,-0.03517187943505715 l 0.2616810585774196 -2.7556382790142373" fill="#ff1c02" stroke="none" /><path d="M 97.2962882734958 120.8252237178851 l -0.16389684249152203 1.262408406222381 a22.27300320466196,22.27300320466196 0 0,0 -0.379777411237788,-0.052633688657902536 l 0.1856028449161405 -1.2594001520718736" fill="#ff0601" stroke="none" /><path d="M 96.22490169976321 120.6578951692458 l -0.481826437700936 2.6366253930851915 a23.680289196995208,23.680289196995208 0 0,0 -0.4003461695829204,-0.07672729623247894 l 0.5271402218555515 -2.6279408985042445" fill="#ff1a02" stroke="none" /><path d="M 95.16358092515715 120.4354850818985 l -1.231039978709293 5.201554855118055 a26.345243899017404,26.345243899017404 0 0,0 -0.44040053968519205,-0.10823973776272386 l 1.3203938031376956 -5.179593859041301" fill="#ff4006" stroke="none" /><path d="M 93.08242187328487 119.8279376855182 l -0.9330367070900403 2.6743743760603382 a23.83246108536473,23.83246108536473 0 0,0 -0.38617715854299295,-0.138469389528327 l 0.9789334262627599 -2.6579174454920533" fill="#ff1c02" stroke="none" /><path d="M 91.7346041902142 119.30500536409082 l -0.33952175543410196 0.7930012622167134 a21.86262739597717,21.86262739597717 0 0,0 -0.3446792346890112,-0.15109724729867113 l 0.3531216647808576 -0.7870394616235901" fill="#ff0000" stroke="none" /><line stroke="#e1ed5e" stroke-width="0.3" x1="58.666819895761336" x2="56.23545636021788" y1="174.27360380694188" y2="178.64263932499728" /><path d="M 58.180547188652646 175.14741091055294 a86.0,86.0 0 0,1 -31.652253787137756,-30.449443065178592" fill="none" id="id68" stroke="none" /><text fill="#e1ed5e" style="font-size:6.75px; font-family:Arial;" text-anchor="middle"><textPath startOffset="22.20632615414155" xlink:href="#id68">August</textPath></text><path d="M 88.54995079064634 117.60387380957326 l -3.3351005315886124 5.127549046022021 a27.116751979209553,27.116751979209553 0 0,0 -0.38909349806328836,-0.2578699538963836 l 3.4228687283918626 -5.069381071034319" fill="#ff4b07" stroke="none" /><path d="M 86.51685102203217 116.09983520530335 l -5.238189071525398 6.254768894387055 a29.158477717763283,29.158477717763283 0 0,0 -0.38202399383882457,-0.3255691353829981 l 5.345078541941279 -6.163675368781103" fill="#ff6709" stroke="none" /><path d="M 84.9287848128048 114.62390073753433 l -0.8939687940038088 0.8674357537587494 a22.24564240115357,22.24564240115357 0 0,0 -0.26429247806925205,-0.2771096066282075 l 0.9087678234520183 -0.8519190305480417" fill="#ff0600" stroke="none" /><path d="M 82.6465618267979 111.8261652097733 l -11.312029809348827 7.709016049040069 a34.689081300509315,34.689081300509315 0 0,0 -0.3320189341693845,-0.4963232576626755 l 11.443051848928942 -7.513155877171573" fill="#ffb010" stroke="none" /><path d="M 82.05923443525364 110.91462005526583 l -15.596766474548785 9.48860178491578 a39.256305439335634,39.256305439335634 0 0,0 -0.3462389769903087,-0.5803164410645058 l 15.757786327237326 -9.218723249965162" fill="#ffea16" stroke="none" /><line stroke="#e1ed5e" stroke-width="0.3" x1="26.63291911575756" x2="22.317208475507996" y1="142.92168965132927" y2="145.44649492493687" /><path d="M 25.769776987707644 143.4266507060508 a86.0,86.0 0 0,1 -11.730757126820373,-40.83630448921669" fill="none" id="id69" stroke="none" /><text fill="#e1ed5e" style="font-size:6.75px; font-family:Arial;" text-anchor="middle"><textPath startOffset="21.46611528233685" xlink:href="#id69">September</textPath></text><path d="M 81.69416730710424 110.29060199501025 l -10.916584928779569 6.13674518561479 a33.52323712066587,33.52323712066587 0 0,0 -0.27844016120927356,-0.505449771006826 l 11.02060149944036 -5.947924896210142" fill="#ffa10e" stroke="none" /><path d="M 81.51974371655577 109.97397251340807 l -1.4115874210775035 0.7618473424912708 a22.604054369591395,22.604054369591395 0 0,0 -0.1818522995090843,-0.3439960178427738 l 1.4244922288114739 -0.7374363095623708" fill="#ff0b01" stroke="none" /><path d="M 81.35079622478065 109.6543875284942 l -14.09495612082457 7.296728065590623 a36.87167377787068,36.87167377787068 0 0,0 -0.2869341893326884,-0.5661483770069977 l 14.218468979943523 -7.05302547688094" fill="#ffcc13" stroke="none" /><path d="M 80.87730276802145 108.67885076344099 l -18.76208409707293 8.515186216373403 a41.60398495352665,41.60398495352665 0 0,0 -0.29035404312595786,-0.654671716020273 l 18.905879224930167 -8.190966163860434" fill="#f7ff18" stroke="none" /><path d="M 80.58989483394504 108.01547362559985 l -6.792956657754526 2.805176193753763 a28.34937232912678,28.34937232912678 0 0,0 -0.1823774328147132,-0.45264583158170907 l 6.840236704826626 -2.6878309943292487" fill="#ff5c08" stroke="none" /><path d="M 80.32549172779594 107.34259656027581 l -28.788145873312153 10.743838572308066 a51.727632679575464,51.727632679575464 0 0,0 -0.30414798436004215,-0.8368846265973396 l 28.96881811867742 -10.24670614870461" fill="#84ff25" stroke="none" /><path d="M 79.97269907076064 106.31721596034903 l -13.781864543457973 4.3472165802527725 a35.451231168653024,35.451231168653024 0 0,0 -0.17856148282569992,-0.5835492573726426 l 13.854652798789804 -4.109340350328082" fill="#ffba11" stroke="none" /><path d="M 79.76711848015287 105.62410040840567 l -13.961078570089933 3.8807377787887005 a35.490405120214625,35.490405120214625 0 0,0 -0.15854396074938754,-0.5900010577495335 l 14.025810607181093 -3.6398457878636283" fill="#ffbb11" stroke="none" /><path d="M 79.50377843672027 104.57218783832718 l -2.8315230053304012 0.6316410568135792 a23.901119258901275,23.901119258901275 0 0,0 -0.08611910306126415,-0.40231977897656035 l 2.8419761471161062 -0.5828074584208545" fill="#ff1d03" stroke="none" /><path d="M 79.35854240842038 103.8639653848113 l -30.30021315594207 5.672030391629156 a51.826528284240666,51.826528284240666 0 0,0 -0.15659893337351105,-0.8782899824264764 l 30.393358531654773 -5.149621658469466" fill="#83ff25" stroke="none" /><path d="M 79.1416061653843 102.43462659150553 l -19.64895133072611 2.293458440965581 a40.78234667620805,40.78234667620805 0 0,0 -0.07538461130269633,-0.6979678760761479 l 19.68551824352986 -1.954894243004651" fill="#fffd17" stroke="none" /><line stroke="#e1ed5e" stroke-width="0.3" x1="15.007084014347285" x2="10.007500721073583" y1="101.09737516637583" y2="101.16192664675087" /><path d="M 14.007167355692545 101.11028546245083 a86.0,86.0 0 0,1 10.666146001902526,-42.60595125391555" fill="none" id="id70" stroke="none" /><text fill="#e1ed5e" style="font-size:6.75px; font-family:Arial;" text-anchor="middle"><textPath startOffset="22.20632615414155" xlink:href="#id70">October</textPath></text><path d="M 79.03285615573316 98.82574320788736 l -21.855436018554915 -1.2240052522169753 a42.88968415529567,42.88968415529567 0 0,0 0.04762676602423235,-0.7367649902892441 l 21.83112866152627 1.6000293067592315" fill="#e8ff1a" stroke="none" /><path d="M 79.12142395522702 97.74499172005258 l -21.74235437486536 -2.3483013896988 a42.86880182312438,42.86880182312438 0 0,0 0.0855531595983927,-0.7329672250049234 l 21.69871086226338 2.7222123530285853" fill="#e8ff1a" stroke="none" /><path d="M 79.21141760316559 97.0276538004421 l -23.9387534068708 -3.42275684569532 a45.182207903740355,45.182207903740355 0 0,0 0.11670802381800445,-0.768960057565803 l 23.87628948961349 3.8343160156532146" fill="#cdff1d" stroke="none" /><path d="M 79.32604984820605 96.31383870115002 l -17.62060928394956 -3.141751214826038 a38.89850474853892,38.89850474853892 0 0,0 0.12320504211132745,-0.6581662614801008 l 17.563918517928368 3.444595553768711" fill="#ffe615" stroke="none" /><path d="M 79.46518482838121 95.60439243477599 l -9.642118463505971 -2.063956675955404 a30.860545909051062,30.860545909051062 0 0,0 0.11566181824874405,-0.5184892522056626 l 9.60516225825519 2.229624097711026" fill="#ff7e0b" stroke="none" /><path d="M 79.91906864156998 93.8553929516997 l -9.715797151229205 -2.972957508279959 a31.16047196885419,31.16047196885419 0 0,0 0.16135859284797588,-0.5115508345398504 l 9.663183074613025 3.139758509246224" fill="#ff820c" stroke="none" /><path d="M 81.10775173730289 90.83032412892265 l -10.728772651934921 -5.207393336396755 a32.92574978677886,32.92574978677886 0 0,0 0.2518662866308251,-0.5077470647586028 l 10.637546352350682 5.39129998965432" fill="#ff990e" stroke="none" /><path d="M 81.26839172434947 90.50648371742162 l -12.961109531071974 -6.568923637670955 a35.530695717480185,35.530695717480185 0 0,0 0.28118411721445435,-0.5431582153513819 l 12.846115980697405 6.791054575282672" fill="#ffbb11" stroke="none" /><path d="M 81.43458229118936 90.18545643968196 l -7.600469243482368 -4.017961655320818 a29.597159332288186,29.597159332288186 0 0,0 0.24198059730924928,-0.44835329633045934 l 7.530180546954644 4.14819593498375" fill="#ff6d0a" stroke="none" /><path d="M 81.6062741919709 89.86733742301443 l -27.0449397214301 -14.898408917922673 a51.87703601094874,51.87703601094874 0 0,0 0.43760097722557595,-0.77844330965509 l 26.784481102912096 15.36173573751255" fill="#83ff25" stroke="none" /><line stroke="#e1ed5e" stroke-width="0.3" x1="26.266209847984243" x2="21.928928074336255" y1="57.71137044288968" y2="55.22380399835378" /><path d="M 25.398753493254645 57.2138571539825 a86.0,86.0 0 0,1 29.58750427330803,-30.4925239686951" fill="none" id="id71" stroke="none" /><text fill="#e1ed5e" style="font-size:6.75px; font-family:Arial;" text-anchor="middle"><textPath startOffset="21.46611528233685" xlink:href="#id71">November</textPath></text><path d="M 82.15384107792192 88.93136811851018 l -34.65286049047096 -21.492566444375388 a61.77684578946653,61.77684578946653 0 0,0 0.5682657998806537,-0.8988600260841741 l 34.27776709434434 22.085874118173777" fill="#31ff44" stroke="none" /><path d="M 82.7489923806493 88.02491185347247 l -19.840126007714186 -13.772369882561843 a45.15178610753402,45.15178610753402 0 0,0 0.44869561685509146,-0.6346481296014979 l 19.600117771055217 14.111844512495129" fill="#cdff1d" stroke="none" /><path d="M 83.17141714833178 87.43820079747577 l -5.729238768872218 -4.276625526477745 a28.149384782236126,28.149384782236126 0 0,0 0.29318798665544643,-0.3858010233290719 l 5.654774841992663 4.374611325687844" fill="#ff5908" stroke="none" /><path d="M 83.39014120810768 87.1503855733568 l -17.481255611736184 -13.523738950390646 a43.10171515880998,43.10171515880998 0 0,0 0.45902489117470635,-0.5829149970843504 l 17.245876639967506 13.82264634142804" fill="#e5ff1a" stroke="none" /><path d="M 84.07557802195018 86.31012108654704 l -15.388658730750643 -13.229294912858537 a41.2934733700984,41.2934733700984 0 0,0 0.46800869729595546,-0.5350148444929429 l 15.158658169876846 13.492225313554423" fill="#fbff18" stroke="none" /><path d="M 85.05521093208273 85.24692304244772 l -14.430379145440218 -14.245265897821476 a41.277165550953896,41.277165550953896 0 0,0 0.5035110516534024,-0.5013488151823128 l 14.183032293619503 14.4915505636539" fill="#fbff18" stroke="none" /><path d="M 85.31137513191541 84.99185889309783 l -6.918431863745547 -7.068925960195842 a30.89112802889642,30.89112802889642 0 0,0 0.38322173691625333,-0.36865900728725093 l 6.795726883216866 7.186968054245405" fill="#ff7e0b" stroke="none" /><path d="M 85.83668400450813 84.49514656593477 l -6.665006747344801 -7.296310608866568 a30.882229679743865,30.882229679743865 0 0,0 0.39557049820898493,-0.35514709900346997 l 6.538425261539845 7.409956716639319" fill="#ff7e0b" stroke="none" /><path d="M 86.10567301691215 84.25364557470407 l -28.793639424209893 -32.6316526248198 a64.51894328126917,64.51894328126917 0 0,0 0.8390725483272238,-0.7276354455511805 l 28.227673077235895 33.12245306379066" fill="#35ff64" stroke="none" /><path d="M 86.65592168130627 83.78471172551755 l -6.353890233318817 -7.721039950233816 a30.999318927315542,30.999318927315542 0 0,0 0.41494300939445494,-0.33552172291158416 l 6.220043825359862 7.829267770409537" fill="#ff800b" stroke="none" /><path d="M 86.93701828274178 83.55741782278169 l -10.15107668940744 -12.777321155729178 a37.31883249104774,37.31883249104774 0 0,0 0.5064120161622515,-0.39526261118893363 l 9.929632118085763 12.950162156141333" fill="#ffd213" stroke="none" /><path d="M 87.80319425747018 82.90503203632743 l -10.203928625552651 -14.301763645310222 a38.56873936176668,38.56873936176668 0 0,0 0.543762033834909,-0.3809400542436835 l 9.95623545213408 14.475288542317848" fill="#ffe215" stroke="none" /><path d="M 88.09926311788651 82.69761687909137 l -17.645631834854164 -25.6548384727356 a52.137422178359174,52.137422178359174 0 0,0 0.7438155681133763,-0.502227591911306 l 17.20141157233425 25.954777976945575" fill="#80ff26" stroke="none" /><path d="M 88.70189139769569 82.29822771554957 l -12.103617629764603 -18.963836394390295 a43.49721428356743,43.49721428356743 0 0,0 0.634605399125981,-0.39738984271387984 l 11.77539307826638 19.169370578427102" fill="#e1ff1b" stroke="none" /><path d="M 89.00827224532344 82.1063720568725 l -11.837202327927185 -19.269990948723645 a43.61530256521402,43.61530256521402 0 0,0 0.6430929603611922,-0.3874563130013742 l 11.503747301348346 19.47089387118364" fill="#dfff1b" stroke="none" /><line stroke="#e1ed5e" stroke-width="0.3" x1="56.76296977257108" x2="54.21961505331056" y1="26.818313649435495" y2="22.513508569990535" /><path d="M 56.25429882871898 25.957352633546506 a86.0,86.0 0 0,1 42.26535254187918,-11.944610805530505" fill="none" id="id72" stroke="none" /><text fill="#e1ed5e" style="font-size:6.75px; font-family:Arial;" text-anchor="middle"><textPath startOffset="22.20632615414155" xlink:href="#id72">December</textPath></text><path d="M 89.3179101791058 81.91981866633112 l -7.2670588676479815 -12.30000349112616 a35.28636519439346,35.28636519439346 0 0,0 0.5256043015346757,-0.30446393685907785 l 7.054257833647983 12.423271585375286" fill="#ffb811" stroke="none" /><path d="M 89.63071344664047 81.73862282372117 l -7.268414364551053 -12.80042320187848 a35.720077497146576,35.720077497146576 0 0,0 0.5372910484680143,-0.29900188675977657 l 7.046999227010994 12.92364048619844" fill="#ffbe11" stroke="none" /><path d="M 89.94658935756843 81.56283822128135 l -11.647514196679303 -21.360621902554513 a45.32983261400985,45.32983261400985 0 0,0 0.6882686509057082,-0.3676492770609852 l 11.27810049924529 21.557949906117248" fill="#cbff1d" stroke="none" /><path d="M 90.58718382345135 81.22770947309562 l -20.689274179857833 -41.26130356850126 a67.1577863232342,67.1577863232342 0 0,0 1.0378395859935152,-0.5092633775591789 l 19.975963326853893 41.61132210619527" fill="#38ff82" stroke="none" /><path d="M 91.23893434514133 80.91482961587045 l -6.008314587267193 -13.088557047378407 a35.40174190027188,35.40174190027188 0 0,0 0.5560060721968428,-0.24946371740673248 l 5.782126396603575 13.190041095301668" fill="#ffba11" stroke="none" /><path d="M 91.90106846888425 80.62456947434976 l -5.586616187267662 -13.365107902692122 a35.485730553701615,35.485730553701615 0 0,0 0.5656022102744943,-0.23072334299670405 l 5.355730107404787 13.459292131872404" fill="#ffbb11" stroke="none" /><path d="M 92.23578459929587 80.48803036053334 l -5.3783597021358 -13.516161750057508 a35.54693718757581,35.54693718757581 0 0,0 0.5704722030910506,-0.22133435198189605 l 5.144904334045071 13.606738805929956" fill="#ffbb11" stroke="none" /><path d="M 92.57280143429618 80.3572730644239 l -13.1055783509229 -34.6603493366522 a58.05531001153473,58.05531001153473 0 0,0 0.9377803446983496,-0.3453924152062879 l 12.507015680451982 34.88080501966481" fill="#43ff2d" stroke="none" /><path d="M 93.59665428221793 80.00007090966166 l -8.22570010171849 -25.69179082364791 a47.97647600946963,47.97647600946963 0 0,0 0.7886752992505582,-0.24504525455177925 l 7.782239429757203 25.829576213082216" fill="#adff20" stroke="none" /><path d="M 93.94186890950719 79.89281104454417 l -6.465481093669076 -21.45920055152785 a43.41204439767344,43.41204439767344 0 0,0 0.7173525749818014,-0.209414887739998 l 6.095138300963853 21.567313768186548" fill="#e2ff1b" stroke="none" /><path d="M 94.28887869178378 79.79150937346287 l -4.085794088798239 -14.457359087549941 a36.023612918416845,36.023612918416845 0 0,0 0.5981671363066464,-0.1635016742470877 l 3.8363290632678715 14.525547302623325" fill="#ffc212" stroke="none" /><path d="M 94.98787191387505 79.60689891045804 l -15.03638425837485 -61.17930326862588 a84.0,84.0 0 0,0 1.4071052521498664,-0.3330163514365161 l 13.98105531926245 61.42906553220327" fill="#4dd2ff" stroke="none" /><path d="M 96.04723909329186 79.375362276772 l -5.23404837870815 -27.310114166911646 a48.807150127986965,48.807150127986965 0 0,0 0.8264790814559863,-0.15103376941474225 l 4.7631741761492705 27.396163417677123" fill="#a4ff21" stroke="none" /><path d="M 97.11714578562143 79.19881850522333 l -2.0485156757472267 -14.781027134005992 a35.92230476870123,35.92230476870123 0 0,0 0.6132198656014932,-0.07961353808306114 l 1.7937810816378765 14.81409899525319" fill="#ffc011" stroke="none" /><path d="M 97.47563105711357 79.15227682838746 l -5.2226999342066405 -43.13212723661596 a64.44717475922215,64.44717475922215 0 0,0 1.1024557637257462,-0.1238737505080816 l 4.479477466971176 43.21563694059464" fill="#35ff63" stroke="none" /><path d="M 97.83486435360386 79.11191278185805 l -1.5381984054316453 -14.839727249857672 a35.91923453749021,35.91923453749021 0 0,0 0.6155442840092987,-0.05845334675001185 l 1.2825289943321099 14.864006141122864" fill="#ffc011" stroke="none" /><path d="M 98.55514903715128 79.0497635885617 l -1.0253012911576094 -14.866795949911394 a35.90210939947601,35.90210939947601 0 0,0 0.6168973141925068,-0.03721293066557921 l 0.7692419281254798 14.882242149957278" fill="#ffc011" stroke="none" /><path d="M 99.27714615592234 79.0124445844662 l -0.5144893149734554 -14.937837153627031 a35.94669455376345,35.94669455376345 0 0,0 0.6185799030721625,-0.015976093907875376 l 0.2572827767064138 14.944480039677266" fill="#ffc111" stroke="none" /></svg>