<?xml version="1.0" encoding="utf-8" ?>
<svg baseProfile="full" height="200mm" version="1.1" viewBox="0,0,200,200" width="200mm" xmlns="http://www.w3.org/2000/svg" xmlns:ev="http://www.w3.org/2001/xml-events" xmlns:xlink="http://www.w3.org/1999/xlink"><defs /><rect fill="#1a1a1a" height="200" width="200" x="0" y="0" /><text alignment-baseline="middle" fill="#e1ed5e" style="dominant-baseline: central; font-size:9.0px; font-family:Arial;" text-anchor="middle" x="100.0" y="100.0">2018</text><line stroke="#e1ed5e" stroke-width="0.3" x1="100.0" x2="100.0" y1="15.0" y2="10.0" /><path d="M 100.0 14.0 a86.0,86.0 0 0,1 42.46469731375804,11.215312516191453" fill="none" id="id25" stroke="none" /><text fill="#e1ed5e" style="font-size:6.75px; font-family:Arial;" text-anchor="middle"><textPath startOffset="22.20632615414155" xlink:href="#id25">January</textPath></text><line stroke="#e1ed5e" stroke-width="0.3" x1="143.23703022742887" x2="145.7803849466894" y1="26.818313649435467" y2="22.513508569990506" /><path d="M 143.74570117128098 25.957352633546478 a86.0,86.0 0 0,1 28.547481713284135,27.462654790039114" fill="none" id="id26" stroke="none" /><text fill="#e1ed5e" style="font-size:6.75px; font-family:Arial;" text-anchor="middle"><textPath startOffset="19.985693538727396" xlink:href="#id26">February</textPath></text><line stroke="#e1ed5e" stroke-width="0.3" x1="172.23445277983987" x2="176.4835382374775" y1="55.19839476539836" y2="52.563006222186495" /><path d="M 173.08426987136738 54.67131705675599 a86.0,86.0 0 0,1 12.851231095245387,41.99856678651699" fill="none" id="id27" stroke="none" /><text fill="#e1ed5e" style="font-size:6.75px; font-family:Arial;" text-anchor="middle"><textPath startOffset="22.20632615414155" xlink:href="#id27">March</textPath></text><line stroke="#e1ed5e" stroke-width="0.3" x1="184.98032266829074" x2="189.97916517819016" y1="98.17113171792111" y2="98.06355123074" /><path d="M 185.9800911702706 98.14961562048488 a86.0,86.0 0 0,1 -9.607161424134198,41.387399972396054" fill="none" id="id28" stroke="none" /><text fill="#e1ed5e" style="font-size:6.75px; font-family:Arial;" text-anchor="middle"><textPath startOffset="21.466115282336823" xlink:href="#id28">April</textPath></text><line stroke="#e1ed5e" stroke-width="0.3" x1="174.80103733775053" x2="179.2010983576182" y1="140.37084112569926" y2="142.7455964860345" /><path d="M 175.68104954172406 140.8457921977663 a86.0,86.0 0 0,1 -30.038265399797805,32.042727171017184" fill="none" id="id29" stroke="none" /><text fill="#e1ed5e" style="font-size:6.75px; font-family:Arial;" text-anchor="middle"><textPath startOffset="22.206326154141568" xlink:href="#id29">May</textPath></text><line stroke="#e1ed5e" stroke-width="0.3" x1="143.8653032363475" x2="146.44561519142675" y1="172.8068346515853" y2="177.08958963109032" /><path d="M 144.38136562736335 173.6633856474863 a86.0,86.0 0 0,1 -40.68145358897372,12.25698825130547" fill="none" id="id30" stroke="none" /><text fill="#e1ed5e" style="font-size:6.75px; font-family:Arial;" text-anchor="middle"><textPath startOffset="21.466115282336833" xlink:href="#id30">June</textPath></text><path d="M 100.90346689309514 120.98055641714683 l 1.6332353664654342 37.927440408155626 a58.962589396357956,58.962589396357956 0 0,0 -1.014380169593718,0.03493730405611177 l -0.980134845197064 -37.94993451063783" fill="#63ff29" stroke="none" /><line stroke="#e1ed5e" stroke-width="0.3" x1="102.19456741930631" x2="102.32365962044197" y1="184.97166512339345" y2="189.96999836594603" /><path d="M 102.22038585953345 185.97133177190398 a86.0,86.0 0 0,1 -42.740103519485714,-10.115201625700543" fill="none" id="id31" stroke="none" /><text fill="#e1ed5e" style="font-size:6.75px; font-family:Arial;" text-anchor="middle"><textPath startOffset="22.20632615414155" xlink:href="#id31">July</textPath></text><path d="M 100.18074693466247 120.99922214144158 l 0.1169431058706282 13.586478037225834 a34.58698131102088,34.58698131102088 0 0,0 -0.5953800810661579,0.0 l 0.11694310587061882 -13.586478037225834" fill="#ff4306" stroke="none" /><path d="M 92.06813273071674 119.44442032107085 l -9.201466252691937 22.556753827734955 a45.36132435735923,45.36132435735923 0 0,0 -0.7204426813415377,-0.3011450992303943 l 9.588380393530935 -22.395023685484585" fill="#ffe815" stroke="none" /><path d="M 91.40352486487194 119.15986991738527 l -17.52573473560791 39.06145163715944 a63.81294643008163,63.81294643008163 0 0,0 -0.9983140565076674,-0.45827701913025626 l 18.195516787882994 -38.75398754769511" fill="#30ff35" stroke="none" /><path d="M 90.42595943632237 118.69057910512821 l -16.012492834977312 31.25981783886239 a56.12230257413456,56.12230257413456 0 0,0 -0.8560230516979035,-0.44783080250038787 l 16.54820678920171 -30.979557617417285" fill="#86ff25" stroke="none" /><path d="M 90.10565033884886 118.52300852407294 l -15.151507322844298 28.36482526947067 a53.15791483790276,53.15791483790276 0 0,0 -0.8033861684847518,-0.4380701950313012 l 15.63751630319769 -28.099814422679607" fill="#acff21" stroke="none" /><line stroke="#e1ed5e" stroke-width="0.3" x1="58.666819895761336" x2="56.23545636021788" y1="174.27360380694188" y2="178.64263932499728" /><path d="M 58.180547188652646 175.14741091055294 a86.0,86.0 0 0,1 -31.652253787137756,-30.449443065178592" fill="none" id="id32" stroke="none" /><text fill="#e1ed5e" style="font-size:6.75px; font-family:Arial;" text-anchor="middle"><textPath startOffset="22.20632615414155" xlink:href="#id32">August</textPath></text><line stroke="#e1ed5e" stroke-width="0.3" x1="26.63291911575756" x2="22.317208475507996" y1="142.92168965132927" y2="145.44649492493687" /><path d="M 25.769776987707644 143.4266507060508 a86.0,86.0 0 0,1 -11.730757126820373,-40.83630448921669" fill="none" id="id33" stroke="none" /><text fill="#e1ed5e" style="font-size:6.75px; font-family:Arial;" text-anchor="middle"><textPath startOffset="21.46611528233685" xlink:href="#id33">September</textPath></text><path d="M 79.1416061653843 102.43462659150553 l -14.970891784110746 1.7474275116840157 a36.07252811309851,36.07252811309851 0 0,0 -0.06667869144709941,-0.6173618706077241 l 14.998752777058897 -1.4894693191915096" fill="#ff5b08" stroke="none" /><path d="M 79.10278846688536 102.07522291339032 l -35.349927749528575 3.510467410269831 a56.52380572708191,56.52380572708191 0 0,0 -0.08781485627629564,-0.9690296215149832 l 35.40511720208195 -2.901456400206282" fill="#81ff25" stroke="none" /><line stroke="#e1ed5e" stroke-width="0.3" x1="15.007084014347285" x2="10.007500721073583" y1="101.09737516637583" y2="101.16192664675087" /><path d="M 14.007167355692545 101.11028546245083 a86.0,86.0 0 0,1 10.666146001902526,-42.60595125391555" fill="none" id="id34" stroke="none" /><text fill="#e1ed5e" style="font-size:6.75px; font-family:Arial;" text-anchor="middle"><textPath startOffset="22.20632615414155" xlink:href="#id34">October</textPath></text><path d="M 79.16333360222342 97.38593545837743 l -13.130348572874551 -1.6472682322714707 a34.233274208382426,34.233274208382426 0 0,0 0.07838441853758535,-0.5840549638063985 l 13.100048155279131 1.8730415381425292" fill="#ff3d05" stroke="none" /><path d="M 79.21141760316559 97.0276538004421 l -9.486484995701376 -1.356375200861689 a30.58296150775844,30.58296150775844 0 0,0 0.0789974010937413,-0.5204941708833984 l 9.461731701168333 1.5194684841371788" fill="#ff0000" stroke="none" /><path d="M 79.54389044137918 95.25157060432595 l -61.3683286758625 -14.245288187022146 a84.0,84.0 0 0,0 0.3390687989567409,-1.4056590733624128 l 61.114027076644945 15.299532492043955" fill="#4dd2ff" stroke="none" /><path d="M 79.62865764111835 94.90015583598534 l -10.2142745357711 -2.557082761813416 a31.52948605312079,31.52948605312079 0 0,0 0.1363329994222549,-0.5253466605044862 l 10.168745204478538 2.7325258478667664" fill="#ff1001" stroke="none" /><line stroke="#e1ed5e" stroke-width="0.3" x1="26.266209847984243" x2="21.928928074336255" y1="57.71137044288968" y2="55.22380399835378" /><path d="M 25.398753493254645 57.2138571539825 a86.0,86.0 0 0,1 29.58750427330803,-30.4925239686951" fill="none" id="id35" stroke="none" /><text fill="#e1ed5e" style="font-size:6.75px; font-family:Arial;" text-anchor="middle"><textPath startOffset="21.46611528233685" xlink:href="#id35">November</textPath></text><line stroke="#e1ed5e" stroke-width="0.3" x1="56.76296977257108" x2="54.21961505331056" y1="26.818313649435495" y2="22.513508569990535" /><path d="M 56.25429882871898 25.957352633546506 a86.0,86.0 0 0,1 42.26535254187918,-11.944610805530505" fill="none" id="id36" stroke="none" /><text fill="#e1ed5e" style="font-size:6.75px; font-family:Arial;" text-anchor="middle"><textPath startOffset="22.20632615414155" xlink:href="#id36">December</textPath></text></svg>