<?xml version="1.0" encoding="utf-8" ?>
<svg baseProfile="full" height="200mm" version="1.1" viewBox="0,0,200,200" width="200mm" xmlns="http://www.w3.org/2000/svg" xmlns:ev="http://www.w3.org/2001/xml-events" xmlns:xlink="http://www.w3.org/1999/xlink"><defs /><rect fill="#1a1a1a" height="200" width="200" x="0" y="0" /><text alignment-baseline="middle" fill="#e1ed5e" style="dominant-baseline: central; font-size:9.0px; font-family:Arial;" text-anchor="middle" x="100.0" y="100.0">2022</text><line stroke="#e1ed5e" stroke-width="0.3" x1="100.0" x2="100.0" y1="15.0" y2="10.0" /><path d="M 100.0 14.0 a86.0,86.0 0 0,1 42.46469731375804,11.215312516191453" fill="none" id="id73" stroke="none" /><text fill="#e1ed5e" style="font-size:6.75px; font-family:Arial;" text-anchor="middle"><textPath startOffset="22.20632615414155" xlink:href="#id73">January</textPath></text><path d="M 100.0 79.0 l 0.0 -52.62645805886439 a73.62645805886439,73.62645805886439 0 0,0 1.2673584450598576,0.010908554255971014 l -0.9058779657873292 52.618660881216975" fill="#3fffc0" stroke="none" /><path d="M 101.44485096284872 79.0497635885617 l 0.829049400661879 -12.021157466914595 a33.0497116045611,33.0497116045611 0 0,0 0.5672114429061477,0.04402652461354563 l -1.0358510329303678 12.005105680112585" fill="#ff6c09" stroke="none" /><path d="M 102.52436894288641 79.15227682838746 l 5.442291180000829 -44.94564087380764 a66.27393474003782,66.27393474003782 0 0,0 1.1313442613397975,0.14688095491961592 l -6.215150169848473 44.84530159572389" fill="#36ff6a" stroke="none" /><path d="M 103.59715602781102 79.31037775812273 l 3.681549879790501 -21.17502707377574 a42.49268668855807,42.49268668855807 0 0,0 0.7195527001855746,0.13149365669380125 l -4.045497701078976 21.108517935731204" fill="#ffee16" stroke="none" /><path d="M 103.95276090670814 79.375362276772 l 1.8774545314515387 -9.79614514181897 a30.97443207191524,30.97443207191524 0 0,0 0.522779960665026,0.1048647420508768 l -2.04580090158369 9.762376443690885" fill="#ff4d07" stroke="none" /><path d="M 105.36241919743992 79.69619591428918 l 7.3678549071320205 -27.897013839904588 a49.85357286570205,49.85357286570205 0 0,0 0.827811718476659,0.22627221342849943 l -7.84696451483239 27.766055085649793" fill="#b3ff20" stroke="none" /><path d="M 106.0581310904928 79.89281104454417 l 3.3851602331104775 -11.235487551344905 a32.734372174098574,32.734372174098574 0 0,0 0.5381135280776226,0.16719449257615165 l -3.5780591338988184 11.175552923886233" fill="#ff6709" stroke="none" /><path d="M 107.08798089147638 80.2323363322302 l 7.737364136920722 -21.578728029253238 a43.92396796254493,43.92396796254493 0 0,0 0.7095136311949692,0.2613198582009547 l -8.107660093888267 21.44234490324596" fill="#fdff18" stroke="none" /><path d="M 107.76421540070413 80.48803036053334 l 14.579694494788537 -36.63970429120421 a60.43393744109578,60.43393744109578 0 0,0 0.9632482707533833,0.3929331553640107 l -15.208226635130309 36.383310249656624" fill="#3cff2e" stroke="none" /><path d="M 108.09893153111575 80.62456947434976 l 5.847829000975471 -13.99001881902236 a36.16303830309907,36.16303830309907 0 0,0 0.5722649997986085,0.24501400762212436 l -6.087777758564395 13.887285283437445" fill="#ff980e" stroke="none" /><path d="M 108.43124777332544 80.76684994638697 l 4.045851546484102 -9.22929464062941 a31.07714216927292,31.07714216927292 0 0,0 0.488085580684585,0.21898977269998932 l -4.204119245635467 9.15828453741289" fill="#ff4f07" stroke="none" /><path d="M 108.76106565485865 80.91482961587045 l 4.209319177843906 -9.169612108292231 a31.08960624392766,31.08960624392766 0 0,0 0.48443793167281884,0.22745010452387138 l -4.366535320816323 9.095797021128357" fill="#ff4f07" stroke="none" /><path d="M 109.08828744355905 81.06846463323043 l 4.3500486248363215 -9.061454085788236 a31.051510990258564,31.051510990258564 0 0,0 0.4798622628133459,0.23546632834358236 l -4.505382154660099 8.985232597309823" fill="#ff4e07" stroke="none" /><path d="M 109.41281617654863 81.2277094730956 l 9.312888712559184 -18.57300188146159 a41.77706175235777,41.77706175235777 0 0,0 0.6400634037227637,0.3278653355842764 l -9.631212603870704 18.40994402056481" fill="#ffe515" stroke="none" /><path d="M 109.73455568895987 81.39251694778311 l 9.248062434251423 -17.677557200308552 a40.9505059424064,40.9505059424064 0 0,0 0.6217748412813386,0.3321305867861021 l -9.550982322061072 17.515747887020698" fill="#ffda14" stroke="none" /><line stroke="#e1ed5e" stroke-width="0.3" x1="143.23703022742887" x2="145.7803849466894" y1="26.81831364943548" y2="22.513508569990506" /><path d="M 143.74570117128098 25.957352633546492 a86.0,86.0 0 0,1 28.547481713284135,27.462654790039103" fill="none" id="id74" stroke="none" /><text fill="#e1ed5e" style="font-size:6.75px; font-family:Arial;" text-anchor="middle"><textPath startOffset="19.985693538727396" xlink:href="#id74">February</textPath></text><path d="M 110.68208982089419 81.91981866633111 l 5.144092873414046 -8.706735620836994 a31.11281052237512,31.11281052237512 0 0,0 0.458747922110018,0.276390490105751 l -5.293202861741701 8.61689852127263" fill="#ff4f07" stroke="none" /><path d="M 110.99172775467656 82.1063720568725 l 5.217613010889633 -8.493844466658883 a30.96839402086397,30.96839402086397 0 0,0 0.45181537189438276,0.2829267444306406 l -5.36304753515628 8.402773380905298" fill="#ff4d07" stroke="none" /><path d="M 111.2981086023043 82.29822771554956 l 5.389407690843635 -8.444074229550449 a31.01739012179732,31.01739012179732 0 0,0 0.44758533242940624,0.29112195060808954 l -5.533960049057321 8.35005335478283" fill="#ff4e07" stroke="none" /><path d="M 111.90073688211348 82.69761687909136 l 16.759517595124052 -24.366524293825726 a50.57378799178205,50.57378799178205 0 0,0 0.7130154179840452,0.49951286611137424 l -17.176464152691747 24.074426584950416" fill="#aaff21" stroke="none" /><path d="M 112.19680574252982 82.90503203632743 l 5.776901641283022 -8.096869833932205 a30.946451310929934,30.946451310929934 0 0,0 0.43097307752909025,0.31312026925023373 l -5.915420035165901 7.996230329865296" fill="#ff4d07" stroke="none" /><path d="M 113.34407831869373 83.78471172551755 l 4.133737171241938 -5.023182439564195 a27.505393517847587,27.505393517847587 0 0,0 0.36299583364023846,0.3039985714723794 l -4.219590541841294 4.951282710697996" fill="#ff1902" stroke="none" /><path d="M 113.89432698308785 84.25364557470407 l 19.463577946807405 -22.057951933033586 a50.417411680354675,50.417411680354675 0 0,0 0.6457966559935715,0.5798026140996216 l -19.840385590396966 21.719650310164667" fill="#acff20" stroke="none" /><path d="M 114.42810811169701 84.74124197986012 l 6.959488289757519 -7.36015747423706 a31.129481492200856,31.129481492200856 0 0,0 0.3861786450654965,0.3715035505840681 l -7.085150178435433 7.23927083689069" fill="#ff4f07" stroke="none" /><path d="M 115.19652480421416 85.50635884689758 l 18.306675605700313 -17.459938397343002 a46.29790150529003,46.29790150529003 0 0,0 0.5450644845857423,0.5814367886339297 l -18.60450741225652 17.142232191831017" fill="#dfff1b" stroke="none" /><path d="M 115.68641384162765 86.03803664274999 l 21.962126405173276 -19.547769631233013 a50.40153556861554,50.40153556861554 0 0,0 0.5712369311190945,0.6530225605573383 l -22.29535519987022 19.166831514472726" fill="#acff20" stroke="none" /><path d="M 116.15771136456269 86.58626213691792 l 11.36938682016023 -9.4385876210221 a35.77666717992067,35.77666717992067 0 0,0 0.3892867809091584,0.47721956360752776 l -11.530172093145797 9.24148388780647" fill="#ff930d" stroke="none" /><path d="M 116.38621287248628 86.86637796730983 l 5.95442852155636 -4.77250077436139 a28.63098831473381,28.63098831473381 0 0,0 0.3049144621501007,0.38721040238219434 l -6.035697064300425 4.669297978026157" fill="#ff2a04" stroke="none" /><path d="M 116.60985879189232 87.15038557335679 l 7.9417524454542185 -6.143848546487937 a31.040831980820116,31.040831980820116 0 0,0 0.32330365665076893,0.4254297149237582 l -8.046332042329102 6.006234055683145" fill="#ff4e07" stroke="none" /><path d="M 117.04232023915458 87.72973835380427 l 11.916155398878189 -8.579485804112348 a35.68340342540445,35.68340342540445 0 0,0 0.35460361796803835,0.5015616699594815 l -12.06207163665011 8.373097633821075" fill="#ff910d" stroke="none" /><path d="M 117.2510076193507 88.02491185347247 l 25.461152994054473 -17.674303909878024 a51.99437578796157,51.99437578796157 0 0,0 0.5040372777740452,0.7396125102000571 l -25.76161473749725 17.23341337640756" fill="#99ff23" stroke="none" /><line stroke="#e1ed5e" stroke-width="0.3" x1="172.23445277983987" x2="176.4835382374775" y1="55.19839476539836" y2="52.563006222186495" /><path d="M 173.08426987136738 54.67131705675599 a86.0,86.0 0 0,1 12.851231095245387,41.99856678651699" fill="none" id="id75" stroke="none" /><text fill="#e1ed5e" style="font-size:6.75px; font-family:Arial;" text-anchor="middle"><textPath startOffset="22.20632615414155" xlink:href="#id75">March</textPath></text><path d="M 117.84615892207809 88.93136811851018 l 37.38229097436857 -23.185427154867217 a64.9886316091557,64.9886316091557 0 0,0 0.5814446271598521,0.95574208648001 l -37.775851399814655 22.538517295180124" fill="#34ff5a" stroke="none" /><path d="M 118.3937258080291 89.86733742301442 l 13.677679139246482 -7.5347055295215055 a36.61571945357563,36.61571945357563 0 0,0 0.29936297483180163,0.5546741270069543 l -13.805350213296748 7.298150419182092" fill="#ff9f0e" stroke="none" /><path d="M 118.56541770881063 90.18545643968196 l 18.325021137335455 -9.687458748141989 a41.72807894332574,41.72807894332574 0 0,0 0.33022919489193897,0.6378976946895852 l -18.48905976538751 9.370588331192058" fill="#ffe415" stroke="none" /><path d="M 118.73160827565052 90.50648371742162 l 10.673953509469241 -5.409751792287673 a32.96656583888922,32.96656583888922 0 0,0 0.2521785099680849,0.5083764879543975 l -10.765492032390734 5.2252157158343255" fill="#ff6a09" stroke="none" /><path d="M 118.89224826269711 90.83032412892265 l 8.789006190194891 -4.265894501932291 a30.769569371927314,30.769569371927314 0 0,0 0.22716998143499956,0.47847791647035237 l -8.861134365471647 4.1139741698213985" fill="#ff4a06" stroke="none" /><path d="M 119.04729006885535 91.15688171328212 l 9.038567004364506 -4.1963511278024 a30.965192234984492,30.965192234984492 0 0,0 0.2202918083186306,0.4853837988443596 l -9.109461129646483 4.040145320115978" fill="#ff4d07" stroke="none" /><path d="M 119.196687751892 91.48605970444005 l 13.437620299479718 -5.959731096469953 a35.699933130977854,35.699933130977854 0 0,0 0.24430533566269483,0.5638903979879254 l -13.538216344985095 5.727541553895424" fill="#ff920d" stroke="none" /><path d="M 119.34039704204932 91.81776055985345 l 10.8053360332747 -4.571356340993127 a32.73254386688252,32.73254386688252 0 0,0 0.21506577079409503,0.5207988228418201 l -10.882423490954993 4.384682947698003" fill="#ff6709" stroke="none" /><path d="M 119.97218684219823 93.5106431181261 l 9.33410452428476 -3.0328344066368014 a30.814458304376927,30.814458304376927 0 0,0 0.15956682672639289,0.5058704462901901 l -9.384926834779359 2.871713793920192" fill="#ff4b06" stroke="none" /><path d="M 120.08093135843002 93.85539295169968 l 6.50633381920461 -1.9908869728443217 a27.80411718781848,27.80411718781848 0 0,0 0.13609996585347142,0.4588614259406476 l -6.539639682169783 1.8785961601571444" fill="#ff1d03" stroke="none" /><path d="M 120.67395015179393 96.31383870115 l 14.615160148193022 -2.6058802173366495 a35.845656531943476,35.845656531943476 0 0,0 0.1030786890737869,0.6083762578635177 l -14.657850698787032 2.353918171157294" fill="#ff940d" stroke="none" /><path d="M 120.73433829027371 96.67025291283417 l 18.93259723678163 -3.040403779426581 a40.17517387853739,40.17517387853739 0 0,0 0.10377459109343037,0.6837448954281762 l -18.98212772131436 2.7140597716063226" fill="#ffcf13" stroke="none" /><path d="M 120.94382443527127 98.46500227214037 l 44.120348980174164 -3.233632694269873 a65.23868866200496,65.23868866200496 0 0,0 0.07244417444023306,1.1206793140398366 l -44.16947374561881 2.473694315977001" fill="#34ff5d" stroke="none" /><path d="M 120.96714384426684 98.82574320788733 l 9.777717473870558 -0.547597290328634 a30.793039456226495,30.793039456226495 0 0,0 0.025083704600933864,0.5294773590934824 l -9.785694786704989 0.37920882461215194" fill="#ff4a06" stroke="none" /><line stroke="#e1ed5e" stroke-width="0.3" x1="184.98032266829074" x2="189.97916517819016" y1="98.17113171792111" y2="98.06355123074" /><path d="M 185.9800911702706 98.14961562048488 a86.0,86.0 0 0,1 -9.607161424134198,41.387399972396054" fill="none" id="id76" stroke="none" /><text fill="#e1ed5e" style="font-size:6.75px; font-family:Arial;" text-anchor="middle"><textPath startOffset="21.466115282336823" xlink:href="#id76">April</textPath></text><path d="M 120.99824983174949 100.27111621757518 l 29.323614275819352 0.3786080959982308 a50.32605834897339,50.32605834897339 0 0,0 -0.018639663197570107,0.8661119056409478 l -29.312752549936775 -0.8833098174292934" fill="#adff20" stroke="none" /><path d="M 120.92983693683757 101.71520430193887 l 14.328771665529198 1.174245689366032 a35.376805986792306,35.376805986792306 0 0,0 -0.05496107513079415,0.6064908842357897 l -14.306435994121328 -1.4207179621503923" fill="#ff8d0d" stroke="none" /><path d="M 120.89721153311464 102.0752229133903 l 7.417625211827578 0.7366162599317798 a28.454110765043406,28.454110765043406 0 0,0 -0.052596337749196614,0.4869767650692453 l -7.403846572577329 -0.8641893468858166" fill="#ff2703" stroke="none" /><path d="M 120.8583938346157 102.4346265915055 l 37.14215081810406 4.3352939236095445 a58.39430626176763,58.39430626176763 0 0,0 -0.12512645954080331,0.9973809955619263 l -37.062022849316406 -4.9739926734588655" fill="#51ff2b" stroke="none" /><path d="M 120.76222939487914 103.15116336523771 l 10.808131291913016 1.6403916326131989 a31.93190682047632,31.93190682047632 0 0,0 -0.08715623232611959,0.5427219418918672 l -10.778293305225608 -1.8261928041982711" fill="#ff5b08" stroke="none" /><path d="M 120.70491114924044 103.5080841355445 l 14.620871629052603 2.4772503219166784 a35.8292500265749,35.8292500265749 0 0,0 -0.10826158964309023,0.6071884885594926 l -14.576063597070323 -2.728557561209389" fill="#ff930d" stroke="none" /><path d="M 120.64145759157962 103.86396538481128 l 9.729012358963143 1.8212166857233014 a30.898005440350826,30.898005440350826 0 0,0 -0.10236077663826199,0.5219353948068768 l -9.696221649349217 -1.9884158075981233" fill="#ff4c07" stroke="none" /><path d="M 120.41448212921028 104.9243191809786 l 41.62598267094549 10.040892715094763 a63.81987809228207,63.81987809228207 0 0,0 -0.2667934866462324,1.06570735904835 l -41.4469778700042 -10.755927913540509" fill="#32ff4b" stroke="none" /><path d="M 120.23288151984713 105.62410040840565 l 12.515992966075757 3.479049738074128 a33.990529897077,33.990529897077 0 0,0 -0.16154786475578375,0.5623693103036864 l -12.454252464433873 -3.6939765238823963" fill="#ff790b" stroke="none" /><path d="M 120.13307415673323 105.97154293290107 l 18.441455005880506 5.469802547563234 a40.23554009231985,40.23554009231985 0 0,0 -0.20265918740588412,0.6623019502245374 l -18.34456904596849 -5.786431470339829" fill="#ffd013" stroke="none" /><path d="M 119.9155931802556 106.66101706037122 l 12.977147570594461 4.340367900685108 a34.68375506146918,34.68375506146918 0 0,0 -0.19424417202609065,0.5645644875892765 l -12.900512567625139 -4.563105091363685" fill="#ff830c" stroke="none" /><path d="M 119.67450827220406 107.3425965602758 l 44.32653308821598 16.542820022714825 a68.31285691991809,68.31285691991809 0 0,0 -0.4206306274788431,1.0981338370697018 l -44.03520818114363 -17.30337742661767" fill="#38ff83" stroke="none" /><path d="M 119.26925614724726 108.34839909993367 l 19.07221951102436 8.263033039929727 a41.785265745129855,41.785265745129855 0 0,0 -0.2916192010391301,0.6575243131225369 l -18.92715922525396 -8.59010568954495" fill="#ffe515" stroke="none" /><line stroke="#e1ed5e" stroke-width="0.3" x1="174.80103733775053" x2="179.2010983576182" y1="140.37084112569926" y2="142.7455964860345" /><path d="M 175.68104954172406 140.8457921977663 a86.0,86.0 0 0,1 -30.038265399797805,32.042727171017184" fill="none" id="id77" stroke="none" /><text fill="#e1ed5e" style="font-size:6.75px; font-family:Arial;" text-anchor="middle"><textPath startOffset="22.206326154141568" xlink:href="#id77">May</textPath></text><path d="M 118.30583269289576 110.29060199501025 l 10.253006518609007 5.763715374509989 a32.76199632668713,32.76199632668713 0 0,0 -0.28057998292465497,0.48921485038627927 l -10.152274539531973 -5.939350070754583" fill="#ff6709" stroke="none" /><path d="M 118.12598468904814 110.60418214915192 l 21.845822074263605 12.780385752693718 a46.30964642360773,46.30964642360773 0 0,0 -0.4084491503478737,0.6845842699342691 l -21.622592048217506 -13.15453211651409" fill="#dfff1b" stroke="none" /><path d="M 117.94076556474637 110.91462005526583 l 12.616363573554182 7.675414652038369 a35.76768837363621,35.76768837363621 0 0,0 -0.32452425678641855,0.5232364327126047 l -12.4823746770998 -7.891447416116247" fill="#ff930d" stroke="none" /><path d="M 117.75023020441432 111.22182372390056 l 11.643200873283442 7.360915676995458 a34.77487590432182,34.77487590432182 0 0,0 -0.32422626565394336,0.5032063644159681 l -11.514769744252447 -7.560243641332879" fill="#ff840c" stroke="none" /><path d="M 117.35343817320211 111.8261652097733 l 28.54180741797827 19.45090802995958 a55.53943534389214,55.53943534389214 0 0,0 -0.5451832770722436,0.7853771723127545 l -28.20276323374389 -19.939326464459356" fill="#71ff27" stroke="none" /><path d="M 116.93607887273984 112.41649034213515 l 14.963404788622926 10.970247153397825 a39.55397007313574,39.55397007313574 0 0,0 -0.4072904945616719,0.5456321759267343 l -14.772353027366162 -11.226192208833874" fill="#ffc712" stroke="none" /><path d="M 116.71984013943494 112.70617746262583 l 15.776702465601392 11.989443656831073 a40.8154258063873,40.8154258063873 0 0,0 -0.4299092352721235,0.5557156389373319 l -15.5679864131112 -12.259237289881657" fill="#ffd814" stroke="none" /><path d="M 115.80600337817218 113.82643327865902 l 17.921017106078757 15.676559176565162 a44.81002649584239,44.81002649584239 0 0,0 -0.5128425388237715,0.5761840289749339 l -17.64851571760665 -15.982717375280961" fill="#f2ff19" stroke="none" /><path d="M 115.07121518719521 114.62390073753431 l 8.128381215822534 7.8871304390916235 a32.325961670118005,32.325961670118005 0 0,0 -0.3909276676296135,0.39600766337402504 l -7.991412923137385 -8.025878596446313" fill="#ff6109" stroke="none" /><path d="M 114.55890576462653 115.13401014063108 l 12.360383858388388 12.848642451511955 a38.82881661730535,38.82881661730535 0 0,0 -0.48566374849413585,0.4592253878039545 l -12.137384275503445 -13.05950247606183" fill="#ffbd11" stroke="none" /><path d="M 114.29624159901734 115.38237550388516 l 8.867351881570983 9.541034643453637 a34.02540868683908,34.02540868683908 0 0,0 -0.43244747181387766,0.3950305122713849 l -8.701804860290242 -9.692257922311605" fill="#ff7a0b" stroke="none" /><path d="M 114.0293411484842 115.62618273729858 l 16.56867901334307 18.454552016230355 a45.80104059040561,45.80104059040561 0 0,0 -0.5911772522316769,0.5216451900939566 l -16.2485594082048 -18.7370203480966" fill="#e5ff1a" stroke="none" /><path d="M 113.20401910651253 116.32954008644616 l 15.966743026233074 19.746227886648526 a46.39390475325168,46.39390475325168 0 0,0 -0.6253070059044171,0.4967817036134613 l -15.624478527611306 -20.018143504267112" fill="#deff1b" stroke="none" /><path d="M 112.92097659922987 116.55440617244103 l 6.072539650477109 7.7801617470805455 a30.8694809700081,30.8694809700081 0 0,0 -0.42169367888629156,0.32333673102906735 l -5.937717243097325 -7.883537819936984" fill="#ff4c07" stroke="none" /><path d="M 112.63410532772338 116.77436683061366 l 7.0931363115352255 9.417593678608199 a32.789981061451314,32.789981061451314 0 0,0 -0.45377434838801856,0.3356914147249248 l -6.929976992728642 -9.538295042072894" fill="#ff6809" stroke="none" /><path d="M 112.34349029814194 116.9893568818739 l 2.8878581216010817 3.9747957074575715 a25.913117691091927,25.913117691091927 0 0,0 -0.36312011365352204,0.2590765596548012 l -2.819010680098675 -4.023916528956592" fill="#ff0000" stroke="none" /><path d="M 112.04921762599082 117.19931262002967 l 11.896061745367778 16.98069461907751 a41.73307200575859,41.73307200575859 0 0,0 -0.5919003895453655,0.4071144851652092 l -11.60200447119953 -17.182949893607816" fill="#ffe415" stroke="none" /><path d="M 111.45004920935366 117.60387380957326 l 5.389120191456252 8.285500792216624 a30.88393341821887,30.88393341821887 0 0,0 -0.44813793032867794,0.28602283004808354 l -5.245700459080644 -8.377038051088515" fill="#ff4c07" stroke="none" /><path d="M 111.1453310114006 117.79835938074945 l 9.155473949626707 14.62068874310338 a38.25071716088937,38.25071716088937 0 0,0 -0.5610484049076244,0.34464175423456883 l -8.902446344786775 -14.776118964166326" fill="#ffb510" stroke="none" /><line stroke="#e1ed5e" stroke-width="0.3" x1="143.8653032363475" x2="146.44561519142675" y1="172.8068346515853" y2="177.08958963109032" /><path d="M 144.38136562736335 173.6633856474863 a86.0,86.0 0 0,1 -40.68145358897372,12.25698825130547" fill="none" id="id78" stroke="none" /><text fill="#e1ed5e" style="font-size:6.75px; font-family:Arial;" text-anchor="middle"><textPath startOffset="21.466115282336833" xlink:href="#id78">June</textPath></text><path d="M 110.5260780823613 118.17145234162733 l 6.871566443988212 11.862570386827908 a34.709084636714124,34.709084636714124 0 0,0 -0.5195639787898834,0.29502198694379855 l -6.666353698277129 -11.979095539566336" fill="#ff840c" stroke="none" /><path d="M 109.89434966115114 118.52300852407294 l 9.732871682278132 18.22070892060745 a41.65727534679236,41.65727534679236 0 0,0 -0.6353906795017298,0.3324063730972343 l -9.417790100249906 -18.3855447126494" fill="#ffe315" stroke="none" /><path d="M 109.2508944713604 118.85261126421891 l 8.202273960308936 16.715603332743438 a39.619578214814254,39.619578214814254 0 0,0 -0.6148342209229486,0.29515778945708976 l -7.913327071385754 -16.854315398700088" fill="#ffc812" stroke="none" /><path d="M 107.93186726928326 119.44442032107085 l 10.96263970750147 26.874147923100768 a50.02411576515621,50.02411576515621 0 0,0 -0.8000974369122753,0.3183752822766307 l -10.498421194547328 -27.05887004978347" fill="#b1ff20" stroke="none" /><path d="M 107.2578585660854 119.70592522655815 l 7.133160292664625 19.36735499547191 a41.63919609096919,41.63919609096919 0 0,0 -0.6747144733742679,0.24192860496087767 l -6.798726258660623 -19.487271141472746" fill="#ffe315" stroke="none" /><path d="M 106.91757812671514 119.82793768551818 l 5.687034292955588 16.30081504112687 a38.264383280449984,38.264383280449984 0 0,0 -0.6237645974947024,0.21161481820842198 l -5.405599962523659 -16.39629284623342" fill="#ffb510" stroke="none" /><path d="M 106.57524785965236 119.94407469862006 l 7.195241918302452 21.824643778653453 a43.9801345150113,43.9801345150113 0 0,0 -0.721020073978457,0.23084785862442295 l -6.818500499233055 -21.94526448393758" fill="#fcff18" stroke="none" /><path d="M 106.2309692047433 120.05430185196036 l 4.365813703417906 14.051320582858589 a35.713936910807284,35.713936910807284 0 0,0 -0.588642253623458,0.17735308231071148 l -4.123296475354203 -14.124389034275026" fill="#ff920d" stroke="none" /><path d="M 105.88484417918355 120.15858648285463 l 4.9522767672123384 16.964068454354887 a38.67214372121022,38.67214372121022 0 0,0 -0.6406111172946763,0.18104310063897103 l -4.659534481813056 -17.04680034833238" fill="#ffbb11" stroke="none" /><path d="M 105.18746579009965 120.34920634021253 l 5.10097642989541 20.00992895348005 a41.649872088264075,41.649872088264075 0 0,0 -0.6962405136881199,0.17111897881700144 l -4.755782631464079 -20.094769190611082" fill="#ffe315" stroke="none" /><path d="M 104.83641907484287 120.43548508189849 l 14.509257224528598 61.306455245695496 a84.0,84.0 0 0,0 -1.4099194024285517,0.32089306568926235 l -13.451817672707184 -61.54712504496244" fill="#4dd2ff" stroke="none" /><path d="M 104.48393922423573 120.51570834832081 l 3.7715248865298796 17.256144816206593 a38.66349155426548,38.66349155426548 0 0,0 -0.6514034972786787,0.1365079363323177 l -3.473929927821823 -17.31850873326545" fill="#ffbb11" stroke="none" /><path d="M 104.13013068566511 120.58985236759428 l 1.4670257905851367 7.313532366527758 a28.459217140323176,28.459217140323176 0 0,0 -0.4811401785119417,0.0922116603350898 l -1.3409179975014907 -7.337701225211316" fill="#ff2703" stroke="none" /><path d="M 103.7750983002368 120.6578951692458 l 2.7734001230620464 15.176454875624094 a36.42778437866095,36.42778437866095 0 0,0 -0.61779966064069,0.10741239000271295 l -2.5117514909493064 -15.221945844147813" fill="#ff9c0e" stroke="none" /><path d="M 102.70371172650421 120.8252237178851 l 3.981639111700016 30.668404642474385 a51.92579010034123,51.92579010034123 0 0,0 -0.8873686715905992,0.10744798830136836 l -3.453143017058036 -30.732398159501106" fill="#9aff22" stroke="none" /><path d="M 102.34483914955558 120.86867818915974 l 1.8287464955622947 16.275539459786064 a37.377957700888246,37.377957700888246 0 0,0 -0.6399950092711431,0.06633809949266921 l -1.548318889685549 -16.30460692773449" fill="#ffa90f" stroke="none" /><path d="M 101.62511606390274 120.93702456842531 l 1.7065913910987907 21.986704012936954 a43.05283672294044,43.05283672294044 0 0,0 -0.7393550560188916,0.05099025345569529 l -1.3278735743009686 -22.012822610908938" fill="#fff617" stroke="none" /><path d="M 100.90346689309514 120.98055641714683 l 0.5945201722115186 13.806110782304083 a34.818905498208586,34.818905498208586 0 0,0 -0.5990172349269673,0.02063136474747623 l -0.35678258560989906 -13.814298945477654" fill="#ff850c" stroke="none" /><line stroke="#e1ed5e" stroke-width="0.3" x1="102.19456741930631" x2="102.32365962044197" y1="184.97166512339345" y2="189.96999836594603" /><path d="M 102.22038585953345 185.97133177190398 a86.0,86.0 0 0,1 -42.740103519485714,-10.115201625700543" fill="none" id="id79" stroke="none" /><text fill="#e1ed5e" style="font-size:6.75px; font-family:Arial;" text-anchor="middle"><textPath startOffset="22.20632615414155" xlink:href="#id79">July</textPath></text><path d="M 100.18074693466247 120.99922214144158 l 0.1377599397620053 16.00498278245348 a37.00557564311998,37.00557564311998 0 0,0 -0.6370137488489105,0.0 l 0.13775993976199427 -16.00498278245348" fill="#ffa40f" stroke="none" /><path d="M 99.09653310690486 120.98055641714683 l -0.6229107245423663 14.465403988777624 a35.478809700016555,35.478809700016555 0 0,0 -0.6099177914377725,-0.031525783088065466 l 0.8718165843936276 -14.452538398927356" fill="#ff8e0d" stroke="none" /><path d="M 98.73552117531835 120.96189622390904 l -0.8923832568940219 14.793482388031267 a35.82037344476097,35.82037344476097 0 0,0 -0.6151505041422058,-0.04242438036267155 l 1.1468965218151577 -14.775929663152311" fill="#ff930d" stroke="none" /><path d="M 98.01472825383883 120.90594882070398 l -1.1489591724586614 12.099140434021507 a33.15357175574946,33.15357175574946 0 0,0 -0.5676639861649987,-0.058840693204001704 l 1.3570557552292535 -12.077570372361745" fill="#ff6d0a" stroke="none" /><path d="M 97.65516085044442 120.86867818915974 l -2.3173887018764474 20.624373773279945 a41.754158232401096,41.754158232401096 0 0,0 -0.7135439220562775,-0.08640023188129158 l 2.672060046984114 -20.581428012673303" fill="#ffe515" stroke="none" /><path d="M 96.58105272829116 120.7198165907248 l -3.698614397788222 22.414680856918505 a43.7177830428287,43.7177830428287 0 0,0 -0.7414349236031055,-0.12890796523439071 l 4.083898292863378 -22.34769431316311" fill="#fffe18" stroke="none" /><path d="M 96.22490169976321 120.6578951692458 l -2.1714309797104794 11.882390862059962 a33.079169056620266,33.079169056620266 0 0,0 -0.5592464903884793,-0.10718092090081445 l 2.3756450846706536 -11.84325274281068" fill="#ff6c09" stroke="none" /><path d="M 95.51606077576429 120.51570834832081 l -2.423794770309661 11.089772656839257 a32.351556662808854,32.351556662808854 0 0,0 -0.5430129456864383,-0.12358797853986087 l 2.6143278653889617 -11.04640794472171" fill="#ff6109" stroke="none" /><path d="M 95.16358092515715 120.4354850818985 l -1.7255814857276488 7.2911578098375225 a28.492570565022444,28.492570565022444 0 0,0 -0.4762963479082578,-0.11706205408327834 l 1.8508311183791173 -7.260374497440215" fill="#ff2803" stroke="none" /><path d="M 94.11515582081647 120.15858648285463 l -5.69824361231915 19.519384568521648 a41.33411798429371,41.33411798429371 0 0,0 -0.6812748878001693,-0.20526253511106954 l 6.033393474559564 -19.41840666430485" fill="#ffdf14" stroke="none" /><path d="M 93.76903079525671 120.05430185196036 l -4.397813383652198 14.15431118119061 a35.82178422361518,35.82178422361518 0 0,0 -0.5872702709023242,-0.18802539535901594 l 4.640804999645463 -14.076512939171888" fill="#ff930d" stroke="none" /><path d="M 93.42475214034765 119.94407469862007 l -4.172330405246926 12.65553345603737 a34.32557196023605,34.32557196023605 0 0,0 -0.5595562960109561,-0.18983187621311212 l 4.389556434195108 -12.581838592926134" fill="#ff7e0b" stroke="none" /><path d="M 93.08242187328487 119.8279376855182 l -4.977233656522258 14.266304909034718 a36.109609876802445,36.109609876802445 0 0,0 -0.5851139959222619,-0.20980106157888062 l 5.222067213074246 -14.17851630641588" fill="#ff970e" stroke="none" /><path d="M 92.7421414339146 119.70592522655815 l -7.1249086495916725 19.344950830398815 a41.61532065953799,41.61532065953799 0 0,0 -0.6700656755999818,-0.2533615032712148 l 7.456844545951937 -19.219441077020967" fill="#ffe315" stroke="none" /><path d="M 91.7346041902142 119.30500536409082 l -5.3917051358107075 12.593092812952564 a34.69877625436539,34.69877625436539 0 0,0 -0.5470498777379624,-0.23981059008634167 l 5.607675688206413 -12.49841766957177" fill="#ff830c" stroke="none" /><path d="M 91.40352486487194 119.15986991738527 l -5.894855222976825 13.138484957924877 a35.4003161454697,35.4003161454697 0 0,0 -0.5538160387494353,-0.25422978042848826 l 6.12013925749368 -13.035068107162314" fill="#ff8d0d" stroke="none" /><line stroke="#e1ed5e" stroke-width="0.3" x1="58.666819895761336" x2="56.23545636021788" y1="174.27360380694188" y2="178.64263932499728" /><path d="M 58.180547188652646 175.14741091055294 a86.0,86.0 0 0,1 -31.652253787137756,-30.449443065178592" fill="none" id="id80" stroke="none" /><text fill="#e1ed5e" style="font-size:6.75px; font-family:Arial;" text-anchor="middle"><textPath startOffset="22.20632615414155" xlink:href="#id80">August</textPath></text><line stroke="#e1ed5e" stroke-width="0.3" x1="26.63291911575756" x2="22.317208475507996" y1="142.92168965132927" y2="145.44649492493687" /><path d="M 25.769776987707644 143.4266507060508 a86.0,86.0 0 0,1 -11.730757126820373,-40.83630448921669" fill="none" id="id81" stroke="none" /><text fill="#e1ed5e" style="font-size:6.75px; font-family:Arial;" text-anchor="middle"><textPath startOffset="21.46611528233685" xlink:href="#id81">September</textPath></text><line stroke="#e1ed5e" stroke-width="0.3" x1="15.007084014347285" x2="10.007500721073583" y1="101.09737516637583" y2="101.16192664675087" /><path d="M 14.007167355692545 101.11028546245083 a86.0,86.0 0 0,1 10.666146001902534,-42.60595125391555" fill="none" id="id82" stroke="none" /><text fill="#e1ed5e" style="font-size:6.75px; font-family:Arial;" text-anchor="middle"><textPath startOffset="22.20632615414155" xlink:href="#id82">October</textPath></text><line stroke="#e1ed5e" stroke-width="0.3" x1="26.266209847984243" x2="21.928928074336255" y1="57.711370442889674" y2="55.22380399835377" /><path d="M 25.398753493254645 57.213857153982495 a86.0,86.0 0 0,1 29.58750427330803,-30.492523968695096" fill="none" id="id83" stroke="none" /><text fill="#e1ed5e" style="font-size:6.75px; font-family:Arial;" text-anchor="middle"><textPath startOffset="21.46611528233685" xlink:href="#id83">November</textPath></text><line stroke="#e1ed5e" stroke-width="0.3" x1="56.762969772571076" x2="54.21961505331055" y1="26.818313649435495" y2="22.513508569990535" /><path d="M 56.25429882871897 25.957352633546506 a86.0,86.0 0 0,1 42.265352541879196,-11.944610805530505" fill="none" id="id84" stroke="none" /><text fill="#e1ed5e" style="font-size:6.75px; font-family:Arial;" text-anchor="middle"><textPath startOffset="22.20632615414155" xlink:href="#id84">December</textPath></text></svg>