<?xml version="1.0" encoding="utf-8" ?>
<svg baseProfile="full" height="200mm" version="1.1" viewBox="0,0,200,200" width="200mm" xmlns="http://www.w3.org/2000/svg" xmlns:ev="http://www.w3.org/2001/xml-events" xmlns:xlink="http://www.w3.org/1999/xlink"><defs /><rect fill="#1a1a1a" height="200" width="200" x="0" y="0" /><text alignment-baseline="middle" fill="#e1ed5e" style="dominant-baseline: central; font-size:9.0px; font-family:Arial;" text-anchor="middle" x="100.0" y="100.0">2019</text><line stroke="#e1ed5e" stroke-width="0.3" x1="100.0" x2="100.0" y1="15.0" y2="10.0" /><path d="M 100.0 14.0 a86.0,86.0 0 0,1 42.46469731375804,11.215312516191453" fill="none" id="id37" stroke="none" /><text fill="#e1ed5e" style="font-size:6.75px; font-family:Arial;" text-anchor="middle"><textPath startOffset="22.20632615414155" xlink:href="#id37">January</textPath></text><line stroke="#e1ed5e" stroke-width="0.3" x1="143.23703022742887" x2="145.7803849466894" y1="26.81831364943548" y2="22.513508569990506" /><path d="M 143.74570117128098 25.957352633546492 a86.0,86.0 0 0,1 28.547481713284135,27.462654790039103" fill="none" id="id38" stroke="none" /><text fill="#e1ed5e" style="font-size:6.75px; font-family:Arial;" text-anchor="middle"><textPath startOffset="19.985693538727396" xlink:href="#id38">February</textPath></text><line stroke="#e1ed5e" stroke-width="0.3" x1="172.23445277983987" x2="176.4835382374775" y1="55.19839476539836" y2="52.563006222186495" /><path d="M 173.08426987136738 54.67131705675599 a86.0,86.0 0 0,1 12.851231095245387,41.99856678651699" fill="none" id="id39" stroke="none" /><text fill="#e1ed5e" style="font-size:6.75px; font-family:Arial;" text-anchor="middle"><textPath startOffset="22.20632615414155" xlink:href="#id39">March</textPath></text><path d="M 119.196687751892 91.48605970444005 l 27.471346329193665 -12.183841582897696 a51.05196940061748,51.05196940061748 0 0,0 0.34936391827123436,0.8063800914630189 l -27.67700095730758 11.709162346848073" fill="#92ff23" stroke="none" /><path d="M 119.34039704204932 91.81776055985345 l 13.404639794297568 -5.671030029393733 a35.55489435238715,35.55489435238715 0 0,0 0.23360973074675456,0.5657044927608945 l -13.500271211930519 5.439450966179535" fill="#ffb010" stroke="none" /><path d="M 119.7369772167798 92.82701384747503 l 12.901231013757105 -4.688679041161898 a34.72681582965835,34.72681582965835 0 0,0 0.19934336483573578,0.5635705362568276 l -12.98002745940265 4.465910878478456" fill="#ffa50f" stroke="none" /><path d="M 119.97218684219823 93.5106431181261 l 15.427997138344578 -5.012860143673069 a37.22195618662541,37.22195618662541 0 0,0 0.19274683898645742,0.6110601524105823 l -15.511999461099242 4.746549824836068" fill="#ffc612" stroke="none" /><path d="M 120.08093135843002 93.85539295169968 l 39.76162378533966 -12.166744131650928 a62.58144284187299,62.58144284187299 0 0,0 0.3063334892564578,1.032804239237853 l -39.965163171707815 11.480510505666546" fill="#32ff49" stroke="none" /><path d="M 120.45610955862082 95.25157060432595 l 18.228078427317456 -4.231241682729914 a39.71272960661023,39.71272960661023 0 0,0 0.1488387965481233,0.6672151405700745 l -18.298211610867618 3.9168483726098757" fill="#ffe615" stroke="none" /><path d="M 120.67395015179393 96.31383870115 l 13.515800475381944 -2.4098646010814777 a34.728958805600676,34.728958805600676 0 0,0 0.09986748445767064,0.5894235464433288 l -13.555279821359838 2.176855266322311" fill="#ffa50f" stroke="none" /><path d="M 120.73433829027371 96.67025291283417 l 1.9576128829900712 -0.31437491294295095 a22.982695081331617,22.982695081331617 0 0,0 0.059365512430658594,0.39114455341381177 l -1.9627342888600297 0.280631247137057" fill="#ff0000" stroke="none" /><path d="M 120.83666639777658 97.38593545837742 l 24.76589878896738 -3.107006496613169 a45.96003269619999,45.96003269619999 0 0,0 0.09172232124958349,0.7858208345888147 l -24.815711463220552 2.680241923699502" fill="#ccff1d" stroke="none" /><path d="M 120.91429891909075 98.10471618934814 l 31.06388972665513 -2.8150543091388407 a52.191181056721646,52.191181056721646 0 0,0 0.07337959813190068,0.8954169609155402 l -31.107743808606525 2.2799234310155314" fill="#85ff25" stroke="none" /><line stroke="#e1ed5e" stroke-width="0.3" x1="184.98032266829074" x2="189.97916517819016" y1="98.17113171792111" y2="98.06355123074" /><path d="M 185.9800911702706 98.14961562048488 a86.0,86.0 0 0,1 -9.607161424134198,41.387399972396054" fill="none" id="id40" stroke="none" /><text fill="#e1ed5e" style="font-size:6.75px; font-family:Arial;" text-anchor="middle"><textPath startOffset="21.466115282336823" xlink:href="#id40">April</textPath></text><path d="M 120.99513854157772 99.54816195383933 l 24.020701193913713 -0.5169514206049903 a45.026263226281216,45.026263226281216 0 0,0 0.010006535713948593,0.7750172186345805 l -24.026040736745376 0.10339794390994707" fill="#d7ff1c" stroke="none" /><path d="M 120.49622156327973 104.57218783832717 l 10.491697841743887 2.3404320219374517 a31.74957420792859,31.74957420792859 0 0,0 -0.12358058227152377,0.5323819140213937 l -10.44985669354181 -2.52068259330741" fill="#ff7d0b" stroke="none" /><path d="M 119.9155931802556 106.66101706037122 l 15.934422559191974 5.329465186061789 a37.80205408467461,37.80205408467461 0 0,0 -0.21170800807322043,0.6153225697826854 l -15.840323720175522 -5.602960458933775" fill="#ffcd13" stroke="none" /><path d="M 119.67450827220406 107.3425965602758 l 14.089795939289841 5.25836202701841 a36.03903989016645,36.03903989016645 0 0,0 -0.22190733408363428,0.5793300257562113 l -13.997194325612702 -5.500115619607765" fill="#ffb610" stroke="none" /><path d="M 119.26925614724726 108.34839909993367 l 21.92282372044356 9.498056407429154 a44.891908157289336,44.891908157289336 0 0,0 -0.3133004458988403,0.7064097965997022 l -21.756082189813444 -9.874014540521545" fill="#d9ff1c" stroke="none" /><line stroke="#e1ed5e" stroke-width="0.3" x1="174.80103733775053" x2="179.2010983576182" y1="140.37084112569926" y2="142.7455964860345" /><path d="M 175.68104954172406 140.8457921977663 a86.0,86.0 0 0,1 -30.038265399797805,32.042727171017184" fill="none" id="id41" stroke="none" /><text fill="#e1ed5e" style="font-size:6.75px; font-family:Arial;" text-anchor="middle"><textPath startOffset="22.206326154141568" xlink:href="#id41">May</textPath></text><path d="M 117.75023020441432 111.22182372390056 l 12.790011794914493 8.085937823693426 a36.13164869413402,36.13164869413402 0 0,0 -0.3368762424990663,0.5228394093987414 l -12.648930689038377 -8.30489883301362" fill="#ffb811" stroke="none" /><path d="M 116.93607887273984 112.41649034213515 l 21.225269803038135 15.561061063717213 a47.31840989954557,47.31840989954557 0 0,0 -0.48724157231810244,0.6527397099998705 l -20.95426696402494 -15.924113653226398" fill="#bcff1f" stroke="none" /><path d="M 113.75828350139079 115.86535959552629 l 3.471632072872757 4.0033112570998295 a26.29893671132436,26.29893671132436 0 0,0 -0.34455930564764875,0.2936409153274242 l -3.4022072906480614 -4.0624765626502" fill="#ff3104" stroke="none" /><path d="M 111.45004920935366 117.60387380957326 l 6.801688046129084 10.457252704060489 a33.474658087235724,33.474658087235724 0 0,0 -0.48573035663988645,0.3100160951439879 l -6.6206758874422675 -10.572783228028285" fill="#ff940d" stroke="none" /><line stroke="#e1ed5e" stroke-width="0.3" x1="143.8653032363475" x2="146.44561519142675" y1="172.8068346515853" y2="177.08958963109032" /><path d="M 144.38136562736335 173.6633856474863 a86.0,86.0 0 0,1 -40.68145358897372,12.25698825130547" fill="none" id="id42" stroke="none" /><text fill="#e1ed5e" style="font-size:6.75px; font-family:Arial;" text-anchor="middle"><textPath startOffset="21.466115282336833" xlink:href="#id42">June</textPath></text><path d="M 110.21172684928248 118.3499491758327 l 2.783668650892226 5.002109733264181 a26.724501108531328,26.724501108531328 0 0,0 -0.4038927150494692,0.22023451161370108 l -2.697153123974108 -5.049284896637653" fill="#ff3705" stroke="none" /><path d="M 109.89434966115114 118.52300852407294 l 12.400169051028834 23.21410147187276 a47.31840989954557,47.31840989954557 0 0,0 -0.7217389128002275,0.37757968768947225 l -11.99873923570211 -23.424110578506948" fill="#bcff1f" stroke="none" /><path d="M 109.57404056367764 118.69057910512821 l 17.536129851894657 34.234283844389324 a59.46429565871091,59.46429565871091 0 0,0 -0.9150311797385439,0.4588156292565973 l -16.944244764473353 -34.53106731455522" fill="#3aff2e" stroke="none" /><path d="M 108.92500713936063 119.00905698771935 l 11.185333154764937 23.82324540983899 a47.31840989954557,47.31840989954557 0 0,0 -0.7402672400664994,0.33982038209921933 l -10.773597918931017 -24.012252862272284" fill="#bcff1f" stroke="none" /><path d="M 108.59647513512805 119.15986991738527 l 1.8645214279346771 4.155655365235199 a25.55476801493069,25.55476801493069 0 0,0 -0.40288835017432695,0.1766144129192167 l -1.7927124031025963 -4.1871343314488705" fill="#ff2603" stroke="none" /><path d="M 107.59598834532513 119.57807347666477 l 4.6522682246316975 11.990862149103732 a33.861740734159056,33.861740734159056 0 0,0 -0.545222043767334,0.2061563241570387 l -4.445175960104089 -12.069166723367402" fill="#ff9a0e" stroke="none" /><path d="M 107.2578585660854 119.70592522655815 l 4.361299698759928 11.841432975281597 a33.6190518649576,33.6190518649576 0 0,0 -0.5447574161818812,0.19533062790231384 l -4.156822721948312 -11.914751144223871" fill="#ff960d" stroke="none" /><path d="M 106.57524785965236 119.94407469862006 l 2.7778300347637512 8.425727956714274 a29.87182232140568,29.87182232140568 0 0,0 -0.4897252765950462,0.1567945685512183 l -2.632383413077765 -8.472295371925199" fill="#ff6309" stroke="none" /><path d="M 105.53697534728816 120.25689768951611 l 3.3846824355500726 12.382783290162235 a33.83703225830029,33.83703225830029 0 0,0 -0.5631602933891243,0.14873575196832395 l -3.171031699349451 -12.439210391434143" fill="#ff990e" stroke="none" /><path d="M 104.48393922423573 120.51570834832081 l 1.6382703464592872 7.495702984107681 a28.67264575971344,28.67264575971344 0 0,0 -0.48307747110463584,0.10123358094425003 l -1.5090014139252732 -7.522792545778472" fill="#ff5207" stroke="none" /><path d="M 102.70371172650421 120.8252237178851 l 1.6060894930757037 12.370835498609926 a33.474658087235724,33.474658087235724 0 0,0 -0.5720541338209637,0.06926778896573733 l -1.3929079362033598 -12.396648816301015" fill="#ff940d" stroke="none" /><path d="M 102.34483914955558 120.86867818915974 l 2.0447896691914615 18.198287749913487 a39.31280540550473,39.31280540550473 0 0,0 -0.6731239695145983,0.06977205167804934 l -1.7312331030712607 -18.23078917004729" fill="#ffe115" stroke="none" /><path d="M 100.90346689309514 120.98055641714683 l 2.7104006792854274 62.94166925144049 a84.0,84.0 0 0,0 -1.4451185933013908,0.04977280629562486 l -1.626561734309384 -62.97899885616221" fill="#4dd2ff" stroke="none" /><line stroke="#e1ed5e" stroke-width="0.3" x1="102.19456741930631" x2="102.32365962044197" y1="184.97166512339345" y2="189.96999836594603" /><path d="M 102.22038585953345 185.97133177190398 a86.0,86.0 0 0,1 -42.740103519485714,-10.115201625700543" fill="none" id="id43" stroke="none" /><text fill="#e1ed5e" style="font-size:6.75px; font-family:Arial;" text-anchor="middle"><textPath startOffset="22.20632615414155" xlink:href="#id43">July</textPath></text><path d="M 94.81253420990036 120.34920634021253 l -2.5225429652925104 9.895341845098297 a31.211807540445527,31.211807540445527 0 0,0 -0.5194678586911493,-0.13719618285022966 l 2.692501266795149 -9.850454312944487" fill="#ff760a" stroke="none" /><path d="M 90.7491055286396 118.85261126421891 l -1.6219902136881141 3.305491276297374 a24.682000112843298,24.682000112843298 0 0,0 -0.37980437557328456,-0.19044179852194518 l 1.6786484969441593 -3.277081636866127" fill="#ff1902" stroke="none" /><line stroke="#e1ed5e" stroke-width="0.3" x1="58.666819895761336" x2="56.23545636021788" y1="174.27360380694188" y2="178.64263932499728" /><path d="M 58.180547188652646 175.14741091055294 a86.0,86.0 0 0,1 -31.652253787137756,-30.449443065178592" fill="none" id="id44" stroke="none" /><text fill="#e1ed5e" style="font-size:6.75px; font-family:Arial;" text-anchor="middle"><textPath startOffset="22.20632615414155" xlink:href="#id44">August</textPath></text><path d="M 87.65650970185807 116.9893568818739 l -4.707834303661186 6.4797780201332555 a29.009446111993704,29.009446111993704 0 0,0 -0.40145623999895785,-0.2969877288880239 l 4.818675514078708 -6.397780342505465" fill="#ff5708" stroke="none" /><path d="M 87.36589467227662 116.77436683061367 l -2.383310404915061 3.164333521546447 a24.961461235675408,24.961461235675408 0 0,0 -0.340986958254226,-0.26145425915951587 l 2.4374260916627732 -3.1228399205595645" fill="#ff1d02" stroke="none" /><path d="M 85.97065885151581 115.62618273729859 l -10.15522609409828 11.311109837977542 a36.2009809811422,36.2009809811422 0 0,0 -0.4600980063623181,-0.4202886199935362 l 10.348423649927453 -11.134628451397429" fill="#ffb911" stroke="none" /><line stroke="#e1ed5e" stroke-width="0.3" x1="26.63291911575756" x2="22.317208475507996" y1="142.92168965132927" y2="145.44649492493687" /><path d="M 25.769776987707644 143.4266507060508 a86.0,86.0 0 0,1 -11.730757126820373,-40.83630448921669" fill="none" id="id45" stroke="none" /><text fill="#e1ed5e" style="font-size:6.75px; font-family:Arial;" text-anchor="middle"><textPath startOffset="21.46611528233685" xlink:href="#id45">September</textPath></text><path d="M 81.51974371655577 109.97397251340807 l -6.264858273267745 3.381204419440224 a28.11905840053117,28.11905840053117 0 0,0 -0.2262211613260804,-0.42792518355838527 l 6.322131942818712 -3.2728642207957126" fill="#ff4b06" stroke="none" /><path d="M 80.58989483394504 108.01547362559985 l -4.986730702876093 2.0592886068837464 a26.395197185409287,26.395197185409287 0 0,0 -0.1698058159956929,-0.4214441096276923 l 5.021439133129174 -1.9731451294132487" fill="#ff3204" stroke="none" /><path d="M 79.76711848015287 105.62410040840567 l -10.31362463118409 2.8668610767816882 a31.704659988366423,31.704659988366423 0 0,0 -0.14163214963993404,-0.5270659172631158 l 10.361444857165798 -2.6889042263430336" fill="#ff7c0b" stroke="none" /><path d="M 79.18660465613746 102.79330883721812 l -15.863524758410598 2.1290002503202086 a37.005750836076686,37.005750836076686 0 0,0 -0.07929537794336376,-0.6320621816268853 l 15.89782164560081 -1.8556203144059145" fill="#ffc312" stroke="none" /><path d="M 79.1416061653843 102.43462659150553 l -6.217589518811141 0.7257274408368936 a27.259800295761345,27.259800295761345 0 0,0 -0.050388700429638125,-0.46653678528490156 l 6.22916052074183 -0.61859433366721" fill="#ff3e05" stroke="none" /><path d="M 79.0095281055655 100.63252640178507 l -10.479539798924966 0.3157902135175452 a31.484296726829406,31.484296726829406 0 0,0 -0.01166108982609067,-0.5418450228457933 l 10.483422951436065 -0.13535537488162305" fill="#ff790b" stroke="none" /><line stroke="#e1ed5e" stroke-width="0.3" x1="15.007084014347285" x2="10.007500721073583" y1="101.09737516637583" y2="101.16192664675087" /><path d="M 14.007167355692545 101.11028546245083 a86.0,86.0 0 0,1 10.666146001902534,-42.60595125391555" fill="none" id="id46" stroke="none" /><text fill="#e1ed5e" style="font-size:6.75px; font-family:Arial;" text-anchor="middle"><textPath startOffset="22.20632615414155" xlink:href="#id46">October</textPath></text><path d="M 79.16333360222342 97.38593545837743 l -6.70042788805665 -0.8406023603534226 a27.75295092617139,27.75295092617139 0 0,0 0.06354632945151979,-0.4734939652584206 l 6.6849655595472965 0.9558146676765026" fill="#ff4506" stroke="none" /><path d="M 79.32604984820605 96.31383870115002 l -7.605204431676869 -1.3560064738502362 a28.72514647140889,28.72514647140889 0 0,0 0.0909824915775693,-0.4860321080662002 l 7.580736216189439 1.486716659379009" fill="#ff5307" stroke="none" /><path d="M 80.38941819471856 92.48833698450439 l -5.8330627310839125 -2.234304010926823 a27.246337746071998,27.246337746071998 0 0,0 0.17153055200631734,-0.43652654512438316 l 5.7937386291959045 2.3343795609469695" fill="#ff3e05" stroke="none" /><path d="M 81.43458229118936 90.18545643968196 l -31.482397255651613 -16.643059913604528 a56.610852001187645,56.610852001187645 0 0,0 0.46283927547360404,-0.8575708843489873 l 31.191249880959536 17.18251178128599" fill="#57ff2a" stroke="none" /><line stroke="#e1ed5e" stroke-width="0.3" x1="26.266209847984243" x2="21.928928074336255" y1="57.711370442889674" y2="55.22380399835377" /><path d="M 25.398753493254645 57.213857153982495 a86.0,86.0 0 0,1 29.58750427330803,-30.492523968695096" fill="none" id="id47" stroke="none" /><text fill="#e1ed5e" style="font-size:6.75px; font-family:Arial;" text-anchor="middle"><textPath startOffset="21.46611528233685" xlink:href="#id47">November</textPath></text><line stroke="#e1ed5e" stroke-width="0.3" x1="56.762969772571076" x2="54.21961505331055" y1="26.818313649435495" y2="22.513508569990535" /><path d="M 56.25429882871897 25.957352633546506 a86.0,86.0 0 0,1 42.265352541879196,-11.944610805530505" fill="none" id="id48" stroke="none" /><text fill="#e1ed5e" style="font-size:6.75px; font-family:Arial;" text-anchor="middle"><textPath startOffset="22.20632615414155" xlink:href="#id48">December</textPath></text><path d="M 90.26544431104013 81.39251694778311 l -7.140698231420203 -13.649356536409481 a36.40436642936774,36.40436642936774 0 0,0 0.5577487192678455,-0.2857005570867766 l 6.904689024563594 13.770249618808764" fill="#ffbb11" stroke="none" /><path d="M 90.58718382345135 81.22770947309562 l -6.213329852710706 -12.39144916323446 a34.86194359473483,34.86194359473483 0 0,0 0.5387477325882519,-0.2643611726253405 l 5.999110853112028 12.49656549599463" fill="#ffa70f" stroke="none" /></svg>