<?xml version="1.0" encoding="utf-8" ?>
<svg baseProfile="full" height="200mm" version="1.1" viewBox="0,0,200,200" width="200mm" xmlns="http://www.w3.org/2000/svg" xmlns:ev="http://www.w3.org/2001/xml-events" xmlns:xlink="http://www.w3.org/1999/xlink"><defs /><rect fill="#1a1a1a" height="200" width="200" x="0" y="0" /><text alignment-baseline="middle" fill="#e1ed5e" style="dominant-baseline: central; font-size:9.0px; font-family:Arial;" text-anchor="middle" x="100.0" y="100.0">2022</text><line stroke="#e1ed5e" stroke-width="0.3" x1="100.0" x2="100.0" y1="15.0" y2="10.0" /><path d="M 100.0 14.0 a86.0,86.0 0 0,1 42.46469731375804,11.215312516191453" fill="none" id="id13" stroke="none" /><text fill="#e1ed5e" style="font-size:6.75px; font-family:Arial;" text-anchor="middle"><textPath startOffset="22.20632615414155" xlink:href="#id13">January</textPath></text><path d="M 100.0 79.0 l 0.0 -49.42119648440381 a70.42119648440381,70.42119648440381 0 0,0 1.212185136006056,0.010433660166109622 l -0.8507046567335278 49.41387420084626" fill="#3bff9f" stroke="none" /><path d="M 101.44485096284872 79.0497635885617 l 0.582984652119491 -8.453236077763046 a29.47331524794172,29.47331524794172 0 0,0 0.5058319984464141,0.03926229840466192 l -0.7284068399282463 8.44194851716992" fill="#ff4a06" stroke="none" /><path d="M 102.52436894288641 79.15227682838746 l 5.115555020941543 -42.24726153689687 a63.555845785734846,63.555845785734846 0 0,0 1.0849445062577439,0.1408569350280779 l -5.8420142557071335 42.15294627870466" fill="#33ff4e" stroke="none" /><path d="M 103.59715602781102 79.31037775812273 l 3.463708550284914 -19.9220775822071 a41.22094093045117,41.22094093045117 0 0,0 0.6980175098855983,0.12755823831595284 l -3.8061211812734133 19.859503862540407" fill="#ffeb16" stroke="none" /><path d="M 103.95276090670814 79.375362276772 l 1.3172619158773629 -6.873183185825802 a27.998273077048324,27.998273077048324 0 0,0 0.47254897406753116,0.09478887868800683 l -1.4353772994120193 6.849490351060587" fill="#ff3505" stroke="none" /><path d="M 105.36241919743992 79.69619591428918 l 5.095770468328478 -19.29418820969589 a40.95576546607663,40.95576546607663 0 0,0 0.6800648507847414,0.18588741331804207 l -5.42713320833693 19.203614255551557" fill="#ffe815" stroke="none" /><path d="M 106.0581310904928 79.89281104454417 l 2.379154087682637 -7.896511330078957 a29.247136797640884,29.247136797640884 0 0,0 0.4807875918512493,0.14938304514225859 l -2.5147270522446044 7.854388150054178" fill="#ff4706" stroke="none" /><path d="M 107.08798089147638 80.2323363322302 l 7.273194459790543 -20.284205625373637 a42.54874371053606,42.54874371053606 0 0,0 0.6872993277517504,0.25313814276859853 l -7.621276113314869 20.156004214798713" fill="#fffc17" stroke="none" /><path d="M 107.76421540070413 80.48803036053334 l 12.420553926299563 -31.213646016741997 a54.59407473788479,54.59407473788479 0 0,0 0.8701674971270079,0.35496317068277283 l -12.95600529301496 30.995221959875643" fill="#73ff27" stroke="none" /><path d="M 108.09893153111575 80.62456947434976 l 5.493909100389951 -13.143320656543255 a35.24534713806807,35.24534713806807 0 0,0 0.5577429198237451,0.23879641085331543 l -5.7193357780040115 13.046804717727149" fill="#ff9c0e" stroke="none" /><path d="M 108.43124777332544 80.76684994638697 l 2.8357506517574884 -6.4688429596905355 a28.063102080253465,28.063102080253465 0 0,0 0.44074823225522336,0.19775088431032153 l -2.946681002479492 6.4190717448636825" fill="#ff3605" stroke="none" /><path d="M 108.76106565485865 80.91482961587045 l 2.957872043393197 -6.443450391369473 a28.089926654848163,28.089926654848163 0 0,0 0.43769695449821505,0.2055045890123163 l -3.0683472091910104 6.391580819717154" fill="#ff3605" stroke="none" /><path d="M 109.08828744355905 81.06846463323043 l 3.0471101709183706 -6.347342590717382 a28.0408549450794,28.0408549450794 0 0,0 0.4333363393938517,0.21263625978150352 l -3.155917777322654 6.293951170801047" fill="#ff3505" stroke="none" /><path d="M 109.41281617654863 81.2277094730956 l 6.536237191299211 -13.035433945212406 a35.58235011103899,35.58235011103899 0 0,0 0.545154665484375,0.27924939358318107 l -6.759652344372341 12.920992026316725" fill="#ffa00e" stroke="none" /><path d="M 109.73455568895987 81.39251694778311 l 6.441523824859281 -12.312893287718968 a34.89606312237335,34.89606312237335 0 0,0 0.5298467896775939,0.28302580528941923 l -6.652515661065186 12.200188755927794" fill="#ff970d" stroke="none" /><line stroke="#e1ed5e" stroke-width="0.3" x1="143.23703022742887" x2="145.7803849466894" y1="26.818313649435467" y2="22.513508569990506" /><path d="M 143.74570117128098 25.957352633546478 a86.0,86.0 0 0,1 28.547481713284135,27.462654790039114" fill="none" id="id14" stroke="none" /><text fill="#e1ed5e" style="font-size:6.75px; font-family:Arial;" text-anchor="middle"><textPath startOffset="19.985693538727396" xlink:href="#id14">February</textPath></text><path d="M 110.68208982089419 81.91981866633111 l 3.643925032522734 -6.16759702071025 a28.16361938216428,28.16361938216428 0 0,0 0.41526309111077353,0.2501913659838043 l -3.749550189851145 6.103959045267834" fill="#ff3705" stroke="none" /><path d="M 110.99172775467656 82.1063720568725 l 3.64755973077701 -5.937926973772532 a27.96876378817947,27.96876378817947 0 0,0 0.40805207412011313,0.2555221713792456 l -3.7492309572693863 5.874260461070342" fill="#ff3405" stroke="none" /><path d="M 111.2981086023043 82.29822771554956 l 3.790370822284515 -5.938718021883867 a28.045231203720288,28.045231203720288 0 0,0 0.40469665829670814,0.2632259639260973 l -3.892034506365503 5.872593133798241" fill="#ff3605" stroke="none" /><path d="M 111.90073688211348 82.69761687909136 l 11.80388802578516 -17.161575368110334 a41.829100836104416,41.829100836104416 0 0,0 0.589728296037428,0.41314235842684716 l -12.097547461406238 16.95584816691955" fill="#fff316" stroke="none" /><path d="M 112.19680574252982 82.90503203632743 l 4.0460439627566265 -5.670910350056045 a27.966325857073592,27.966325857073592 0 0,0 0.3894706181560627,0.2829669674989178 l -4.143059897266478 5.600424147740454" fill="#ff3405" stroke="none" /><path d="M 113.34407831869373 83.78471172551755 l 3.144571047459794 -3.8211800632734367 a25.94871136241353,25.94871136241353 0 0,0 0.3424518942722011,0.28679361306371565 l -3.2098804786911126 3.766485292815902" fill="#ff1602" stroke="none" /><path d="M 113.89432698308785 84.25364557470407 l 13.667471672474132 -15.489260711542686 a41.65712901900994,41.65712901900994 0 0,0 0.5335861902099956,0.4790589499960079 l -13.93206885028012 15.25170275277738" fill="#fff116" stroke="none" /><path d="M 114.42810811169701 84.74124197986012 l 4.886926395730142 -5.168274784011856 a28.112883651539423,28.112883651539423 0 0,0 0.3487560600762124,0.3355030534742488 l -4.975165699418775 5.083388643775301" fill="#ff3705" stroke="none" /><path d="M 115.19652480421416 85.50635884689758 l 16.782358346012316 -16.00612526242997 a44.19145527065018,44.19145527065018 0 0,0 0.520265325361207,0.5549827746445632 l -17.055390993343988 15.714873070907347" fill="#edff1a" stroke="none" /><path d="M 115.68641384162765 86.03803664274999 l 15.449053599357063 -13.750696777233141 a41.6822367981613,41.6822367981613 0 0,0 0.4724148334398671,0.5400518197830828 l -15.683460296374777 13.48272940124711" fill="#fff116" stroke="none" /><path d="M 116.15771136456269 86.58626213691792 l 10.690383108730922 -8.874895301752906 a34.89417351368966,34.89417351368966 0 0,0 0.3796843459821677,0.4654481137917195 l -10.8415659467895 8.689563018353082" fill="#ff970d" stroke="none" /><path d="M 116.38621287248628 86.86637796730983 l 5.5921947695358325 -4.482168821301698 a28.166762147795403,28.166762147795403 0 0,0 0.29997054367784926,0.38093212798521653 l -5.668519393807646 4.385244299363443" fill="#ff3705" stroke="none" /><path d="M 116.60985879189232 87.15038557335679 l 5.709917676137765 -4.417270578005078 a28.21910238378566,28.21910238378566 0 0,0 0.2939141255529998,0.3867565370012093 l -5.785107741914878 4.318329265122837" fill="#ff3805" stroke="none" /><path d="M 117.04232023915458 87.72973835380427 l 11.195533079126452 -8.060646568177363 a34.795433448169874,34.795433448169874 0 0,0 0.34577942138509127,0.4890804696842135 l -11.332625120315427 7.866739598161358" fill="#ff960d" stroke="none" /><path d="M 117.2510076193507 88.02491185347247 l 23.96483100699067 -16.635605876345384 a50.172872811341676,50.172872811341676 0 0,0 0.4863794948335029,0.7137018925907896 l -24.247634967492907 16.22062596048419" fill="#a5ff21" stroke="none" /><line stroke="#e1ed5e" stroke-width="0.3" x1="172.23445277983987" x2="176.4835382374775" y1="55.19839476539836" y2="52.563006222186495" /><path d="M 173.08426987136738 54.67131705675599 a86.0,86.0 0 0,1 12.851231095245387,41.99856678651699" fill="none" id="id15" stroke="none" /><text fill="#e1ed5e" style="font-size:6.75px; font-family:Arial;" text-anchor="middle"><textPath startOffset="22.20632615414155" xlink:href="#id15">March</textPath></text><path d="M 117.84615892207809 88.93136811851018 l 35.15504850784152 -21.804035950157562 a62.367782383207995,62.367782383207995 0 0,0 0.5579962383679781,0.9171991006448705 l -35.525160544495726 21.19566907630561" fill="#31ff40" stroke="none" /><path d="M 118.3937258080291 89.86733742301442 l 11.473456088349081 -6.320451894762651 a34.099171987774014,34.099171987774014 0 0,0 0.2787881739836857,0.5165521458060971 l -11.580552361551232 6.1220187656240945" fill="#ff8c0c" stroke="none" /><path d="M 118.56541770881063 90.18545643968196 l 12.88690124194522 -6.812615561919978 a35.576829367669895,35.576829367669895 0 0,0 0.2815492113799466,0.5438634610719659 l -13.002259886485282 6.589779378587668" fill="#ffa00e" stroke="none" /><path d="M 118.73160827565052 90.50648371742162 l 7.53331997479397 -3.81802217888287 a29.445602595497334,29.445602595497334 0 0,0 0.22524481997713258,0.4540798124486784 l -7.59792480772451 3.6877827779352415" fill="#ff4a06" stroke="none" /><path d="M 118.89224826269711 90.83032412892265 l 6.18211655724237 -3.0005960242997647 a27.871836845296446,27.871836845296446 0 0,0 0.20577618692584043,0.4334171291362376 l -6.2328509380099675 2.8937364795229867" fill="#ff3304" stroke="none" /><path d="M 119.04729006885535 91.15688171328212 l 6.348169587768631 -2.947275668394159 a27.99897785255667,27.99897785255667 0 0,0 0.19918963897935854,0.43888796590381807 l -6.397961543711336 2.8375656936482785" fill="#ff3505" stroke="none" /><path d="M 119.196687751892 91.48605970444005 l 12.6477345955756 -5.609408175647676 a34.83584657623605,34.83584657623605 0 0,0 0.2383921325476268,0.5502419099232078 l -12.742417437965907 5.390867121137866" fill="#ff960d" stroke="none" /><path d="M 119.34039704204932 91.81776055985345 l 10.284976235336382 -4.351210474675046 a32.16753190084344,32.16753190084344 0 0,0 0.2113534185101338,0.5118090673250661 l -10.358351340732714 4.173526836896676" fill="#ff710a" stroke="none" /><path d="M 119.97218684219823 93.5106431181261 l 6.583011102340021 -2.1389499676701695 a27.921787495851646,27.921787495851646 0 0,0 0.14458767969349223,0.45838245677484507 l -6.618854265801719 2.0253173444689057" fill="#ff3404" stroke="none" /><path d="M 120.08093135843002 93.85539295169968 l 5.696998304895368 -1.7432366713269758 a26.957739821294638,26.957739821294638 0 0,0 0.13195698480124388,0.44489335341874164 l -5.726161186808315 1.6449139311617045" fill="#ff2503" stroke="none" /><path d="M 120.67395015179393 96.31383870115 l 13.775862780305157 -2.4562336595661476 a34.99312256546703,34.99312256546703 0 0,0 0.10062712053920152,0.593906961597058 l -13.816101762364584 2.218740909653252" fill="#ff980e" stroke="none" /><path d="M 120.73433829027371 96.67025291283417 l 17.849548245040353 -2.866475912762995 a39.0782481648658,39.0782481648658 0 0,0 0.1009411741743078,0.6650762181088333 l -17.89624531265396 2.558800582262079" fill="#ffcf13" stroke="none" /><path d="M 120.94382443527127 98.46500227214037 l 40.809348524788135 -2.990965544740077 a61.91880743505912,61.91880743505912 0 0,0 0.06875761881414197,1.0636499302123499 l -40.85478673460669 2.288056550274692" fill="#30ff3a" stroke="none" /><path d="M 120.96714384426684 98.82574320788733 l 6.8884519510674505 -0.3857850907478026 a27.899246365974204,27.899246365974204 0 0,0 0.022726449444121645,0.4797194283972343 l -6.894072008745068 0.2671545557275685" fill="#ff3304" stroke="none" /><line stroke="#e1ed5e" stroke-width="0.3" x1="184.98032266829074" x2="189.97916517819016" y1="98.17113171792111" y2="98.06355123074" /><path d="M 185.9800911702706 98.14961562048488 a86.0,86.0 0 0,1 -9.607161424134198,41.387399972396054" fill="none" id="id16" stroke="none" /><text fill="#e1ed5e" style="font-size:6.75px; font-family:Arial;" text-anchor="middle"><textPath startOffset="21.466115282336823" xlink:href="#id16">April</textPath></text><path d="M 120.99824983174949 100.27111621757518 l 27.78871603990739 0.3587904536986295 a48.791032181915654,48.791032181915654 0 0,0 -0.018071123325939232,0.8396940918407891 l -27.778422853896444 -0.8370743613295334" fill="#b5ff1f" stroke="none" /><path d="M 120.92983693683757 101.71520430193887 l 10.126255399528352 0.8298486450810871 a31.16020163137622,31.16020163137622 0 0,0 -0.04841019801482785,0.5342025011368869 l -10.110470605236449 -1.0040325347665449" fill="#ff6309" stroke="none" /><path d="M 120.89721153311464 102.0752229133903 l 6.995455064149882 0.6946921418540248 a28.02986406173647,28.02986406173647 0 0,0 -0.0518121339102375,0.47971601146939974 l -6.982460628738592 -0.8150044752082157" fill="#ff3505" stroke="none" /><path d="M 120.8583938346157 102.4346265915055 l 34.9939617814036 4.084553708720516 a56.23153332112808,56.23153332112808 0 0,0 -0.12049210153268256,0.960440602451685 l -34.918468170624074 -4.686312065459596" fill="#62ff29" stroke="none" /><path d="M 120.76222939487914 103.15116336523771 l 7.653755398699011 1.161639877884174 a28.741406778422448,28.741406778422448 0 0,0 -0.07844795303465146,0.4884954784312134 l -7.632625691303069 -1.2932145860085924" fill="#ff4006" stroke="none" /><path d="M 120.70491114924044 103.5080841355445 l 10.66831286367395 1.8075585468741724 a31.820358924620244,31.820358924620244 0 0,0 -0.09614833237195723,0.5392509088672018 l -10.635618088962804 -1.9909282064745923" fill="#ff6c0a" stroke="none" /><path d="M 120.64145759157962 103.86396538481128 l 6.926947072876657 1.2966857400096496 a28.047268240870277,28.047268240870277 0 0,0 -0.09291668244604154,0.47378016198532946 l -6.903600457454951 -1.415729629062924" fill="#ff3605" stroke="none" /><path d="M 120.41448212921028 104.9243191809786 l 38.59282235709902 9.309243025530238 a60.69972220551405,60.69972220551405 0 0,0 -0.2537499445274756,1.013604892085021 l -38.42686109827648 -9.972175757012655" fill="#33ff2f" stroke="none" /><path d="M 120.23288151984713 105.62410040840565 l 8.849873677532978 2.459984659887821 a30.185411729213584,30.185411729213584 0 0,0 -0.1434631594857245,0.49941407876816996 l -8.806217881161155 -2.611956214160573" fill="#ff5507" stroke="none" /><path d="M 120.13307415673323 105.97154293290107 l 16.08653242412451 4.771323955017488 a37.77921505065517,37.77921505065517 0 0,0 -0.19028711943298499,0.6218693162460409 l -16.002018532185392 -5.047520243815586" fill="#ffbe11" stroke="none" /><path d="M 119.9155931802556 106.66101706037122 l 9.117723642611603 3.0495357173391744 a30.61418496360279,30.61418496360279 0 0,0 -0.17145280261521725,0.4983220996777394 l -9.063880009053156 -3.2060305201062143" fill="#ff5b08" stroke="none" /><path d="M 119.67450827220406 107.3425965602758 l 34.57346719708385 12.90294109544609 a57.90271701298408,57.90271701298408 0 0,0 -0.35653107318367705,0.9307901276149018 l -34.34624184430666 -13.496154789894137" fill="#50ff2b" stroke="none" /><path d="M 119.26925614724726 108.34839909993367 l 17.96111235525031 7.78164621792108 a40.57436014021431,40.57436014021431 0 0,0 -0.28316829570821367,0.6384697525751716 l -17.824502974810823 -8.08966430698894" fill="#ffe315" stroke="none" /><line stroke="#e1ed5e" stroke-width="0.3" x1="174.80103733775053" x2="179.2010983576182" y1="140.37084112569926" y2="142.7455964860345" /><path d="M 175.68104954172406 140.8457921977663 a86.0,86.0 0 0,1 -30.038265399797805,32.042727171017184" fill="none" id="id17" stroke="none" /><text fill="#e1ed5e" style="font-size:6.75px; font-family:Arial;" text-anchor="middle"><textPath startOffset="22.206326154141568" xlink:href="#id17">May</textPath></text><path d="M 118.30583269289576 110.29060199501023 l 7.200243118956877 4.04760807375081 a29.259941409645627,29.259941409645627 0 0,0 -0.2505877169153855,0.43692080654349097 l -7.129503405889111 -4.170948726152617" fill="#ff4706" stroke="none" /><path d="M 118.12598468904814 110.60418214915192 l 20.458774020410626 11.968925825687888 a44.70267115409247,44.70267115409247 0 0,0 -0.39427569548147723,0.6608287443225962 l -20.249717449230918 -12.31931666389659" fill="#e7ff1a" stroke="none" /><path d="M 117.94076556474637 110.91462005526583 l 11.903213986726689 7.2415559766824495 a34.932933509395326,34.932933509395326 0 0,0 -0.3169504320794197,0.5110250157266332 l -11.776798914979308 -7.445377323774354" fill="#ff980e" stroke="none" /><path d="M 117.75023020441432 111.22182372390056 l 8.200364785501963 5.184329838815231 a30.701714203836897,30.701714203836897 0 0,0 -0.2862498250999524,0.44426608533003276 l -8.10991009702496 -5.324717524066719" fill="#ff5c08" stroke="none" /><path d="M 117.35343817320211 111.8261652097733 l 26.844924685338885 18.29450228848558 a53.485978442166726,53.485978442166726 0 0,0 -0.5250262416958887,0.7563394594703923 l -26.526037536480857 -18.75388301014299" fill="#80ff26" stroke="none" /><path d="M 116.93607887273984 112.41649034213513 l 14.084521024634784 10.325903687037195 a38.46419249342344,38.46419249342344 0 0,0 -0.39606896487495824,0.5305991031152028 l -13.904690793064736 -10.566815669661715" fill="#ffc712" stroke="none" /><path d="M 116.71984013943494 112.70617746262582 l 14.809566364934222 11.254472339933997 a39.60070975978418,39.60070975978418 0 0,0 -0.417114620580484,0.5391768747169707 l -14.613644927135669 -11.507727208764221" fill="#ffd614" stroke="none" /><path d="M 115.80600337817218 113.82643327865902 l 12.673067479638325 11.085871472426938 a37.83755284020323,37.83755284020323 0 0,0 -0.43304385600506273,0.48652936288808574 l -12.480364773984926 -11.302375005055886" fill="#ffbf11" stroke="none" /><path d="M 115.07121518719521 114.62390073753431 l 5.846336313443681 5.672816747960839 a29.146195317191655,29.146195317191655 0 0,0 -0.3524737878458699,0.3570540861735138 l -5.7478219005422755 -5.772611328115018" fill="#ff4606" stroke="none" /><path d="M 114.55890576462653 115.13401014063108 l 11.636637585237336 12.096306828616129 a37.78487334424015,37.78487334424015 0 0,0 -0.4726062966482787,0.4468787520786412 l -11.426695454198251 -12.294820217440694" fill="#ffbe11" stroke="none" /><path d="M 114.29624159901734 115.38237550388516 l 6.330441166963929 6.811386227705148 a30.298896047992095,30.298896047992095 0 0,0 -0.3850851907555117,0.35176619147341276 l -6.212256426741554 -6.919345185765144" fill="#ff5608" stroke="none" /><path d="M 114.0293411484842 115.62618273729858 l 13.476592553446876 15.010519431201585 a41.17261114595976,41.17261114595976 0 0,0 -0.5314357667578978,0.4689302751867571 l -13.21621443378239 -15.24027284816063" fill="#ffeb16" stroke="none" /><path d="M 113.20401910651253 116.32954008644616 l 15.14446795019432 18.729312225746636 a45.08613804543944,45.08613804543944 0 0,0 -0.6076806455272765,0.4827782569001212 l -14.819829811949692 -18.987224396651882" fill="#e2ff1b" stroke="none" /><path d="M 112.92097659922987 116.55440617244103 l 4.307468864375467 5.518746095420133 a28.00077470593641,28.00077470593641 0 0,0 -0.3825056115742475,0.29328899207910775 l -4.211834524307727 -5.592074429326613" fill="#ff3505" stroke="none" /><path d="M 112.63410532772338 116.77436683061366 l 5.005815382428981 6.6462469112819536 a29.32050392997248,29.32050392997248 0 0,0 -0.4057609103310264,0.30017222108955177 l -4.89066950167939 -6.7314290811112745" fill="#ff4806" stroke="none" /><path d="M 112.34349029814194 116.9893568818739 l 2.0391093879459947 2.806593295431907 a24.469140098348987,24.469140098348987 0 0,0 -0.3428856781895792,0.24463982720886068 l -1.990496381907531 -2.841277384484987" fill="#ff0000" stroke="none" /><path d="M 112.04921762599082 117.19931262002967 l 8.411382596023598 12.0065885874304 a35.659792859536,35.659792859536 0 0,0 -0.5057630380469935,0.34786842936232365 l -8.203462673353721 -12.149597806157818" fill="#ffa20e" stroke="none" /><path d="M 111.45004920935366 117.60387380957326 l 3.8205226463506916 5.873861092058217 a28.007041987891455,28.007041987891455 0 0,0 -0.40639311259743993,0.25937931228431604 l -3.718847731706321 -5.938754833166342" fill="#ff3505" stroke="none" /><path d="M 111.1453310114006 117.79835938074945 l 6.379323815258161 10.187359868809322 a33.019903220764576,33.019903220764576 0 0,0 -0.4843246194389353,0.29751173874187814 l -6.203019995886917 -10.295660074379578" fill="#ff7d0b" stroke="none" /><line stroke="#e1ed5e" stroke-width="0.3" x1="143.8653032363475" x2="146.44561519142675" y1="172.8068346515853" y2="177.08958963109032" /><path d="M 144.38136562736335 173.6633856474863 a86.0,86.0 0 0,1 -40.68145358897372,12.25698825130547" fill="none" id="id18" stroke="none" /><text fill="#e1ed5e" style="font-size:6.75px; font-family:Arial;" text-anchor="middle"><textPath startOffset="21.466115282336833" xlink:href="#id18">June</textPath></text><path d="M 110.5260780823613 118.17145234162733 l 4.841508061283502 8.358025877144351 a30.65902670409849,30.65902670409849 0 0,0 -0.4589382309252039,0.26059710507140604 l -4.696921063437101 -8.440126148010386" fill="#ff5c08" stroke="none" /><path d="M 109.89434966115114 118.52300852407294 l 6.857011940571845 12.836871040001743 a35.55348311748017,35.55348311748017 0 0,0 -0.542290670923788,0.2837008487873978 l -6.635030367121561 -12.953001307733858" fill="#ffa00e" stroke="none" /><path d="M 109.2508944713604 118.85261126421891 l 7.717023277267013 15.726699770887027 a38.518034534316314,38.518034534316314 0 0,0 -0.5977399765839639,0.28695151335886365 l -7.445170632682816 -15.857205560745449" fill="#ffc812" stroke="none" /><path d="M 107.93186726928326 119.44442032107085 l 9.96309441719688 24.423832241458573 a47.37777154584691,47.37777154584691 0 0,0 -0.757771186969207,0.301532793910038 l -9.541202154185807 -24.591711879774678" fill="#c6ff1e" stroke="none" /><path d="M 107.2578585660854 119.70592522655815 l 5.024612035844405 13.642402668672895 a35.53829001928926,35.53829001928926 0 0,0 -0.5758564258205553,0.20648162630897743 l -4.789036049394115 -13.726871836021834" fill="#ffa00e" stroke="none" /><path d="M 106.91757812671514 119.82793768551818 l 5.378202985811701 15.415608137609917 a37.32685032726579,37.32685032726579 0 0,0 -0.6084814591021455,0.2064299478814032 l -5.112051793772328 -15.505901072389443" fill="#ffb811" stroke="none" /><path d="M 106.57524785965236 119.94407469862006 l 6.766944973521176 20.525531343314757 a42.61224146635559,42.61224146635559 0 0,0 -0.6985945321284266,0.2236679082993137 l -6.412629096301809 -20.63897209827378" fill="#fffd17" stroke="none" /><path d="M 106.2309692047433 120.05430185196036 l 4.108923698338835 13.224523091918403 a34.848150236311476,34.848150236311476 0 0,0 -0.5743722329168316,0.17305364213056973 l -3.8806764909817577 -13.293292103154698" fill="#ff960d" stroke="none" /><path d="M 105.88484417918355 120.15858648285463 l 4.662621615237708 15.97185213502745 a37.63851258226116,37.63851258226116 0 0,0 -0.6234888288700634,0.17620417090025847 l -4.38700161826304 -16.04974509926623" fill="#ffbc11" stroke="none" /><path d="M 105.18746579009965 120.34920634021253 l 3.592862934648947 14.093954961362437 a35.54469767716356,35.54469767716356 0 0,0 -0.5941833030649477,0.14603579948542356 l -3.349726346840789 -14.15371201916189" fill="#ffa00e" stroke="none" /><path d="M 104.83641907484287 120.43548508189849 l 14.509257224528596 61.306455245695496 a84.0,84.0 0 0,0 -1.4099194024285495,0.32089306568926235 l -13.451817672707184 -61.54712504496244" fill="#4dd2ff" stroke="none" /><path d="M 104.48393922423573 120.51570834832081 l 3.5498417294064284 16.241860997929617 a37.6252646589431,37.6252646589431 0 0,0 -0.6339114239196919,0.1328423022876984 l -3.2697388440573585 -16.300559280943858" fill="#ffbc11" stroke="none" /><path d="M 104.13013068566511 120.58985236759428 l 1.3848827025233006 6.904026182599552 a28.041553637498502,28.041553637498502 0 0,0 -0.47407903233507664,0.09085837486462393 l -1.26583605561652 -6.926841755812644" fill="#ff3505" stroke="none" /><path d="M 103.7750983002368 120.6578951692458 l 1.9505244694612827 10.673557828322606 a31.850317157600234,31.850317157600234 0 0,0 -0.540167772124797,0.09391509109311393 l -1.7665077258644357 -10.705551497936726" fill="#ff6d0a" stroke="none" /><path d="M 102.70371172650421 120.8252237178851 l 3.742765896423913 28.82849393765701 a50.07043789262489,50.07043789262489 0 0,0 -0.8556622416891481,0.1036087811959128 l -3.245976231683385 -28.888648247578274" fill="#a6ff21" stroke="none" /><path d="M 102.34483914955558 120.86867818915974 l 1.7243080016138361 15.346054244911532 a36.442623448501124,36.442623448501124 0 0,0 -0.6239799755360632,0.06467807576450592 l -1.4598954294721702 -15.373461689131796" fill="#ffac0f" stroke="none" /><path d="M 101.62511606390274 120.93702456842531 l 1.6058356245190764 20.688626905001687 a41.750855193638024,41.750855193638024 0 0,0 -0.7169958643882042,0.04944823269174435 l -1.2494769993519423 -20.713203482209714" fill="#fff216" stroke="none" /><path d="M 100.90346689309514 120.98055641714683 l 0.4178650946642902 9.703778035879065 a30.71277094381144,30.71277094381144 0 0,0 -0.5283761469370073,0.018198342845097883 l -0.2507685960526306 -9.709533177150256" fill="#ff5c08" stroke="none" /><line stroke="#e1ed5e" stroke-width="0.3" x1="102.19456741930631" x2="102.32365962044197" y1="184.97166512339345" y2="189.96999836594603" /><path d="M 102.22038585953345 185.97133177190398 a86.0,86.0 0 0,1 -42.740103519485714,-10.115201625700543" fill="none" id="id19" stroke="none" /><text fill="#e1ed5e" style="font-size:6.75px; font-family:Arial;" text-anchor="middle"><textPath startOffset="22.20632615414155" xlink:href="#id19">July</textPath></text><path d="M 100.18074693466247 120.99922214144158 l 0.09686204026643472 11.253455027752379 a32.25387188111229,32.25387188111229 0 0,0 -0.5552179498577725,0.0 l 0.09686204026642695 -11.253455027752379" fill="#ff720a" stroke="none" /><path d="M 99.09653310690486 120.98055641714683 l -0.581712718645857 13.508692576780549 a34.52121166245837,34.52121166245837 0 0,0 -0.5934556810938518,-0.03067488002020966 l 0.8141564681531979 -13.496677889998136" fill="#ff920d" stroke="none" /><path d="M 98.73552117531835 120.96189622390904 l -0.8416759997101146 13.952882891906265 a34.978245937303384,34.978245937303384 0 0,0 -0.600688478458319,-0.04142699439891705 l 1.0817272389473638 -13.936327552991063" fill="#ff980e" stroke="none" /><path d="M 98.01472825383883 120.90594882070398 l -0.8152145053633667 8.584634703020859 a29.623255050969146,29.623255050969146 0 0,0 -0.5072169951793909,-0.05257511543550932 l 0.9628640971483512 -8.56933021912959" fill="#ff4d07" stroke="none" /><path d="M 97.65516085044442 120.86867818915974 l -1.6326813954046695 14.530592698687226 a35.622030389588275,35.622030389588275 0 0,0 -0.6087509448596798,-0.07371126172900587 l 1.8825597633157383 -14.500335908232872" fill="#ffa10e" stroke="none" /><path d="M 96.58105272829116 120.7198165907248 l -3.2732152342281773 19.83663798397113 a41.10487862377462,41.10487862377462 0 0,0 -0.6971211809225668,-0.12120345305264912 l 3.6141853866227933 -19.777355952397475" fill="#ffea16" stroke="none" /><path d="M 96.22490169976321 120.6578951692458 l -1.8692369543323648 10.228740546082252 a31.398133483972437,31.398133483972437 0 0,0 -0.5308263918481462,-0.10173414137515513 l 2.045030960752206 -10.195049206358627" fill="#ff6609" stroke="none" /><path d="M 95.51606077576429 120.51570834832081 l -1.6991920167350099 7.774442538094932 a28.957965210270523,28.957965210270523 0 0,0 -0.4860523452953739,-0.11062393133864812 l 1.8327645114232458 -7.744041873178597" fill="#ff4306" stroke="none" /><path d="M 95.16358092515715 120.4354850818985 l -1.636178706504069 6.913401223232566 a28.10437873659695,28.10437873659695 0 0,0 -0.4698071352292913,-0.11546716348854845 l 1.7549391264765708 -6.884212801429988" fill="#ff3605" stroke="none" /><path d="M 94.11515582081647 120.15858648285463 l -5.331074585276991 18.261643775377685 a40.023879457475985,40.023879457475985 0 0,0 -0.659679347629495,-0.19875597600856265 l 5.644628907346733 -18.167172430263395" fill="#ffdc14" stroke="none" /><path d="M 93.76903079525671 120.05430185196036 l -4.14775634140432 13.349505501581422 a34.97902642548516,34.97902642548516 0 0,0 -0.5734539127521182,-0.18360183378552994 l 4.376931599247379 -13.276130821136185" fill="#ff980e" stroke="none" /><path d="M 93.42475214034765 119.94407469862007 l -2.9321803224453133 8.89390402140143 a30.364785645450517,30.364785645450517 0 0,0 -0.49498977044337944,-0.16792740515911297 l 3.0848398258259184 -8.842113629344196" fill="#ff5708" stroke="none" /><path d="M 93.08242187328487 119.8279376855182 l -4.695758018195675 13.459507889254448 a35.25512174575692,35.25512174575692 0 0,0 -0.5712680151285068,-0.20483638548264083 l 4.926745593953909 -13.37668396273185" fill="#ff9c0e" stroke="none" /><path d="M 92.7421414339146 119.70592522655815 l -5.005855926591776 13.591477663300033 a35.48402080327758,35.48402080327758 0 0,0 -0.5713430533690369,-0.21603305490246044 l 5.239069200721096 -13.503296358290939" fill="#ff9f0e" stroke="none" /><path d="M 91.7346041902142 119.30500536409082 l -3.785239018345677 8.84096312326789 a30.617206630461325,30.617206630461325 0 0,0 -0.4827011483370271,-0.21160199815181258 l 3.9368608413404487 -8.774496571821626" fill="#ff5b08" stroke="none" /><path d="M 91.40352486487194 119.15986991738527 l -4.144532532231042 9.237356351026692 a31.124519853631313,31.124519853631313 0 0,0 -0.48692385182334474,-0.223522858265305 l 4.302924379821806 -9.164646422427312" fill="#ff6209" stroke="none" /><line stroke="#e1ed5e" stroke-width="0.3" x1="58.666819895761336" x2="56.23545636021788" y1="174.27360380694188" y2="178.64263932499728" /><path d="M 58.180547188652646 175.14741091055294 a86.0,86.0 0 0,1 -31.652253787137756,-30.449443065178592" fill="none" id="id20" stroke="none" /><text fill="#e1ed5e" style="font-size:6.75px; font-family:Arial;" text-anchor="middle"><textPath startOffset="22.20632615414155" xlink:href="#id20">August</textPath></text><line stroke="#e1ed5e" stroke-width="0.3" x1="26.63291911575756" x2="22.317208475507996" y1="142.92168965132927" y2="145.44649492493687" /><path d="M 25.769776987707644 143.4266507060508 a86.0,86.0 0 0,1 -11.730757126820373,-40.83630448921669" fill="none" id="id21" stroke="none" /><text fill="#e1ed5e" style="font-size:6.75px; font-family:Arial;" text-anchor="middle"><textPath startOffset="21.46611528233685" xlink:href="#id21">September</textPath></text><line stroke="#e1ed5e" stroke-width="0.3" x1="15.007084014347285" x2="10.007500721073583" y1="101.09737516637583" y2="101.16192664675087" /><path d="M 14.007167355692545 101.11028546245083 a86.0,86.0 0 0,1 10.666146001902526,-42.60595125391555" fill="none" id="id22" stroke="none" /><text fill="#e1ed5e" style="font-size:6.75px; font-family:Arial;" text-anchor="middle"><textPath startOffset="22.20632615414155" xlink:href="#id22">October</textPath></text><line stroke="#e1ed5e" stroke-width="0.3" x1="26.266209847984243" x2="21.928928074336255" y1="57.71137044288968" y2="55.22380399835378" /><path d="M 25.398753493254645 57.2138571539825 a86.0,86.0 0 0,1 29.58750427330803,-30.4925239686951" fill="none" id="id23" stroke="none" /><text fill="#e1ed5e" style="font-size:6.75px; font-family:Arial;" text-anchor="middle"><textPath startOffset="21.46611528233685" xlink:href="#id23">November</textPath></text><line stroke="#e1ed5e" stroke-width="0.3" x1="56.76296977257108" x2="54.21961505331056" y1="26.818313649435495" y2="22.513508569990535" /><path d="M 56.25429882871898 25.957352633546506 a86.0,86.0 0 0,1 42.26535254187918,-11.944610805530505" fill="none" id="id24" stroke="none" /><text fill="#e1ed5e" style="font-size:6.75px; font-family:Arial;" text-anchor="middle"><textPath startOffset="22.20632615414155" xlink:href="#id24">December</textPath></text></svg>