<?xml version="1.0" encoding="utf-8" ?>
<svg baseProfile="full" height="200mm" version="1.1" viewBox="0,0,200,200" width="200mm" xmlns="http://www.w3.org/2000/svg" xmlns:ev="http://www.w3.org/2001/xml-events" xmlns:xlink="http://www.w3.org/1999/xlink"><defs /><rect fill="#1a1a1a" height="200" width="200" x="0" y="0" /><text alignment-baseline="middle" fill="#e1ed5e" style="dominant-baseline: central; font-size:9.0px; font-family:Arial;" text-anchor="middle" x="100.0" y="100.0">2021</text><line stroke="#e1ed5e" stroke-width="0.3" x1="100.0" x2="100.0" y1="15.0" y2="10.0" /><path d="M 100.0 14.0 a86.0,86.0 0 0,1 42.46469731375804,11.215312516191453" fill="none" id="id1" stroke="none" /><text fill="#e1ed5e" style="font-size:6.75px; font-family:Arial;" text-anchor="middle"><textPath startOffset="22.20632615414155" xlink:href="#id1">January</textPath></text><line stroke="#e1ed5e" stroke-width="0.3" x1="143.23703022742887" x2="145.7803849466894" y1="26.818313649435467" y2="22.513508569990506" /><path d="M 143.74570117128098 25.957352633546478 a86.0,86.0 0 0,1 28.547481713284135,27.462654790039114" fill="none" id="id2" stroke="none" /><text fill="#e1ed5e" style="font-size:6.75px; font-family:Arial;" text-anchor="middle"><textPath startOffset="19.985693538727396" xlink:href="#id2">February</textPath></text><line stroke="#e1ed5e" stroke-width="0.3" x1="172.23445277983987" x2="176.4835382374775" y1="55.19839476539836" y2="52.563006222186495" /><path d="M 173.08426987136738 54.67131705675599 a86.0,86.0 0 0,1 12.851231095245387,41.99856678651699" fill="none" id="id3" stroke="none" /><text fill="#e1ed5e" style="font-size:6.75px; font-family:Arial;" text-anchor="middle"><textPath startOffset="22.20632615414155" xlink:href="#id3">March</textPath></text><line stroke="#e1ed5e" stroke-width="0.3" x1="184.98032266829074" x2="189.97916517819016" y1="98.17113171792111" y2="98.06355123074" /><path d="M 185.9800911702706 98.14961562048488 a86.0,86.0 0 0,1 -9.607161424134198,41.387399972396054" fill="none" id="id4" stroke="none" /><text fill="#e1ed5e" style="font-size:6.75px; font-family:Arial;" text-anchor="middle"><textPath startOffset="21.466115282336823" xlink:href="#id4">April</textPath></text><line stroke="#e1ed5e" stroke-width="0.3" x1="174.80103733775053" x2="179.2010983576182" y1="140.37084112569926" y2="142.7455964860345" /><path d="M 175.68104954172406 140.8457921977663 a86.0,86.0 0 0,1 -30.038265399797805,32.042727171017184" fill="none" id="id5" stroke="none" /><text fill="#e1ed5e" style="font-size:6.75px; font-family:Arial;" text-anchor="middle"><textPath startOffset="22.206326154141568" xlink:href="#id5">May</textPath></text><line stroke="#e1ed5e" stroke-width="0.3" x1="143.8653032363475" x2="146.44561519142675" y1="172.8068346515853" y2="177.08958963109032" /><path d="M 144.38136562736335 173.6633856474863 a86.0,86.0 0 0,1 -40.68145358897372,12.25698825130547" fill="none" id="id6" stroke="none" /><text fill="#e1ed5e" style="font-size:6.75px; font-family:Arial;" text-anchor="middle"><textPath startOffset="21.466115282336833" xlink:href="#id6">June</textPath></text><line stroke="#e1ed5e" stroke-width="0.3" x1="102.19456741930631" x2="102.32365962044197" y1="184.97166512339345" y2="189.96999836594603" /><path d="M 102.22038585953345 185.97133177190398 a86.0,86.0 0 0,1 -42.740103519485714,-10.115201625700543" fill="none" id="id7" stroke="none" /><text fill="#e1ed5e" style="font-size:6.75px; font-family:Arial;" text-anchor="middle"><textPath startOffset="22.20632615414155" xlink:href="#id7">July</textPath></text><line stroke="#e1ed5e" stroke-width="0.3" x1="58.666819895761336" x2="56.23545636021788" y1="174.27360380694188" y2="178.64263932499728" /><path d="M 58.180547188652646 175.14741091055294 a86.0,86.0 0 0,1 -31.652253787137756,-30.449443065178592" fill="none" id="id8" stroke="none" /><text fill="#e1ed5e" style="font-size:6.75px; font-family:Arial;" text-anchor="middle"><textPath startOffset="22.20632615414155" xlink:href="#id8">August</textPath></text><path d="M 82.6465618267979 111.8261652097733 l -16.993758452112775 11.58104768540996 a41.56473904090431,41.56473904090431 0 0,0 -0.3978277843635782,-0.5946985596409475 l 17.190589341887083 -11.286812211563193" fill="#fbff18" stroke="none" /><path d="M 82.05923443525364 110.91462005526583 l -15.587463594559283 9.48294219362695 a39.24541624516638,39.24541624516638 0 0,0 -0.3461429347518144,-0.58015546874845 l 15.748387405009328 -9.21322463099239" fill="#ffe715" stroke="none" /><line stroke="#e1ed5e" stroke-width="0.3" x1="26.63291911575756" x2="22.317208475507996" y1="142.92168965132927" y2="145.44649492493687" /><path d="M 25.769776987707644 143.4266507060508 a86.0,86.0 0 0,1 -11.730757126820373,-40.83630448921669" fill="none" id="id9" stroke="none" /><text fill="#e1ed5e" style="font-size:6.75px; font-family:Arial;" text-anchor="middle"><textPath startOffset="21.46611528233685" xlink:href="#id9">September</textPath></text><path d="M 81.69416730710424 110.29060199501025 l -8.15153461152964 4.5823754506593035 a30.35123955921196,30.35123955921196 0 0,0 -0.2520939134054724,-0.4576236784579438 l 8.229204934386628 -4.441381253803538" fill="#ff730a" stroke="none" /><path d="M 81.51974371655577 109.97397251340807 l -1.0714212008747317 0.5782563533699862 a22.217507207328403,22.217507207328403 0 0,0 -0.17874248172255475,-0.33811341455609195 l 1.0812161908221725 -0.559727923727768" fill="#ff0000" stroke="none" /><path d="M 81.35079622478065 109.6543875284942 l -14.678566411860752 7.598853560233319 a37.5288501516977,37.5288501516977 0 0,0 -0.2920483149134431,-0.5762390319550464 l 14.80719339656046 -7.345060316575588" fill="#ffd113" stroke="none" /><path d="M 80.87730276802145 108.67885076344099 l -16.32552447497288 7.409351768444711 a38.92822475906338,38.92822475906338 0 0,0 -0.27167992352501685,-0.6125665061437485 l 16.450645483229174 -7.127236925808266" fill="#ffe315" stroke="none" /><path d="M 80.58989483394504 108.01547362559985 l -6.792355325586502 2.8049278714447503 a28.348721741434417,28.348721741434417 0 0,0 -0.1823732474482163,-0.45263544384530324 l 6.839631187292106 -2.6875930597566415" fill="#ff5708" stroke="none" /><path d="M 80.32549172779594 107.34259656027581 l -28.758699642291095 10.732849134014772 a51.69620262587924,51.69620262587924 0 0,0 -0.3039631820216237,-0.8363761299314583 l 28.939187085317943 -10.236225207077196" fill="#87ff25" stroke="none" /><path d="M 79.97269907076064 106.31721596034903 l -13.755087769673416 4.338770376577294 a35.42315388297871,35.42315388297871 0 0,0 -0.1784200625816504,-0.5830870878325682 l 13.827734604761197 -4.101356316192677" fill="#ffb610" stroke="none" /><path d="M 79.76711848015287 105.62410040840567 l -13.94203472672653 3.8754441933380734 a35.47063924009324,35.47063924009324 0 0,0 -0.15845566192857874,-0.5896724649893363 l 14.006678464996881 -3.6348807951731983" fill="#ffb711" stroke="none" /><path d="M 79.50377843672027 104.57218783832718 l -2.825714780532221 0.6303453889899991 a23.895168273233736,23.895168273233736 0 0,0 -0.08609766082073694,-0.40221960796730666 l 2.836146480077399 -0.5816119616065281" fill="#ff1802" stroke="none" /><path d="M 79.35854240842038 103.8639653848113 l -30.23829498521579 5.660439656463497 a51.76353459401879,51.76353459401879 0 0,0 -0.1564085917661415,-0.8772224456087581 l 30.33125001932112 -5.1390984601215255" fill="#86ff25" stroke="none" /><path d="M 79.1416061653843 102.43462659150553 l -19.63886068826873 2.292280644312257 a40.77218752909034,40.77218752909034 0 0,0 -0.07536583250699053,-0.6977940077504041 l 19.675408822276772 -1.9538903146770712" fill="#fffa17" stroke="none" /><line stroke="#e1ed5e" stroke-width="0.3" x1="15.007084014347285" x2="10.007500721073583" y1="101.09737516637583" y2="101.16192664675087" /><path d="M 14.007167355692545 101.11028546245083 a86.0,86.0 0 0,1 10.666146001902526,-42.60595125391555" fill="none" id="id10" stroke="none" /><text fill="#e1ed5e" style="font-size:6.75px; font-family:Arial;" text-anchor="middle"><textPath startOffset="22.20632615414155" xlink:href="#id10">October</textPath></text><path d="M 79.03285615573316 98.82574320788736 l -21.801838283923516 -1.2210035317919026 a42.83600243137469,42.83600243137469 0 0,0 0.04756715525872275,-0.73584283813116 l 21.777590537660377 1.5961054341760745" fill="#ebff1a" stroke="none" /><path d="M 79.12142395522702 97.74499172005258 l -21.727896271430232 -2.346739829998146 a42.854259635405896,42.854259635405896 0 0,0 0.08552413779106713,-0.7327185838830769 l 21.684281780635576 2.720402152206085" fill="#ebff1a" stroke="none" /><path d="M 79.21141760316559 97.0276538004421 l -23.9240840200516 -3.4206594205159804 a45.167389330865944,45.167389330865944 0 0,0 0.11666974666342934,-0.7687078589420698 l 23.861658379948867 3.8319663918501417" fill="#d0ff1d" stroke="none" /><path d="M 79.32604984820605 96.31383870115002 l -13.166577593954473 -2.3475982291138906 a34.374228313550006,34.374228313550006 0 0,0 0.10887509106823413,-0.5816150900052893 l 13.124216778976377 2.573891396581752" fill="#ffa90f" stroke="none" /><path d="M 79.46518482838121 95.60439243477599 l -9.618391483319881 -2.0588777652014354 a30.83628143042081,30.83628143042081 0 0,0 0.11557087774090263,-0.518081583740651 l 9.581526218576942 2.224137518492046" fill="#ff7a0b" stroke="none" /><path d="M 79.91906864156998 93.8553929516997 l -7.257965985859351 -2.220880503847406 a28.590150226725477,28.590150226725477 0 0,0 0.14804866930474472,-0.4693547396432103 l 7.2186618327864025 2.345485409917031" fill="#ff5b08" stroke="none" /><path d="M 81.10775173730289 90.83032412892265 l -8.010254057600664 -3.887913832797264 a29.903934188804644,29.903934188804644 0 0,0 0.228750838130075,-0.46114773110487783 l 7.942143206517176 4.025221152401104" fill="#ff6d0a" stroke="none" /><path d="M 81.26839172434947 90.50648371742162 l -12.958668662720203 -6.567686561649496 a35.52795926075779,35.52795926075779 0 0,0 0.2811624613433197,-0.5431163831012751 l 12.84369676821677 6.7897756670111065" fill="#ffb811" stroke="none" /><path d="M 81.43458229118936 90.18545643968196 l -5.693524295392665 -3.0098618347995263 a27.440146517495492,27.440146517495492 0 0,0 0.22434528158630324,-0.4156777346361209 l 5.640870914587888 3.10742055276812" fill="#ff4b07" stroke="none" /><path d="M 81.6062741919709 89.86733742301443 l -27.033616573789107 -14.892171267348067 a51.86410844516122,51.86410844516122 0 0,0 0.43749192867814984,-0.7782493244571829 l 26.77326700381853 15.355304101740035" fill="#85ff25" stroke="none" /><line stroke="#e1ed5e" stroke-width="0.3" x1="26.266209847984243" x2="21.928928074336255" y1="57.71137044288968" y2="55.22380399835378" /><path d="M 25.398753493254645 57.2138571539825 a86.0,86.0 0 0,1 29.58750427330803,-30.4925239686951" fill="none" id="id11" stroke="none" /><text fill="#e1ed5e" style="font-size:6.75px; font-family:Arial;" text-anchor="middle"><textPath startOffset="21.46611528233685" xlink:href="#id11">November</textPath></text><path d="M 82.15384107792192 88.93136811851018 l -32.65196623325334 -20.251562031962035 a59.42234588923382,59.42234588923382 0 0,0 0.5466074948631969,-0.8646017887997576 l 32.298531142144185 20.810611468476008" fill="#37ff2e" stroke="none" /><path d="M 82.7489923806493 88.02491185347247 l -14.834574349965996 -10.297678800964162 a39.058426975583885,39.058426975583885 0 0,0 0.38814289524362533,-0.5490005991389745 l 14.655118834918492 10.551505900434924" fill="#ffe415" stroke="none" /><path d="M 83.17141714833178 87.43820079747577 l -5.682366554097288 -4.241637473391511 a28.090894027610524,28.090894027610524 0 0,0 0.2925787802120623,-0.384999379059955 l 5.608511833661116 4.338821628332492" fill="#ff5407" stroke="none" /><path d="M 83.39014120810768 87.1503855733568 l -17.44476579093419 -13.49550992486565 a43.055580736691,43.055580736691 0 0,0 0.45853356854370325,-0.5822910672375707 l 17.209878141796516 13.793793386056265" fill="#e9ff1a" stroke="none" /><path d="M 84.07557802195018 86.31012108654704 l -15.377392885149302 -13.219609910642907 a41.278616770722024,41.278616770722024 0 0,0 0.4678403167468535,-0.5348223564177984 l 15.147560704824604 13.482347823263648" fill="#feff18" stroke="none" /><path d="M 85.05521093208273 85.24692304244772 l -14.42726301648753 -14.242189742645262 a41.27278685362273,41.27278685362273 0 0,0 0.5034576390106335,-0.5012956319104065 l 14.179969577309581 14.48842122520578" fill="#feff18" stroke="none" /><path d="M 85.31137513191541 84.99185889309783 l -5.171585638551154 -5.284081233393613 a28.393700866140794,28.393700866140794 0 0,0 0.35223975483266695,-0.33885436506983313 l 5.079862640106059 5.372318685225758" fill="#ff5808" stroke="none" /><path d="M 85.83668400450813 84.49514656593477 l -4.976999097856136 -5.448416287421417 a28.379414615069393,28.379414615069393 0 0,0 0.36351193856723674,-0.32636460762318137 l 4.882476171692927 5.53327990381388" fill="#ff5808" stroke="none" /><path d="M 86.10567301691215 84.25364557470407 l -28.770358695854163 -32.605268720049565 a64.48375659708753,64.48375659708753 0 0,0 0.8386149434865064,-0.7272386151426234 l 28.20484995372088 33.09567232861186" fill="#35ff62" stroke="none" /><path d="M 86.65592168130627 83.78471172551755 l -4.800724213670089 -5.833683315684327 a28.555052217120142,28.555052217120142 0 0,0 0.38222514914503325,-0.30906615529788595 l 4.699595665960556 5.91545556824635" fill="#ff5a08" stroke="none" /><path d="M 86.93701828274178 83.55741782278169 l -10.211579225736356 -12.853476657363544 a37.416096139608825,37.416096139608825 0 0,0 0.507731872038743,-0.39629277963574233 l 9.988814798538188 13.027347826222508" fill="#ffd013" stroke="none" /><path d="M 87.80319425747018 82.90503203632743 l -10.198092712488387 -14.293584065428542 a38.558691306813884,38.558691306813884 0 0,0 0.5436203711597053,-0.3808408104866382 l 9.950541201745022 14.467009718679122" fill="#ffde14" stroke="none" /><path d="M 88.09926311788651 82.69761687909137 l -13.19401105123737 -19.182663760352714 a44.28210721912695,44.28210721912695 0 0,0 0.631748164030325,-0.4265591804163168 l 12.861858192800506 19.406934853067696" fill="#daff1b" stroke="none" /><path d="M 88.70189139769569 82.29822771554957 l -12.104374224579683 -18.96502182016372 a43.498620580114576,43.498620580114576 0 0,0 0.6346259163797014,-0.39740269061627737 l 11.77612915582774 19.170568852102928" fill="#e3ff1b" stroke="none" /><path d="M 89.00827224532344 82.1063720568725 l -11.832304797513421 -19.26201817237584 a43.605945697851176,43.605945697851176 0 0,0 0.6429549965003871,-0.3873731913189273 l 11.498987734795387 19.462837973153384" fill="#e2ff1b" stroke="none" /><line stroke="#e1ed5e" stroke-width="0.3" x1="56.76296977257108" x2="54.21961505331056" y1="26.818313649435495" y2="22.513508569990535" /><path d="M 56.25429882871898 25.957352633546506 a86.0,86.0 0 0,1 42.26535254187918,-11.944610805530505" fill="none" id="id12" stroke="none" /><text fill="#e1ed5e" style="font-size:6.75px; font-family:Arial;" text-anchor="middle"><textPath startOffset="22.20632615414155" xlink:href="#id12">December</textPath></text><path d="M 89.3179101791058 81.91981866633112 l -5.398549092213355 -9.137420501277928 a31.61304789955326,31.61304789955326 0 0,0 0.47088879427193014,-0.27276918341087386 l 5.2404635654761025 9.22899384207885" fill="#ff840c" stroke="none" /><path d="M 89.63071344664047 81.73862282372117 l -5.406950917235537 -9.522195144783113 a31.950220025037183,31.950220025037183 0 0,0 0.48058594546462813,-0.2674455583317043 l 5.242240882698862 9.613856100675003" fill="#ff890c" stroke="none" /><path d="M 89.94658935756843 81.56283822128135 l -11.648672152128338 -21.362745501470915 a45.332251401553165,45.332251401553165 0 0,0 0.6883053767337834,-0.36766889472644704 l 11.27922172886625 21.56009312269911" fill="#ceff1d" stroke="none" /><path d="M 90.58718382345135 81.22770947309562 l -20.71579737268855 -41.31419964892826 a67.21695958647425,67.21695958647425 0 0,0 1.0387540347623794,-0.5097120935986532 l 20.001572070915742 41.66466690266174" fill="#38ff82" stroke="none" /><path d="M 91.23893434514133 80.91482961587045 l -5.984153541569526 -13.035924446281191 a35.343828630398185,35.343828630398185 0 0,0 0.5550965087691093,-0.24905562280984597 l 5.758874914333643 13.137000399607565" fill="#ffb510" stroke="none" /><path d="M 91.90106846888425 80.62456947434976 l -5.578928305943672 -13.34671584567693 a35.46579638001666,35.46579638001666 0 0,0 0.5652844822040762,-0.23059373373910377 l 5.348359954151214 13.440770465599611" fill="#ffb711" stroke="none" /><path d="M 92.23578459929587 80.48803036053334 l -4.01589927043093 -10.092211588140424 a31.86186824123933,31.86186824123933 0 0,0 0.5113326662790366,-0.19838913048666498 l 3.8415834391522163 10.15984342251764" fill="#ff870c" stroke="none" /><path d="M 92.57280143429618 80.3572730644239 l -9.790071912434524 -25.89182281238521 a48.680895877817804,48.680895877817804 0 0,0 0.7863533466181487,-0.28962057386834417 l 9.342936240043807 26.056506654059877" fill="#a8ff21" stroke="none" /><path d="M 93.59665428221793 80.00007090966166 l -8.218439572254272 -25.669113604449915 a47.952664844889654,47.952664844889654 0 0,0 0.7882838724740916,-0.24492363634696315 l 7.775370327069451 25.806777375679406" fill="#b0ff20" stroke="none" /><path d="M 93.94186890950719 79.89281104454417 l -6.462674814643824 -21.44988639477231 a43.40231666833745,43.40231666833745 0 0,0 0.7171918313037572,-0.20936796225249502 l 6.092492765616646 21.557952685943505" fill="#e5ff1a" stroke="none" /><path d="M 94.28887869178378 79.79150937346287 l -3.0649778291138476 -10.845256542018147 a32.27003454099174,32.27003454099174 0 0,0 0.5358394837746304,-0.1464651723693731 l 2.877840456115496 10.896408255213816" fill="#ff8d0d" stroke="none" /><path d="M 94.98787191387505 79.60689891045804 l -15.03638425837485 -61.17930326862588 a84.0,84.0 0 0,0 1.4071052521498664,-0.3330163514365161 l 13.98105531926245 61.42906553220327" fill="#4dd2ff" stroke="none" /><path d="M 96.04723909329186 79.375362276772 l -5.232349167084346 -27.30124805408995 a48.79812265454699,48.79812265454699 0 0,0 0.8263262141417305,-0.15100583389016528 l 4.761627831839721 27.38726936933085" fill="#a6ff21" stroke="none" /><path d="M 97.11714578562143 79.19881850522333 l -2.0466335456434694 -14.76744665890261 a35.90859449088636,35.90859449088636 0 0,0 0.6129858211888886,-0.07958315240118544 l 1.7921329959467236 14.800488134467933" fill="#ffbd11" stroke="none" /><path d="M 97.47563105711357 79.15227682838746 l -5.207882146846549 -43.00975323507806 a64.32390690828507,64.32390690828507 0 0,0 1.1003471010379653,-0.12363681768566237 l 4.466768342298865 43.09302600623432" fill="#34ff60" stroke="none" /><path d="M 97.83486435360386 79.11191278185805 l -1.5368648620065628 -14.826861925960452 a35.90630028463019,35.90630028463019 0 0,0 0.6153226310281472,-0.058432298128650216 l 1.281417103888179 14.851119768604283" fill="#ffbd11" stroke="none" /><path d="M 98.55514903715128 79.0497635885617 l -1.0237072325792218 -14.843682213664811 a35.8789407606289,35.8789407606289 0 0,0 0.6164992130414227,-0.037188916116978735 l 0.7680459706981762 14.859104399162097" fill="#ffbc11" stroke="none" /><path d="M 99.27714615592234 79.0124445844662 l -0.5140895260504361 -14.926229562071523 a35.93508007947907,35.93508007947907 0 0,0 0.6183800382315631,-0.015970931988701406 l 0.257082852623994 14.932867286202583" fill="#ffbd11" stroke="none" /></svg>