<?xml version="1.0" encoding="utf-8" ?>
<svg baseProfile="full" height="200mm" version="1.1" viewBox="0,0,200,200" width="200mm" xmlns="http://www.w3.org/2000/svg" xmlns:ev="http://www.w3.org/2001/xml-events" xmlns:xlink="http://www.w3.org/1999/xlink"><defs /><rect fill="#1a1a1a" height="200" width="200" x="0" y="0" /><text alignment-baseline="middle" fill="#e1ed5e" style="dominant-baseline: central; font-size:9.0px; font-family:Arial;" text-anchor="middle" x="100.0" y="100.0">2023</text><line stroke="#e1ed5e" stroke-width="0.3" x1="100.0" x2="100.0" y1="15.0" y2="10.0" /><path d="M 100.0 14.0 a86.0,86.0 0 0,1 42.46469731375804,11.215312516191453" fill="none" id="id85" stroke="none" /><text fill="#e1ed5e" style="font-size:6.75px; font-family:Arial;" text-anchor="middle"><textPath startOffset="22.20632615414155" xlink:href="#id85">January</textPath></text><path d="M 101.08401301168833 79.027996857942 l 0.7590032660325067 -14.684158500343386 a35.70376131542725,35.70376131542725 0 0,0 0.6134891467513472,0.03700734069822976 l -1.0116544616234657 14.668917890264852" fill="#ff7b0b" stroke="none" /><path d="M 101.44485096284872 79.0497635885617 l 1.5259356336357734 -22.125958382777945 a43.17851469134985,43.17851469134985 0 0,0 0.7410457287392747,0.05751941083724022 l -1.9065715517373893 22.096413709752238" fill="#ffe615" stroke="none" /><path d="M 102.16513564639614 79.11191278185805 l 4.518272074302099 -43.58990685891188 a64.82344991561061,64.82344991561061 0 0,0 1.1088924572884296,0.1245969880280897 l -5.267931235100254 43.50567391741319" fill="#33ff50" stroke="none" /><path d="M 103.2404852339499 79.25152402106235 l 2.4124304731975177 -15.446531031707112 a36.63378206645797,36.63378206645797 0 0,0 0.6222000062751906,0.10266833225078145 l -2.6779596856115835 15.402716436516705" fill="#ff890c" stroke="none" /><path d="M 103.59715602781102 79.31037775812273 l 1.6128578791330321 -9.276611854227523 a30.415776018591146,30.415776018591146 0 0,0 0.5150475403643998,0.09412164590056647 l -1.772300540600333 9.247474726976218" fill="#ff2a04" stroke="none" /><path d="M 105.71112130821622 79.79150937346287 l 8.416661131841156 -29.78189543003698 a51.94836797011925,51.94836797011925 0 0,0 0.858409136139732,0.25059316596757997 l -8.928060485704316 29.632603935150694" fill="#a6ff21" stroke="none" /><path d="M 106.40334571778207 80.00007090966166 l 13.359829788020681 -41.727506243712895 a64.81403689782515,64.81403689782515 0 0,0 1.0596082012779595,0.3493361643899655 l -14.076120811541058 41.491356355063694" fill="#33ff50" stroke="none" /><path d="M 106.74666289553966 80.11325718540242 l 4.797018547338713 -14.139890432475628 a35.931439595227495,35.931439595227495 0 0,0 0.5840022358935517,0.20374691291876443 l -5.039702787295537 14.055222666384656" fill="#ff7f0b" stroke="none" /><path d="M 107.08798089147638 80.2323363322302 l 4.934217840856524 -13.761035792132969 a35.61891281092378,35.61891281092378 0 0,0 0.5753602267729022,0.21191002718515498 l -5.170360393402003 13.67406249714149" fill="#ff7a0b" stroke="none" /><path d="M 109.41281617654863 81.2277094730956 l 9.836712930658008 -19.617681839376715 a42.945713978615174,42.945713978615174 0 0,0 0.6579682416967815,0.3370368890222482 l -10.172941659943545 19.445452425041967" fill="#ffe315" stroke="none" /><path d="M 109.73455568895987 81.39251694778311 l 8.92970216439817 -17.06901547379586 a40.26371900723066,40.26371900723066 0 0,0 0.6113469643165566,0.3265603760517645 l -9.222194175243038 16.91277637124234" fill="#ffbd11" stroke="none" /><path d="M 110.36928655335952 81.73862282372117 l 12.37215970681849 -21.788642229987595 a46.056242057368095,46.056242057368095 0 0,0 0.6860258574244052,0.3973904565253643 l -12.745382296708224 21.572447616072182" fill="#f2ff19" stroke="none" /><line stroke="#e1ed5e" stroke-width="0.3" x1="143.23703022742887" x2="145.7803849466894" y1="26.81831364943548" y2="22.513508569990506" /><path d="M 143.74570117128098 25.957352633546492 a86.0,86.0 0 0,1 28.547481713284135,27.462654790039103" fill="none" id="id86" stroke="none" /><text fill="#e1ed5e" style="font-size:6.75px; font-family:Arial;" text-anchor="middle"><textPath startOffset="19.985693538727396" xlink:href="#id86">February</textPath></text><path d="M 110.99172775467656 82.1063720568725 l 17.08023523029168 -27.805216906132458 a53.63226199207115,53.63226199207115 0 0,0 0.782471328063029,0.48998347384901114 l -17.556325710726973 27.507089090960502" fill="#92ff23" stroke="none" /><path d="M 111.60114157652 82.49532879139004 l 24.49976174707318 -36.967075286778865 a65.34865252656192,65.34865252656192 0 0,0 0.9322928344674299,0.6294882834979472 l -25.132459275947152 36.53987509098225" fill="#33ff57" stroke="none" /><path d="M 112.48926042617603 83.11751280151076 l 13.843908325306574 -18.713646533400645 a44.27776544895473,44.27776544895473 0 0,0 0.6088273845890408,0.4585561637570872 l -14.163981863653998 18.47257378013771" fill="#fff517" stroke="none" /><path d="M 113.06298171725822 83.55741782278167 l 14.653702813280432 -18.444848038757765 a44.55723721731411,44.55723721731411 0 0,0 0.5964232357687032,0.48226611153577603 l -14.969029447613627 18.18987582995786" fill="#fff817" stroke="none" /><path d="M 113.6212207817346 84.01681056812373 l 31.03047081098988 -36.41126600028571 a68.84005027688889,68.84005027688889 0 0,0 0.8952687920041378,0.7763682743008162 l -31.65263340164078 35.87173273256522" fill="#38ff83" stroke="none" /><path d="M 114.42810811169701 84.74124197986012 l 15.07172715983152 -15.939431275192314 a42.93678255708849,42.93678255708849 0 0,0 0.532654824832933,0.5124135194674169 l -15.34386522827687 15.677634668962595" fill="#ffe215" stroke="none" /><path d="M 114.94478906791727 85.2469230424477 l 10.863954841099302 -10.724591769460638 a36.265725774132974,36.265725774132974 0 0,0 0.43473234190916665,0.44802989238910196 l -11.046951446711578 10.535997681521422" fill="#ff830c" stroke="none" /><path d="M 115.4437574822437 85.77008943001954 l 32.20810849903399 -29.676618795421295 a64.79570705233903,64.79570705233903 0 0,0 0.7487185893824024,0.8267537667415746 l -32.714170729032425 29.11781224141017" fill="#33ff50" stroke="none" /><path d="M 116.15771136456269 86.58626213691792 l 17.33402313229014 -14.390283200570943 a43.528839485055684,43.528839485055684 0 0,0 0.47363835526186565,0.5806246199215267 l -17.579159979628415 14.089774411041317" fill="#ffeb16" stroke="none" /><path d="M 116.82858285166822 87.43820079747576 l 5.876640987744208 -4.38665481960346 a28.333324607924123,28.333324607924123 0 0,0 0.2883757514524325,0.39334420089793015 l -5.951279351710268 4.284848175034036" fill="#ff0901" stroke="none" /><path d="M 117.04232023915458 87.72973835380427 l 11.89748970260952 -8.566046731626269 a35.66040305830998,35.66040305830998 0 0,0 0.35437505195125296,0.5012383795381039 l -12.043177374364655 8.359981851756372" fill="#ff7a0b" stroke="none" /><path d="M 117.2510076193507 88.02491185347247 l 50.67306408257095 -35.17559219919149 a82.68534437028104,82.68534437028104 0 0,0 0.8015577695973691,1.1761871198503582 l -51.271046317837055 34.298127056070726" fill="#4bdfff" stroke="none" /><line stroke="#e1ed5e" stroke-width="0.3" x1="172.23445277983987" x2="176.4835382374775" y1="55.19839476539836" y2="52.563006222186495" /><path d="M 173.08426987136738 54.67131705675599 a86.0,86.0 0 0,1 12.851231095245387,41.99856678651699" fill="none" id="id87" stroke="none" /><text fill="#e1ed5e" style="font-size:6.75px; font-family:Arial;" text-anchor="middle"><textPath startOffset="22.20632615414155" xlink:href="#id87">March</textPath></text><path d="M 118.03404312379186 89.2402003453031 l 12.55661423299568 -7.491756150350237 a35.62172941934641,35.62172941934641 0 0,0 0.30963819448273394,0.5292720450664287 l -12.683712101948739 7.274504692929913" fill="#ff7a0b" stroke="none" /><path d="M 118.3937258080291 89.86733742301442 l 38.38149009737546 -21.143442737895793 a64.8199036158868,64.8199036158868 0 0,0 0.52995487906131,0.9819259047033673 l -38.73975307565524 20.479635849859967" fill="#33ff50" stroke="none" /><path d="M 119.196687751892 91.48605970444005 l 13.3705878665884 -5.930001481711461 a35.62660375723842,35.62660375723842 0 0,0 0.24380352079375317,0.5627321400833398 l -13.470682097224834 5.698970197041518" fill="#ff7a0b" stroke="none" /><path d="M 119.47837535516314 92.15188598940014 l 33.8559938207383 -13.641060643021628 a57.50077880068401,57.50077880068401 0 0,0 0.3619987544893337,0.9212473450836914 l -34.08578612510933 13.056264293042151" fill="#65ff29" stroke="none" /><path d="M 119.97218684219823 93.5106431181261 l 30.182088060869233 -9.806754884412461 a52.735325444636814,52.735325444636814 0 0,0 0.27307987875253514,0.8657378414517698 l -30.346423423389975 9.285766876534272" fill="#9dff22" stroke="none" /><path d="M 120.08093135843002 93.85539295169968 l 14.63105511720251 -4.4769877847071005 a36.300692581286455,36.300692581286455 0 0,0 0.17769033943415358,0.5990834899724828 l -14.705951353748366 4.224474907988087" fill="#ff840c" stroke="none" /><path d="M 120.28053869075195 94.5502522615342 l 35.28471928367771 -9.481642576205816 a57.53646070531266,57.53646070531266 0 0,0 0.2487867468210753,0.9586768220027149 l -35.44270236236908 8.872869328654252" fill="#64ff29" stroke="none" /><path d="M 120.53481517161879 95.60439243477599 l 19.944889720976857 -4.269330277014296 a41.396710690603015,41.396710690603015 0 0,0 0.14315515605498885,0.6980753814429937 l -20.015424172946844 3.9253792394078904" fill="#ffcd13" stroke="none" /><path d="M 120.67395015179393 96.31383870115 l 15.975910691152018 -2.8485017749981547 a37.22786753624249,37.22786753624249 0 0,0 0.10705341048025739,0.6318352886005847 l -16.022575963152498 2.573080698081732" fill="#ff920d" stroke="none" /><path d="M 120.78858239683441 97.02765380044208 l 35.15262238790227 -5.0261129674280385 a56.510120702523615,56.510120702523615 0 0,0 0.1293920331953303,0.964120939782195 l -35.23393042015544 4.420273685581179" fill="#70ff27" stroke="none" /><path d="M 120.94382443527127 98.46500227214037 l 27.823789842492925 -2.0392385507559956 a48.89841886319191,48.89841886319191 0 0,0 0.054299153748008366,0.8399838751073753 l -27.85476958724535 1.559995611395585" fill="#cdff1d" stroke="none" /><path d="M 120.98425023603335 99.18683210126433 l 7.329341316497551 -0.28402182638951623 a28.334842365830617,28.334842365830617 0 0,0 0.014691353391918889,0.4875344959419746 l -7.333144364345115 0.15781718302254252" fill="#ff0901" stroke="none" /><line stroke="#e1ed5e" stroke-width="0.3" x1="184.98032266829074" x2="189.97916517819016" y1="98.17113171792111" y2="98.06355123074" /><path d="M 185.9800911702706 98.14961562048488 a86.0,86.0 0 0,1 -9.607161424134198,41.387399972396054" fill="none" id="id88" stroke="none" /><text fill="#e1ed5e" style="font-size:6.75px; font-family:Arial;" text-anchor="middle"><textPath startOffset="21.466115282336823" xlink:href="#id88">April</textPath></text><path d="M 120.99980553446 99.90962569577887 l 62.99941660337998 -0.27112291266339017 a84.0,84.0 0 0,0 -0.006222810841987947,1.4459620871852612 l -62.994749495248485 -0.8133486527255557" fill="#4dd2ff" stroke="none" /><path d="M 120.9764740272857 100.99374915477107 l 6.744561185568334 0.3195199521493427 a27.75212548651878,27.75212548651878 0 0,0 -0.02671293936713075,0.4769774771377704 l -6.738061895313674 -0.4355691456225364" fill="#ff0000" stroke="none" /><path d="M 120.92983693683757 101.71520430193887 l 7.3240228445557305 0.6002051295665115 a28.34857515611919,28.34857515611919 0 0,0 -0.04404208140181241,0.4860006983015486 l -7.312606166876843 -0.7261872164166306" fill="#ff0a01" stroke="none" /><path d="M 120.8583938346157 102.4346265915055 l 61.94610936844049 7.230453423428343 a83.36665713821094,83.36665713821094 0 0,0 -0.17863684525499846,1.4239114190422038 l -61.81247101393865 -8.295682596757942" fill="#4cd8ff" stroke="none" /><path d="M 120.64145759157962 103.86396538481128 l 14.352978996229282 2.686797371953866 a35.60229044308245,35.60229044308245 0 0,0 -0.11794541582595805,0.6014011342677901 l -14.30460364742766 -2.933462233289601" fill="#ff7a0b" stroke="none" /><path d="M 120.49622156327973 104.57218783832717 l 30.064593149023548 6.706649161447867 a51.80355343448322,51.80355343448322 0 0,0 -0.20163776859623928,0.8686502297619018 l -29.944694814496756 -7.2231680485583345" fill="#a8ff21" stroke="none" /><path d="M 120.23288151984713 105.62410040840565 l 20.67422413523597 5.746779680807881 a42.45807587584963,42.45807587584963 0 0,0 -0.20179183790754604,0.7024638603582477 l -20.572239660442325 -6.101801016670711" fill="#ffdc14" stroke="none" /><path d="M 120.13307415673323 105.97154293290107 l 14.00640174031494 4.154349637647306 a35.60951438696433,35.60951438696433 0 0,0 -0.17935872696183422,0.5861546973377637 l -13.932816240846973 -4.394831307537127" fill="#ff7a0b" stroke="none" /><path d="M 120.02730092923936 106.31721596034902 l 21.12535470302624 6.663575305005424 a43.15138476877125,43.15138476877125 0 0,0 -0.22954019324053535,0.706452073856427 l -21.007522258769455 -7.026226278839647" fill="#ffe515" stroke="none" /><path d="M 119.79798401119884 107.00284435728193 l 29.058994737712442 10.27860297352328 a51.823284287267654,51.823284287267654 0 0,0 -0.30471039640507597,0.8384321429988921 l -28.87776008030214 -10.777282913528303" fill="#a8ff21" stroke="none" /><line stroke="#e1ed5e" stroke-width="0.3" x1="174.80103733775053" x2="179.2010983576182" y1="140.37084112569926" y2="142.7455964860345" /><path d="M 175.68104954172406 140.8457921977663 a86.0,86.0 0 0,1 -30.038265399797805,32.042727171017184" fill="none" id="id89" stroke="none" /><text fill="#e1ed5e" style="font-size:6.75px; font-family:Arial;" text-anchor="middle"><textPath startOffset="22.206326154141568" xlink:href="#id89">May</textPath></text><line stroke="#e1ed5e" stroke-width="0.3" x1="143.8653032363475" x2="146.44561519142675" y1="172.8068346515853" y2="177.08958963109032" /><path d="M 144.38136562736335 173.6633856474863 a86.0,86.0 0 0,1 -40.68145358897372,12.25698825130547" fill="none" id="id90" stroke="none" /><text fill="#e1ed5e" style="font-size:6.75px; font-family:Arial;" text-anchor="middle"><textPath startOffset="21.466115282336833" xlink:href="#id90">June</textPath></text><line stroke="#e1ed5e" stroke-width="0.3" x1="102.19456741930631" x2="102.32365962044197" y1="184.97166512339345" y2="189.96999836594603" /><path d="M 102.22038585953345 185.97133177190398 a86.0,86.0 0 0,1 -42.740103519485714,-10.115201625700543" fill="none" id="id91" stroke="none" /><text fill="#e1ed5e" style="font-size:6.75px; font-family:Arial;" text-anchor="middle"><textPath startOffset="22.20632615414155" xlink:href="#id91">July</textPath></text><line stroke="#e1ed5e" stroke-width="0.3" x1="58.666819895761336" x2="56.23545636021788" y1="174.27360380694188" y2="178.64263932499728" /><path d="M 58.180547188652646 175.14741091055294 a86.0,86.0 0 0,1 -31.652253787137756,-30.449443065178592" fill="none" id="id92" stroke="none" /><text fill="#e1ed5e" style="font-size:6.75px; font-family:Arial;" text-anchor="middle"><textPath startOffset="22.20632615414155" xlink:href="#id92">August</textPath></text><line stroke="#e1ed5e" stroke-width="0.3" x1="26.63291911575756" x2="22.317208475507996" y1="142.92168965132927" y2="145.44649492493687" /><path d="M 25.769776987707644 143.4266507060508 a86.0,86.0 0 0,1 -11.730757126820373,-40.83630448921669" fill="none" id="id93" stroke="none" /><text fill="#e1ed5e" style="font-size:6.75px; font-family:Arial;" text-anchor="middle"><textPath startOffset="21.46611528233685" xlink:href="#id93">September</textPath></text><line stroke="#e1ed5e" stroke-width="0.3" x1="15.007084014347285" x2="10.007500721073583" y1="101.09737516637583" y2="101.16192664675087" /><path d="M 14.007167355692545 101.11028546245083 a86.0,86.0 0 0,1 10.666146001902534,-42.60595125391555" fill="none" id="id94" stroke="none" /><text fill="#e1ed5e" style="font-size:6.75px; font-family:Arial;" text-anchor="middle"><textPath startOffset="22.20632615414155" xlink:href="#id94">October</textPath></text><line stroke="#e1ed5e" stroke-width="0.3" x1="26.266209847984243" x2="21.928928074336255" y1="57.711370442889674" y2="55.22380399835377" /><path d="M 25.398753493254645 57.213857153982495 a86.0,86.0 0 0,1 29.58750427330803,-30.492523968695096" fill="none" id="id95" stroke="none" /><text fill="#e1ed5e" style="font-size:6.75px; font-family:Arial;" text-anchor="middle"><textPath startOffset="21.46611528233685" xlink:href="#id95">November</textPath></text><line stroke="#e1ed5e" stroke-width="0.3" x1="56.762969772571076" x2="54.21961505331055" y1="26.818313649435495" y2="22.513508569990535" /><path d="M 56.25429882871897 25.957352633546506 a86.0,86.0 0 0,1 42.265352541879196,-11.944610805530505" fill="none" id="id96" stroke="none" /><text fill="#e1ed5e" style="font-size:6.75px; font-family:Arial;" text-anchor="middle"><textPath startOffset="22.20632615414155" xlink:href="#id96">December</textPath></text></svg>