<?xml version="1.0" encoding="utf-8" ?>
<svg baseProfile="full" height="200mm" version="1.1" viewBox="0,0,200,200" width="200mm" xmlns="http://www.w3.org/2000/svg" xmlns:ev="http://www.w3.org/2001/xml-events" xmlns:xlink="http://www.w3.org/1999/xlink"><defs /><rect fill="#1a1a1a" height="200" width="200" x="0" y="0" /><text alignment-baseline="middle" fill="#e1ed5e" style="dominant-baseline: central; font-size:9.0px; font-family:Arial;" text-anchor="middle" x="100.0" y="100.0">2024</text><line stroke="#e1ed5e" stroke-width="0.3" x1="100.0" x2="100.0" y1="15.0" y2="10.0" /><path d="M 100.0 14.0 a86.0,86.0 0 0,1 42.35913384403234,11.155469271406648" fill="none" id="id97" stroke="none" /><text fill="#e1ed5e" style="font-size:6.75px; font-family:Arial;" text-anchor="middle"><textPath startOffset="22.145653131862478" xlink:href="#id97">January</textPath></text><path d="M 100.0 79.0 l 0.0 -19.09498733265883 a40.09498733265883,40.09498733265883 0 0,0 0.6882837740632364,0.0059080884003842905 l -0.3277908492143816 19.09217364245288" fill="#ffab0f" stroke="none" /><path d="M 100.36049292484886 79.00309439819443 l 0.139993380428713 -8.153912576708036 a29.155114251508763,29.155114251508763 0 0,0 0.5003388096661971,0.012886952913058695 l -0.27994550416565156 8.150307906444931" fill="#ff0000" stroke="none" /><path d="M 101.44090949804482 79.04949213459386 l 1.3102722133400746 -19.05107041674214 a40.096075442266105,40.096075442266105 0 0,0 0.6862748905610372,0.05312201683517309 l -1.6371160986763453 19.025770632911915" fill="#ffab0f" stroke="none" /><path d="M 101.80034050326958 79.07731436759882 l 5.401021509808744 -62.76805689720356 a84.0,84.0 0 0,0 1.4356017464599482,0.1359529779792652 l -6.477722819653705 62.666092163719114" fill="#4dd2ff" stroke="none" /><path d="M 106.04205211174951 79.88797359093562 l 5.493860147014795 -18.28727364823641 a40.0946818983831,40.0946818983831 0 0,0 0.6574752039876434,0.20368749884412315 l -5.806975983874068 18.19026956158564" fill="#ffab0f" stroke="none" /><path d="M 107.74402155503746 80.48000691201159 l 7.040038154308634 -17.745495042157636 a40.090959418147705,40.090959418147705 0 0,0 0.6375331925850263,0.25927919928318316 l -7.3436258080841 17.62202858629516" fill="#ffab0f" stroke="none" /><path d="M 108.4095320186766 80.7573450057729 l 11.468609725143109 -26.242423444520742 a49.6390257737441,49.6390257737441 0 0,0 0.7778827655925259,0.347937066780204 l -11.917405893591265 26.041682626830685" fill="#ceff1d" stroke="none" /><path d="M 108.73861861582097 80.90454125486305 l 7.94486312145952 -17.360959739897922 a40.09250567916857,40.09250567916857 0 0,0 0.6233645520675866,0.2917660858890631 l -8.241716387398611 17.222017422438324" fill="#ffab0f" stroke="none" /><path d="M 109.3889696526874 81.21577127319529 l 18.09754875698155 -36.207220581263535 a61.47819281084073,61.47819281084073 0 0,0 0.9399511509430913,0.47994575508865167 l -18.71642712963822 35.89121687450205" fill="#3fff2d" stroke="none" /><line stroke="#e1ed5e" stroke-width="0.3" x1="143.13028292997686" x2="145.6673583964461" y1="26.7553504044142" y2="22.446841604673864" /><path d="M 143.63769802327073 25.89364864446614 a86.0,86.0 0 0,1 29.32050498858742,28.57503671076993" fill="none" id="id98" stroke="none" /><text fill="#e1ed5e" style="font-size:6.75px; font-family:Arial;" text-anchor="middle"><textPath startOffset="20.669276256404974" xlink:href="#id98">February</textPath></text><path d="M 110.96478420261332 82.08984904055464 l 9.968111589472086 -16.2821611487339 a40.09115031457003,40.09115031457003 0 0,0 0.5838719944894816,0.36437930754743986 l -10.246147712751279 16.108646044344912" fill="#ffab0f" stroke="none" /><path d="M 111.27062007382361 82.28071324371311 l 15.369738958712638 -24.163782488882248 a49.63768949878781,49.63768949878781 0 0,0 0.7150530597594658,0.4634887543101062 l -15.782277650729112 23.896379892868246" fill="#ceff1d" stroke="none" /><path d="M 111.5731344415666 82.4767994020092 l 22.096592123462028 -33.45705679532352 a61.09531185657679,61.09531185657679 0 0,0 0.8701825979130202,0.5854976868913359 l -22.66767100947205 33.07280943437506" fill="#43ff2d" stroke="none" /><path d="M 113.31354834802062 83.75963576809568 l 36.30997877312853 -44.29227018325233 a78.27320277836108,78.27320277836108 0 0,0 1.0318110226857617,0.8607734527551448 l -37.06496412997618 43.66243454658531" fill="#45ffef" stroke="none" /><path d="M 115.16444852881244 85.47280134310134 l 20.678551585211185 -19.809584650871223 a49.63602869991355,49.63602869991355 0 0,0 0.5841549966515813,0.6203523631777365 l -21.015562415599025 19.45169082774899" fill="#ceff1d" stroke="none" /><path d="M 116.57777611688842 87.10902102172516 l 15.07353318554505 -11.721270576530221 a40.094491001960776,40.094491001960776 0 0,0 0.41783809879831696,0.5469634841101618 l -15.272523261697675 11.460786179179179" fill="#ffab0f" stroke="none" /><path d="M 117.81537515405839 88.88188828441811 l 19.435284496924712 -12.129054953507472 a43.90947964362365,43.90947964362365 0 0,0 0.3935795587153978,0.6428826305094613 l -19.640632020095513 11.793635206873457" fill="#ffe215" stroke="none" /><line stroke="#e1ed5e" stroke-width="0.3" x1="172.87174338648825" x2="177.1583165268699" y1="56.24261187166439" y2="53.66864786411523" /><path d="M 173.72905801456457 55.72781907015455 a86.0,86.0 0 0,1 12.242430191666344,42.057860355516425" fill="none" id="id99" stroke="none" /><text fill="#e1ed5e" style="font-size:6.75px; font-family:Arial;" text-anchor="middle"><textPath startOffset="22.145653131862474" xlink:href="#id99">March</textPath></text><path d="M 118.18653347947321 89.5 l 41.336156707844154 -23.86544120253838 a68.73088240507676,68.73088240507676 0 0,0 0.5811576908467141,1.026849954271737 l -41.739747763712245 23.15233447816753" fill="#38ff7d" stroke="none" /><path d="M 118.70294669586156 90.45014215332178 l 35.18542288634181 -17.965927631830013 a60.50681636582299,60.50681636582299 0 0,0 0.46440447205356394,0.9291200363298927 l -35.488647271607114 17.359275739336372" fill="#4aff2c" stroke="none" /><path d="M 119.0197475246899 91.09779779509293 l 31.129232120537313 -14.570052439485766 a55.37027088202328,55.37027088202328 0 0,0 0.3955428960708327,0.8643326120421279 l -31.374759481463197 14.033530845228954" fill="#86ff25" stroke="none" /><path d="M 119.16976305983485 91.42560881287824 l 11.62009605855849 -5.1975211653383155 a33.729527040478224,33.729527040478224 0 0,0 0.23187623239226043,0.5305781976186237 l -11.70760617296772 4.997280897943843" fill="#ff4a06" stroke="none" /><path d="M 119.31412917781788 91.75594674310238 l 37.048502543828995 -15.81380269582211 a61.2823521711741,61.2823521711741 0 0,0 0.40467992534073255,0.9710845022636887 l -37.31450831370621 15.175485684117143" fill="#41ff2d" stroke="none" /><path d="M 119.83427380445688 93.10060997987247 l 20.52318060227348 -7.13902756534412 a42.72939614007434,42.72939614007434 0 0,0 0.23504134198038584,0.6948579634555052 l -20.642707365826233 6.785667927414454" fill="#ffd113" stroke="none" /><path d="M 119.94978838288452 93.4421083053983 l 30.850608690465553 -10.14120784750691 a53.4746694083029,53.4746694083029 0 0,0 0.27917669425221425,0.8745170184727186 l -31.020150100495023 9.610121795342806" fill="#9dff22" stroke="none" /><path d="M 120.05942366710727 93.78553927170692 l 12.09047114371089 -3.7456588661795385 a33.65738728248034,33.65738728248034 0 0,0 0.16624133657152257,0.5533633423821082 l -12.15298880028604 3.537557920206707" fill="#ff4906" stroke="none" /><path d="M 120.16314734710363 94.1308016681162 l 45.846469788014 -13.345239181680899 a68.7492848201892,68.7492848201892 0 0,0 0.3201147018339118,1.1359741461876436 l -46.06880298192249 12.556257111590243" fill="#38ff7d" stroke="none" /><line stroke="#e1ed5e" stroke-width="0.3" x1="184.99686870605535" x2="189.99668451229388" y1="99.2704041080226" y2="99.22748670261217" /><path d="M 185.99683186730306 99.26182062694052 a86.0,86.0 0 0,1 -10.086455211305974,41.156179273409016" fill="none" id="id100" stroke="none" /><text fill="#e1ed5e" style="font-size:6.75px; font-family:Arial;" text-anchor="middle"><textPath startOffset="21.40746469413373" xlink:href="#id100">April</textPath></text><line stroke="#e1ed5e" stroke-width="0.3" x1="174.33088141563837" x2="178.70328620479359" y1="141.23008692659167" y2="143.65538615756765" /><path d="M 175.20536237346943 141.71514677278685 a86.0,86.0 0 0,1 -30.301960400862466,31.631185727798858" fill="none" id="id101" stroke="none" /><text fill="#e1ed5e" style="font-size:6.75px; font-family:Arial;" text-anchor="middle"><textPath startOffset="22.145653131862474" xlink:href="#id101">May</textPath></text><line stroke="#e1ed5e" stroke-width="0.3" x1="143.1302829299769" x2="145.66735839644613" y1="173.24464959558577" y2="177.55315839532614" /><path d="M 143.63769802327073 174.10635135553383 a86.0,86.0 0 0,1 -40.68552437913181,11.842963189579606" fill="none" id="id102" stroke="none" /><text fill="#e1ed5e" style="font-size:6.75px; font-family:Arial;" text-anchor="middle"><textPath startOffset="21.407464694133747" xlink:href="#id102">June</textPath></text><line stroke="#e1ed5e" stroke-width="0.3" x1="101.45913802915013" x2="101.54496967792366" y1="184.9874750549273" y2="189.98673829345242" /><path d="M 101.47630435890484 185.9873277026323 a86.0,86.0 0 0,1 -42.54439059252881,-10.42667462771756" fill="none" id="id103" stroke="none" /><text fill="#e1ed5e" style="font-size:6.75px; font-family:Arial;" text-anchor="middle"><textPath startOffset="22.145653131862474" xlink:href="#id103">July</textPath></text><line stroke="#e1ed5e" stroke-width="0.3" x1="58.13341422392154" x2="55.67067388415222" y1="173.97424548756322" y2="178.32567169271397" /><path d="M 57.64086615596768 174.84453072859336 a86.0,86.0 0 0,1 -31.369924170532247,-30.572349798747897" fill="none" id="id104" stroke="none" /><text fill="#e1ed5e" style="font-size:6.75px; font-family:Arial;" text-anchor="middle"><textPath startOffset="22.145653131862474" xlink:href="#id104">August</textPath></text><line stroke="#e1ed5e" stroke-width="0.3" x1="26.387840678322732" x2="22.057713659400548" y1="142.50000000000003" y2="145.00000000000006" /><path d="M 25.521815274538298 143.00000000000003 a86.0,86.0 0 0,1 -11.493303480769221,-40.785679425670985" fill="none" id="id105" stroke="none" /><text fill="#e1ed5e" style="font-size:6.75px; font-family:Arial;" text-anchor="middle"><textPath startOffset="21.40746469413373" xlink:href="#id105">September</textPath></text><line stroke="#e1ed5e" stroke-width="0.3" x1="15.003131293944662" x2="10.003315487706104" y1="100.72959589197737" y2="100.7725132973878" /><path d="M 14.003168132696942 100.73817937305945 a86.0,86.0 0 0,1 10.791469493833604,-42.45332614584628" fill="none" id="id106" stroke="none" /><text fill="#e1ed5e" style="font-size:6.75px; font-family:Arial;" text-anchor="middle"><textPath startOffset="22.145653131862435" xlink:href="#id106">October</textPath></text><line stroke="#e1ed5e" stroke-width="0.3" x1="26.387840678322718" x2="22.05771365940052" y1="57.49999999999999" y2="54.99999999999999" /><path d="M 25.521815274538284 56.99999999999999 a86.0,86.0 0 0,1 29.574782752854787,-30.34633250058573" fill="none" id="id107" stroke="none" /><text fill="#e1ed5e" style="font-size:6.75px; font-family:Arial;" text-anchor="middle"><textPath startOffset="21.40746469413373" xlink:href="#id107">November</textPath></text><line stroke="#e1ed5e" stroke-width="0.3" x1="56.869717070023135" x2="54.33264160355391" y1="26.7553504044142" y2="22.446841604673864" /><path d="M 56.362301976729285 25.89364864446614 a86.0,86.0 0 0,1 42.16139366436587,-11.88097634709845" fill="none" id="id108" stroke="none" /><text fill="#e1ed5e" style="font-size:6.75px; font-family:Arial;" text-anchor="middle"><textPath startOffset="22.145653131862474" xlink:href="#id108">December</textPath></text></svg>