<?xml version="1.0" encoding="utf-8" ?>
<svg baseProfile="full" height="200mm" version="1.1" viewBox="0,0,200,200" width="200mm" xmlns="http://www.w3.org/2000/svg" xmlns:ev="http://www.w3.org/2001/xml-events" xmlns:xlink="http://www.w3.org/1999/xlink"><defs /><rect fill="#1a1a1a" height="200" width="200" x="0" y="0" /><text alignment-baseline="middle" fill="#e1ed5e" style="dominant-baseline: central; font-size:9.0px; font-family:Arial;" text-anchor="middle" x="100.0" y="100.0">2024</text><line stroke="#e1ed5e" stroke-width="0.3" x1="100.0" x2="100.0" y1="15.0" y2="10.0" /><path d="M 100.0 14.0 a86.0,86.0 0 0,1 42.35913384403234,11.155469271406648" fill="none" id="id97" stroke="none" /><text fill="#e1ed5e" style="font-size:6.75px; font-family:Arial;" text-anchor="middle"><textPath startOffset="22.145653131862478" xlink:href="#id97">January</textPath></text><path d="M 100.0 79.0 l 0.0 -14.932127597462909 a35.93212759746291,35.93212759746291 0 0,0 0.6168227511262694,0.005294681464752098 l -0.25632982627741463 14.929927314192591" fill="#ff830c" stroke="none" /><path d="M 100.36049292484886 79.00309439819443 l 0.10947370547800397 -6.376294516085887 a27.377234216183222,27.377234216183222 0 0,0 0.4698281290037798,0.012101106008029957 l -0.21891514855252517 6.373475692727811" fill="#ff0000" stroke="none" /><path d="M 101.44090949804482 79.04949213459386 l 1.0246224067161946 -14.897784919945996 a35.93297849048592,35.93297849048592 0 0,0 0.6150203133121557,0.04760646191066784 l -1.2802117148035836 14.878000691040274" fill="#ff830c" stroke="none" /><path d="M 101.80034050326958 79.07731436759882 l 4.223555686950866 -49.08411921440899 a70.2654968684483,70.2654968684483 0 0,0 1.2008722621454808,0.11372385176736047 l -5.06552751248136 49.00438360713645" fill="#3aff96" stroke="none" /><path d="M 106.04205211174951 79.88797359093562 l 4.2961547598166705 -14.300501946819807 a35.931888750298555,35.931888750298555 0 0,0 0.5892134509418954,0.18253983325875311 l -4.541008843630196 14.224645525754408" fill="#ff830c" stroke="none" /><path d="M 107.74402155503746 80.48000691201159 l 5.505253613410295 -13.876835403626695 a35.928977800483004,35.928977800483004 0 0,0 0.5713486595456679,0.23236252587548825 l -5.742656734146402 13.780285621171911" fill="#ff830c" stroke="none" /><path d="M 108.4095320186766 80.7573450057729 l 8.968361214277673 -20.521365555976676 a43.39548943764762,43.39548943764762 0 0,0 0.6800416166880874,0.30417396536442093 l -9.319316233821393 20.364387839702403" fill="#ffec16" stroke="none" /><path d="M 108.73861861582097 80.90454125486305 l 6.212819511595463 -13.576131868241236 a35.93018696425254,35.93018696425254 0 0,0 0.5586481693588277,0.2614755510596364 l -6.444956394825796 13.467480085611065" fill="#ff830c" stroke="none" /><path d="M 109.3889696526874 81.21577127319529 l 14.152138597042299 -28.313757335896113 a52.65362351052254,52.65362351052254 0 0,0 0.8050307232081284,0.4110544233410712 l -14.636096541964006 28.06664496088221" fill="#9bff22" stroke="none" /><line stroke="#e1ed5e" stroke-width="0.3" x1="143.13028292997686" x2="145.6673583964461" y1="26.7553504044142" y2="22.446841604673864" /><path d="M 143.63769802327073 25.89364864446614 a86.0,86.0 0 0,1 29.32050498858742,28.57503671076993" fill="none" id="id98" stroke="none" /><text fill="#e1ed5e" style="font-size:6.75px; font-family:Arial;" text-anchor="middle"><textPath startOffset="20.669276256404974" xlink:href="#id98">February</textPath></text><path d="M 110.96478420261332 82.08984904055464 l 7.794983655483812 -12.732519985468578 a35.92912707996072,35.92912707996072 0 0,0 0.5232578991583294,0.3265516290616932 l -8.012405683431854 12.596832559565339" fill="#ff830c" stroke="none" /><path d="M 111.27062007382361 82.28071324371311 l 12.01901311967183 -18.89588492914118 a43.39444448130358,43.39444448130358 0 0,0 0.6251163302771405,0.40519285284440226 l -12.34161508220598 18.686778234592882" fill="#ffec16" stroke="none" /><path d="M 111.5731344415666 82.4767994020092 l 17.279358572409485 -26.16315121869059 a52.3542136620578,52.3542136620578 0 0,0 0.7456828400040091,0.501728693522494 l -17.725937700510496 25.862672851110975" fill="#9fff22" stroke="none" /><path d="M 113.31354834802062 83.75963576809568 l 28.39411342128551 -34.63620155570607 a65.78718717656113,65.78718717656113 0 0,0 0.867218185417511,0.7234642539588594 l -28.984505940864917 34.14367511783534" fill="#34ff5e" stroke="none" /><path d="M 115.16444852881244 85.47280134310134 l 16.170462196274098 -15.490936993377105 a43.393145749847406,43.393145749847406 0 0,0 0.5106839441860472,0.5423286515200333 l -16.434001974196406 15.211066881912576" fill="#ffec16" stroke="none" /><path d="M 116.57777611688842 87.10902102172516 l 11.787382570617796 -9.165939982258488 a35.93173947082084,35.93173947082084 0 0,0 0.3744566730194928,0.4901758052032052 l -11.942991220991594 8.9622432638144" fill="#ff830c" stroke="none" /><path d="M 117.81537515405839 88.88188828441811 l 15.19823726223248 -9.484824108400948 a38.91503012128128,38.91503012128128 0 0,0 0.34881215871467175,0.5697584470089982 l -15.358817385402554 9.222528545267394" fill="#ffae10" stroke="none" /><line stroke="#e1ed5e" stroke-width="0.3" x1="172.87174338648825" x2="177.1583165268699" y1="56.24261187166439" y2="53.66864786411523" /><path d="M 173.72905801456457 55.72781907015455 a86.0,86.0 0 0,1 12.242430191666344,42.057860355516425" fill="none" id="id99" stroke="none" /><text fill="#e1ed5e" style="font-size:6.75px; font-family:Arial;" text-anchor="middle"><textPath startOffset="22.145653131862474" xlink:href="#id99">March</textPath></text><path d="M 118.18653347947321 89.5 l 32.324544426094974 -18.662584425837956 a58.325168851675905,58.325168851675905 0 0,0 0.4931716175024832,0.8713869933351958 l -32.64014940861883 18.104940662403642" fill="#59ff2a" stroke="none" /><path d="M 118.70294669586156 90.45014215332178 l 27.514719698763514 -14.049211928328415 a51.89401488813991,51.89401488813991 0 0,0 0.39829913445056203,0.7968650789137702 l -27.75183874642581 13.574814993250893" fill="#a4ff21" stroke="none" /><path d="M 119.0197475246899 91.09779779509293 l 24.342810913516363 -11.393664648104973 a47.87727734136567,47.87727734136567 0 0,0 0.34201597055467103,0.7473666197172818 l -24.534811348926084 10.974109046173007" fill="#d7ff1c" stroke="none" /><path d="M 119.16976305983485 91.42560881287824 l 9.086822317206055 -4.064420042772515 a30.95438848491282,30.95438848491282 0 0,0 0.21279832857645042,0.48692422016478015 l -9.155254527799475 3.907833752831885" fill="#ff3805" stroke="none" /><path d="M 119.31412917781788 91.75594674310238 l 28.971633111963587 -12.366267415702909 a52.50047769432871,52.50047769432871 0 0,0 0.3466885431282017,0.8319262959750444 l -29.179647499628274 11.867108610286587" fill="#9dff22" stroke="none" /><path d="M 119.83427380445688 93.10060997987247 l 16.048963328442902 -5.582662542289313 a37.992214245906425,37.992214245906425 0 0,0 0.20898355295944143,0.6178227403807593 l -16.142432302974708 5.306338127434392" fill="#ffa10e" stroke="none" /><path d="M 119.94978838288452 93.4421083053983 l 24.12492961634689 -7.930343546883093 a46.39493212759746,46.39493212759746 0 0,0 0.24221531287161951,0.7587360177334909 l -24.257509644995764 7.5150384954582155" fill="#eaff1a" stroke="none" /><path d="M 120.05942366710727 93.78553927170692 l 9.454651877278625 -2.9290753197149786 a30.897975770282105,30.897975770282105 0 0,0 0.15261198815868654,0.5079956742211125 l -9.503540185440938 2.7663420419031426" fill="#ff3705" stroke="none" /><path d="M 120.16314734710363 94.1308016681162 l 35.85157323445734 -10.435870462123711 a58.3395593933282,58.3395593933282 0 0,0 0.27164428996114826,0.9639697539273535 l -36.025436016493074 9.818892784293345" fill="#59ff2a" stroke="none" /><path d="M 120.51834098615036 95.52812308129327 l 24.79674708796262 -5.404335615463086 a46.378839799899154,46.378839799899154 0 0,0 0.1628610388645014,0.7793490273263874 l -24.885865837651487 4.977870136851294" fill="#eaff1a" stroke="none" /><path d="M 120.7213421655516 96.59031103205396 l 31.08423745757292 -5.114899444704003 a52.50225412011358,52.50225412011358 0 0,0 0.13870222466483426,0.8905677806106256 l -31.167461174376022 4.580543482161937" fill="#9dff22" stroke="none" /><path d="M 120.86939407059847 97.66154086499901 l 27.746128308100843 -3.109011549808123 a48.91977057402935,48.91977057402935 0 0,0 0.08634946931071721,0.8353527856573071 l -27.795410169893227 2.632254241867885" fill="#c9ff1d" stroke="none" /><path d="M 120.99303781780057 99.45929381324524 l 62.97911345340172 -1.6221185602642854 a84.0,84.0 0 0,0 0.024754273605335886,1.4418123361237345 l -62.99767915860572 0.5407593081714844" fill="#4dd2ff" stroke="none" /><line stroke="#e1ed5e" stroke-width="0.3" x1="184.99686870605535" x2="189.99668451229388" y1="99.2704041080226" y2="99.22748670261217" /><path d="M 185.99683186730306 99.26182062694052 a86.0,86.0 0 0,1 -10.086455211305974,41.156179273409016" fill="none" id="id100" stroke="none" /><text fill="#e1ed5e" style="font-size:6.75px; font-family:Arial;" text-anchor="middle"><textPath startOffset="21.40746469413373" xlink:href="#id100">April</textPath></text><line stroke="#e1ed5e" stroke-width="0.3" x1="174.33088141563837" x2="178.70328620479359" y1="141.23008692659167" y2="143.65538615756765" /><path d="M 175.20536237346943 141.71514677278685 a86.0,86.0 0 0,1 -30.301960400862466,31.631185727798858" fill="none" id="id101" stroke="none" /><text fill="#e1ed5e" style="font-size:6.75px; font-family:Arial;" text-anchor="middle"><textPath startOffset="22.145653131862474" xlink:href="#id101">May</textPath></text><line stroke="#e1ed5e" stroke-width="0.3" x1="143.1302829299769" x2="145.66735839644613" y1="173.24464959558577" y2="177.55315839532614" /><path d="M 143.63769802327073 174.10635135553383 a86.0,86.0 0 0,1 -40.68552437913181,11.842963189579606" fill="none" id="id102" stroke="none" /><text fill="#e1ed5e" style="font-size:6.75px; font-family:Arial;" text-anchor="middle"><textPath startOffset="21.407464694133747" xlink:href="#id102">June</textPath></text><line stroke="#e1ed5e" stroke-width="0.3" x1="101.45913802915013" x2="101.54496967792366" y1="184.9874750549273" y2="189.98673829345242" /><path d="M 101.47630435890484 185.9873277026323 a86.0,86.0 0 0,1 -42.54439059252881,-10.42667462771756" fill="none" id="id103" stroke="none" /><text fill="#e1ed5e" style="font-size:6.75px; font-family:Arial;" text-anchor="middle"><textPath startOffset="22.145653131862474" xlink:href="#id103">July</textPath></text><line stroke="#e1ed5e" stroke-width="0.3" x1="58.13341422392154" x2="55.67067388415222" y1="173.97424548756322" y2="178.32567169271397" /><path d="M 57.64086615596768 174.84453072859336 a86.0,86.0 0 0,1 -31.369924170532247,-30.572349798747897" fill="none" id="id104" stroke="none" /><text fill="#e1ed5e" style="font-size:6.75px; font-family:Arial;" text-anchor="middle"><textPath startOffset="22.145653131862474" xlink:href="#id104">August</textPath></text><line stroke="#e1ed5e" stroke-width="0.3" x1="26.387840678322732" x2="22.057713659400548" y1="142.50000000000003" y2="145.00000000000006" /><path d="M 25.521815274538298 143.00000000000003 a86.0,86.0 0 0,1 -11.493303480769221,-40.785679425670985" fill="none" id="id105" stroke="none" /><text fill="#e1ed5e" style="font-size:6.75px; font-family:Arial;" text-anchor="middle"><textPath startOffset="21.40746469413373" xlink:href="#id105">September</textPath></text><line stroke="#e1ed5e" stroke-width="0.3" x1="15.003131293944662" x2="10.003315487706104" y1="100.72959589197737" y2="100.7725132973878" /><path d="M 14.003168132696942 100.73817937305945 a86.0,86.0 0 0,1 10.791469493833604,-42.45332614584628" fill="none" id="id106" stroke="none" /><text fill="#e1ed5e" style="font-size:6.75px; font-family:Arial;" text-anchor="middle"><textPath startOffset="22.145653131862435" xlink:href="#id106">October</textPath></text><line stroke="#e1ed5e" stroke-width="0.3" x1="26.387840678322718" x2="22.05771365940052" y1="57.49999999999999" y2="54.99999999999999" /><path d="M 25.521815274538284 56.99999999999999 a86.0,86.0 0 0,1 29.574782752854787,-30.34633250058573" fill="none" id="id107" stroke="none" /><text fill="#e1ed5e" style="font-size:6.75px; font-family:Arial;" text-anchor="middle"><textPath startOffset="21.40746469413373" xlink:href="#id107">November</textPath></text><line stroke="#e1ed5e" stroke-width="0.3" x1="56.869717070023135" x2="54.33264160355391" y1="26.7553504044142" y2="22.446841604673864" /><path d="M 56.362301976729285 25.89364864446614 a86.0,86.0 0 0,1 42.16139366436587,-11.88097634709845" fill="none" id="id108" stroke="none" /><text fill="#e1ed5e" style="font-size:6.75px; font-family:Arial;" text-anchor="middle"><textPath startOffset="22.145653131862474" xlink:href="#id108">December</textPath></text></svg>